<?xml version="1.0" encoding="UTF-8"?>
<svg width="373px" height="103px" viewBox="0 0 373 103" version="1.1" xmlns="http://www.w3.org/2000/svg" xmlns:xlink="http://www.w3.org/1999/xlink">
    <!-- Generator: Sketch 59.1 (86144) - https://sketch.com -->
    <title>Mobile Topb Bar/wo Status@1.5x</title>
    <desc>Created with Sketch.</desc>
    <defs>
        <rect id="path-1" x="0" y="0" width="375" height="101"></rect>
        <filter x="-0.5%" y="-1.0%" width="101.1%" height="104.0%" filterUnits="objectBoundingBox" id="filter-2">
            <feOffset dx="0" dy="1" in="SourceAlpha" result="shadowOffsetOuter1"></feOffset>
            <feGaussianBlur stdDeviation="0.5" in="shadowOffsetOuter1" result="shadowBlurOuter1"></feGaussianBlur>
            <feComposite in="shadowBlurOuter1" in2="SourceAlpha" operator="out" result="shadowBlurOuter1"></feComposite>
            <feColorMatrix values="0 0 0 0 0   0 0 0 0 0   0 0 0 0 0  0 0 0 0.278818837 0" type="matrix" in="shadowBlurOuter1"></feColorMatrix>
        </filter>
    </defs>
    <g id="Mobile" stroke="none" stroke-width="1" fill="none" fill-rule="evenodd">
        <g id="Tutorials-Filter" transform="translate(-2.000000, 0.000000)">
            <g id="Mobile-Topb-Bar/wo-Status" transform="translate(3.000000, 0.000000)">
                <g id="Rectangle">
                    <use fill="black" fill-opacity="1" filter="url(#filter-2)" xlink:href="#path-1"></use>
                    <use fill-opacity="0.17026333" fill="#D8D8D8" fill-rule="evenodd" xlink:href="#path-1"></use>
                </g>
                <g id="Icons/Search" transform="translate(263.000000, 47.500000)" fill-rule="evenodd" stroke-width="1">
                    <g id="Group-4-Copy" transform="translate(2.000000, 2.000000)" stroke="#22BFDE">
                        <circle id="Oval" stroke-width="2" cx="12" cy="12" r="11"></circle>
                        <line x1="21.4090909" y1="20.4375" x2="29.5909091" y2="26.5625" id="Line-5" stroke-width="2" stroke-linecap="square"></line>
                    </g>
                    <g id="Group-4" transform="translate(1.000000, 3.000000)" stroke="#262626">
                        <circle id="Oval" stroke-width="2" cx="12" cy="12" r="11"></circle>
                        <line x1="21.4090909" y1="20.4375" x2="29.5909091" y2="26.5625" id="Line-5" stroke-width="2" stroke-linecap="square"></line>
                    </g>
                </g>
                <g id="Group-4" stroke-width="1" fill-rule="evenodd" transform="translate(27.000000, 50.000000)">
                    <g id="noun_menu_865860-2" fill="#22BFDE" fill-rule="nonzero">
                        <g id="noun_menu_865860">
                            <path d="M1.45454545,2.89285714 C0.651222199,2.89285714 4.33488326e-08,2.245269 4.33488326e-08,1.44642857 C4.33488326e-08,0.647588147 0.651222199,0 1.45454545,0 L30.5454545,0 C31.3487778,0 32,0.64758813 32,1.44642857 C32,2.24526901 31.3487778,2.89285714 30.5454545,2.89285714 L1.45454545,2.89285714 Z" id="Path"></path>
                            <path d="M30.5454545,14.9464286 L1.45454545,14.9464286 C0.651222206,14.9464286 6.13045179e-08,14.2988404 6.13045179e-08,13.5 C6.13045179e-08,12.7011596 0.651222206,12.0535714 1.45454545,12.0535714 L30.5454545,12.0535714 C31.3487778,12.0535714 32.0000001,12.7011596 32.0000001,13.5 C32.0000001,14.2988404 31.3487778,14.9464286 30.5454545,14.9464286 L30.5454545,14.9464286 Z" id="Path"></path>
                            <path d="M30.5454545,27 L1.45454545,27 C0.651222182,27 0,26.3524119 0,25.5535714 C0,24.754731 0.651222182,24.1071429 1.45454545,24.1071429 L30.5454545,24.1071429 C31.3487778,24.1071429 32,24.754731 32,25.5535714 C32,26.3524119 31.3487778,27 30.5454545,27 Z" id="Path"></path>
                        </g>
                    </g>
                    <g id="noun_menu_865860" transform="translate(0.000000, 3.000000)" fill="#000000" fill-rule="nonzero">
                        <path d="M30.5454545,2.89285714 L1.45454545,2.89285714 C0.651222199,2.89285714 4.33488326e-08,2.245269 4.33488326e-08,1.44642857 C4.33488326e-08,0.647588147 0.651222199,0 1.45454545,0 L30.5454545,0 C31.3487778,0 32,0.64758813 32,1.44642857 C32,2.24526901 31.3487778,2.89285714 30.5454545,2.89285714 L30.5454545,2.89285714 Z" id="Path"></path>
                        <path d="M30.5454545,14.9464286 L1.45454545,14.9464286 C0.651222206,14.9464286 6.13045179e-08,14.2988404 6.13045179e-08,13.5 C6.13045179e-08,12.7011596 0.651222206,12.0535714 1.45454545,12.0535714 L30.5454545,12.0535714 C31.3487778,12.0535714 32.0000001,12.7011596 32.0000001,13.5 C32.0000001,14.2988404 31.3487778,14.9464286 30.5454545,14.9464286 L30.5454545,14.9464286 Z" id="Path"></path>
                        <path d="M30.5454545,27 L1.45454545,27 C0.651222182,27 0,26.3524119 0,25.5535714 C0,24.754731 0.651222182,24.1071429 1.45454545,24.1071429 L30.5454545,24.1071429 C31.3487778,24.1071429 32,24.754731 32,25.5535714 C32,26.3524119 31.3487778,27 30.5454545,27 Z" id="Path"></path>
                    </g>
                </g>
                <g id="Group-14" stroke-width="1" fill-rule="evenodd" transform="translate(308.000000, 47.000000)">
                    <g id="Fill-2" transform="translate(1.000000, 0.000000)" fill="#22BFDE">
                        <path d="M23.2534093,21.5904283 C22.3576348,20.8016467 21.3388263,20.183453 20.2420036,19.7415434 C22.2213414,18.4862684 23.5324716,16.315695 23.5324716,13.8483166 C23.5324716,9.97426271 20.287332,6.81943614 16.3027545,6.81943614 C12.318177,6.81943614 9.07334581,9.97426271 9.07334581,13.8483166 C9.07334581,16.315695 10.3841676,18.4862684 12.3635054,19.7415434 C11.2666827,20.1768573 10.2478742,20.8016467 9.35209972,21.5904283 C7.8920336,22.8714864 6.85379863,24.518304 6.32805148,26.3291139 C3.43998828,23.7232266 1.62962963,20.0068691 1.62962963,15.8800813 C1.62962963,8.01834819 8.20994874,1.62025316 16.296279,1.62025316 C24.3826093,1.62025316 30.962963,8.01834819 30.962963,15.8800813 C30.9694039,20.0005732 29.1590453,23.7232266 26.2774575,26.3291139 C25.7517104,24.518304 24.7134754,22.8774824 23.2534093,21.5904283 Z M16.5,8.50632911 C19.5337964,8.50632911 22,10.867289 22,13.7723056 C22,16.6770148 19.5337964,19.0379747 16.5,19.0379747 C13.4662036,19.0379747 11,16.6702525 11,13.7723056 C11,10.867289 13.4662036,8.50632911 16.5,8.50632911 Z M16.5,21.4683544 C20.6529301,21.4683544 24.1520316,24.2322571 24.8518519,27.9743203 C22.4776835,29.4927927 19.6000921,30.3797468 16.5,30.3797468 C13.3999079,30.3797468 10.5223165,29.4927927 8.14814815,27.9743203 C8.84796845,24.2322571 12.3405441,21.4683544 16.5,21.4683544 Z M16.5,0 C12.0912617,0 7.94712127,1.66214097 4.83380972,4.68737414 C1.72080441,7.71231033 0,11.7249687 0,15.9998515 C0,20.2750313 1.71437321,24.293926 4.83380972,27.3126259 C7.95355247,30.3313257 12.0912617,32 16.5,32 C20.9087383,32 25.0528787,30.337859 28.1661903,27.3126259 C31.2791956,24.2876897 33,20.2750313 33,15.9998515 C32.9935688,11.7249687 31.2791956,7.70607396 28.1661903,4.68737414 C25.0464475,1.66214097 20.9087383,0 16.5,0 Z" id="Fill-1"></path>
                    </g>
                    <g id="Group-5" fill="#000000" fill-opacity="0.8">
                        <g id="Fill-3">
                            <g id="Fill-2">
                                <path d="M23.2534093,21.5904283 C22.3576348,20.8016467 21.3388263,20.183453 20.2420036,19.7415434 C22.2213414,18.4862684 23.5324716,16.315695 23.5324716,13.8483166 C23.5324716,9.97426271 20.287332,6.81943614 16.3027545,6.81943614 C12.318177,6.81943614 9.07334581,9.97426271 9.07334581,13.8483166 C9.07334581,16.315695 10.3841676,18.4862684 12.3635054,19.7415434 C11.2666827,20.1768573 10.2478742,20.8016467 9.35209972,21.5904283 C7.8920336,22.8714864 6.85379863,24.518304 6.32805148,26.3291139 C3.43998828,23.7232266 1.62962963,20.0068691 1.62962963,15.8800813 C1.62962963,8.01834819 8.20994874,1.62025316 16.296279,1.62025316 C24.3826093,1.62025316 30.962963,8.01834819 30.962963,15.8800813 C30.9694039,20.0005732 29.1590453,23.7232266 26.2774575,26.3291139 C25.7517104,24.518304 24.7134754,22.8774824 23.2534093,21.5904283 Z M16.5,8.50632911 C19.5337964,8.50632911 22,10.867289 22,13.7723056 C22,16.6770148 19.5337964,19.0379747 16.5,19.0379747 C13.4662036,19.0379747 11,16.6702525 11,13.7723056 C11,10.867289 13.4662036,8.50632911 16.5,8.50632911 Z M16.5,21.4683544 C20.6529301,21.4683544 24.1520316,24.2322571 24.8518519,27.9743203 C22.4776835,29.4927927 19.6000921,30.3797468 16.5,30.3797468 C13.3999079,30.3797468 10.5223165,29.4927927 8.14814815,27.9743203 C8.84796845,24.2322571 12.3405441,21.4683544 16.5,21.4683544 Z M16.5,0 C12.0912617,0 7.94712127,1.66214097 4.83380972,4.68737414 C1.72080441,7.71231033 0,11.7249687 0,15.9998515 C0,20.2750313 1.71437321,24.293926 4.83380972,27.3126259 C7.95355247,30.3313257 12.0912617,32 16.5,32 C20.9087383,32 25.0528787,30.337859 28.1661903,27.3126259 C31.2791956,24.2876897 33,20.2750313 33,15.9998515 C32.9935688,11.7249687 31.2791956,7.70607396 28.1661903,4.68737414 C25.0464475,1.66214097 20.9087383,0 16.5,0 Z" id="Fill-1"></path>
                            </g>
                        </g>
                    </g>
                </g>
            </g>
        </g>
    </g>
</svg>