<?xml version="1.0" encoding="UTF-8"?>
<svg width="37px" height="37px" viewBox="0 0 37 37" version="1.1" xmlns="http://www.w3.org/2000/svg" xmlns:xlink="http://www.w3.org/1999/xlink">
    <!-- Generator: Sketch 60.1 (88133) - https://sketch.com -->
    <title>Icons/Avatar Copy@1.5x</title>
    <desc>Created with Sketch.</desc>
    <g id="Icons/Avatar-Copy" stroke="none" stroke-width="1" fill="none" fill-rule="evenodd">
        <g id="Group-14" transform="translate(3.000000, 5.000000)">
            <g id="Fill-2" transform="translate(1.000000, 0.000000)" fill="#22BFDE">
                <path d="M21.139463,19.5663256 C20.3251226,18.8514923 19.398933,18.2912543 18.4018215,17.8907737 C20.2012195,16.7531808 21.393156,14.7860986 21.393156,12.5500369 C21.393156,9.03917558 18.4430291,6.180114 14.8206859,6.180114 C11.1983427,6.180114 8.24849619,9.03917558 8.24849619,12.5500369 C8.24849619,14.7860986 9.44015235,16.7531808 11.2395503,17.8907737 C10.2424388,18.285277 9.31624926,18.8514923 8.50190884,19.5663256 C7.174576,20.7272845 6.23072602,22.219713 5.75277407,23.8607595 C3.12726207,21.4991741 1.48148148,18.1312251 1.48148148,14.3913237 C1.48148148,7.26662804 7.46358976,1.46835443 14.8147991,1.46835443 C22.1660085,1.46835443 28.1481481,7.26662804 28.1481481,14.3913237 C28.1540036,18.1255195 26.508223,21.4991741 23.8885978,23.8607595 C23.4106458,22.219713 22.4667958,20.7327184 21.139463,19.5663256 Z M15,7.70886076 C17.7579967,7.70886076 20,9.84848068 20,12.4811519 C20,15.1135446 17.7579967,17.2531646 15,17.2531646 C12.2420033,17.2531646 10,15.1074163 10,12.4811519 C10,9.84848068 12.2420033,7.70886076 15,7.70886076 Z M15,19.4556962 C18.775391,19.4556962 21.9563923,21.960483 22.5925926,25.3517278 C20.4342577,26.7278434 17.8182655,27.5316456 15,27.5316456 C12.1817345,27.5316456 9.56574226,26.7278434 7.40740741,25.3517278 C8.04360768,21.960483 11.2186764,19.4556962 15,19.4556962 Z M15,0 C10.9920561,0 7.2246557,1.50631525 4.39437247,4.24793281 C1.56436765,6.98928124 0,10.6257529 0,14.4998654 C0,18.3742471 1.5585211,22.0163705 4.39437247,24.7520672 C7.23050225,27.4877639 10.9920561,29 15,29 C19.0079439,29 22.7753443,27.4936847 25.6056275,24.7520672 C28.4356324,22.0107188 30,18.3742471 30,14.4998654 C29.9941535,10.6257529 28.4356324,6.98362953 25.6056275,4.24793281 C22.7694978,1.50631525 19.0079439,0 15,0 Z" id="Fill-1"></path>
            </g>
            <g id="Group-5" fill="#000000" fill-opacity="0.8">
                <g id="Fill-3">
                    <g id="Fill-2">
                        <path d="M21.139463,19.5663256 C20.3251226,18.8514923 19.398933,18.2912543 18.4018215,17.8907737 C20.2012195,16.7531808 21.393156,14.7860986 21.393156,12.5500369 C21.393156,9.03917558 18.4430291,6.180114 14.8206859,6.180114 C11.1983427,6.180114 8.24849619,9.03917558 8.24849619,12.5500369 C8.24849619,14.7860986 9.44015235,16.7531808 11.2395503,17.8907737 C10.2424388,18.285277 9.31624926,18.8514923 8.50190884,19.5663256 C7.174576,20.7272845 6.23072602,22.219713 5.75277407,23.8607595 C3.12726207,21.4991741 1.48148148,18.1312251 1.48148148,14.3913237 C1.48148148,7.26662804 7.46358976,1.46835443 14.8147991,1.46835443 C22.1660085,1.46835443 28.1481481,7.26662804 28.1481481,14.3913237 C28.1540036,18.1255195 26.508223,21.4991741 23.8885978,23.8607595 C23.4106458,22.219713 22.4667958,20.7327184 21.139463,19.5663256 Z M15,7.70886076 C17.7579967,7.70886076 20,9.84848068 20,12.4811519 C20,15.1135446 17.7579967,17.2531646 15,17.2531646 C12.2420033,17.2531646 10,15.1074163 10,12.4811519 C10,9.84848068 12.2420033,7.70886076 15,7.70886076 Z M15,19.4556962 C18.775391,19.4556962 21.9563923,21.960483 22.5925926,25.3517278 C20.4342577,26.7278434 17.8182655,27.5316456 15,27.5316456 C12.1817345,27.5316456 9.56574226,26.7278434 7.40740741,25.3517278 C8.04360768,21.960483 11.2186764,19.4556962 15,19.4556962 Z M15,0 C10.9920561,0 7.2246557,1.50631525 4.39437247,4.24793281 C1.56436765,6.98928124 0,10.6257529 0,14.4998654 C0,18.3742471 1.5585211,22.0163705 4.39437247,24.7520672 C7.23050225,27.4877639 10.9920561,29 15,29 C19.0079439,29 22.7753443,27.4936847 25.6056275,24.7520672 C28.4356324,22.0107188 30,18.3742471 30,14.4998654 C29.9941535,10.6257529 28.4356324,6.98362953 25.6056275,4.24793281 C22.7694978,1.50631525 19.0079439,0 15,0 Z" id="Fill-1"></path>
                    </g>
                </g>
            </g>
        </g>
    </g>
</svg>