<?xml version="1.0" encoding="UTF-8"?>
<svg width="199px" height="195px" viewBox="0 0 199 195" version="1.1" xmlns="http://www.w3.org/2000/svg" xmlns:xlink="http://www.w3.org/1999/xlink">
    <!-- Generator: Sketch 60.1 (88133) - https://sketch.com -->
    <title>Avatar@1.5x</title>
    <desc>Created with Sketch.</desc>
    <g id="Web" stroke="none" stroke-width="1" fill="none" fill-rule="evenodd">
        <g id="Account" transform="translate(-760.000000, -124.000000)">
            <g id="Avatar" transform="translate(742.000000, 100.000000)">
                <g id="Icons/Avatar-2">
                    <g id="Icons/Avatar">
                        <g id="noun_Octopus_2602069-(1)-Copy" stroke-width="1" fill-rule="evenodd" transform="translate(45.783784, 51.243243)">
                            <g id="Group">
                                <g id="Group-3" transform="translate(3.087422, 3.072715)">
                                    <path d="M133.73392,96.2070931 C137.331217,94.8319188 138.388079,91.5178946 137.83732,88.8452944 C137.291523,86.1775535 135.157954,83.6167166 131.15379,83.6167166 C129.451896,83.6555908 116.342848,84.4719487 114.382942,84.6274454 C111.336403,84.8801276 108.552839,84.5837119 105.9479,84.0589105 C116.174148,80.5116411 132.081644,74.0099338 136.304127,62.3185228 C138.839601,55.3163103 138.492276,46.681382 135.28696,36.661561 C134.130863,33.0511211 130.831273,31.8265843 128.057633,32.2007483 C124.74812,32.65752 122.376384,35.2523718 122.301957,38.5178033 C122.232492,41.3507595 122.108448,44.2760419 121.909976,47.1916057 C120.585178,66.1622078 96.4311877,71.9593205 88.814841,73.3150577 C89.8071988,66.9931434 93.9751019,61.4341351 95.9151616,59.1356989 C96.3567608,58.6594901 96.7933983,58.1832814 97.2449211,57.6487613 C97.3441569,57.5467166 97.4185837,57.4446719 97.4880488,57.3280493 C102.549074,51.0207129 105.218517,43.4645433 105.218517,35.4613205 C105.218517,24.8389496 100.415505,14.8677213 92.0499276,8.09875388 C83.6843508,1.33464578 72.6939873,-1.38168787 61.8127832,0.668925366 C47.3739761,3.38525901 35.9370516,14.7705358 33.3569211,28.9984873 C31.4863265,39.3098648 34.0813424,49.4463084 40.6755604,57.5418573 L40.6755604,57.5418573 C40.710293,57.5904501 40.7450255,57.6390428 40.779758,57.677917 C41.181663,58.1638443 41.6034151,58.6254752 42.1244029,59.1891509 C44.0148447,61.4389943 48.177786,66.9931434 49.1701439,73.3101984 C41.5537972,71.949602 17.3948447,66.1573485 16.0750087,47.1818872 C15.8666136,44.2711826 15.7524924,41.3459002 15.6780656,38.5275218 C15.5986769,35.2669496 13.2319034,32.6672385 9.9223899,32.2104668 C7.13386427,31.8363028 3.83923613,33.0608396 2.6831392,36.6712795 C-0.517214947,46.6959598 -0.854616624,55.3211695 1.67093417,62.3136635 C5.90830229,74.0196523 21.8356462,80.5262189 32.0618941,84.068629 C29.4519929,84.5982898 26.6535437,84.8898461 23.5970814,84.6274454 C21.6322128,84.4719487 8.50827993,83.6555908 6.82127154,83.6167166 C6.75676828,83.6167166 6.69722681,83.6167166 6.62776175,83.6167166 C2.89153435,83.6167166 0.683538082,86.221287 0.137741251,88.8452944 C-0.40805558,91.5178946 0.648805557,94.8270596 4.24114106,96.2070931 C8.81591087,97.9564314 20.1337524,99.0643457 29.4619165,99.0643457 C32.0321234,99.0643457 34.4237058,98.9720195 36.5076574,98.7970857 C34.5477506,99.8564072 32.3149454,100.803965 29.7248913,101.557153 C26.2814095,102.558163 17.3551504,102.810845 11.450621,102.971201 C7.18844395,103.092683 5.75448682,103.146135 5.05983631,103.321069 C1.3285707,104.273486 -0.115310007,107.436873 0.107970515,110.143488 C0.331251037,112.864681 2.28123426,115.760808 6.12662103,116.115535 C7.43157163,116.237017 9.7338419,116.309906 12.6216033,116.309906 C23.0959407,116.309906 41.2461662,115.333192 47.0068037,112.014308 C47.9296965,111.484648 48.718621,110.809209 49.5819724,110.206659 C47.4384794,113.083348 44.550718,115.843416 40.427471,118.413971 C36.7656704,120.697829 30.6626695,121.36355 27.0256779,121.757151 C24.7482166,122.009833 23.7161644,122.131315 22.9967049,122.471464 C20.0146695,123.890372 18.5906359,127.11207 19.5284141,130.309471 C20.3967273,133.25905 22.8925073,135.125011 25.8596574,135.125011 C26.1127086,135.125011 26.3657599,135.110433 26.6138494,135.086137 C27.6657487,134.979233 28.8714635,134.901485 30.1912995,134.818877 C37.2420022,134.376683 47.8999258,133.706103 56.3349677,126.830232 C62.4429304,121.864055 66.7299165,112.67517 68.9924924,104.326938 C71.2550684,112.67517 75.5370926,121.859196 81.6450553,126.830232 C90.0850591,133.706103 100.742983,134.371824 107.798647,134.818877 C109.118483,134.901485 110.324198,134.974374 111.371135,135.086137 C111.629149,135.110433 111.8822,135.125011 112.125327,135.125011 C115.102401,135.125011 117.598181,133.25905 118.456571,130.304612 C119.394349,127.11207 117.970315,123.890372 114.993242,122.471464 C114.273782,122.131315 113.24173,122.004974 110.964269,121.757151 C107.327277,121.36355 101.224276,120.69297 97.5624756,118.413971 C93.4491522,115.848275 90.5663526,113.093067 88.4228596,110.221237 C89.2762874,110.818927 90.0602501,111.489507 90.9732193,112.019168 C93.384649,113.40892 98.143005,114.507115 105.114319,115.270021 C105.188746,115.274881 105.253249,115.27974 105.322714,115.27974 C106.255531,115.27974 107.069264,114.589723 107.173462,113.661602 C107.282621,112.660592 106.548276,111.756767 105.531109,111.645004 C97.0811821,110.721742 93.9701401,109.516642 92.8636611,108.880077 C89.5343004,106.965524 86.6564626,104.511591 84.2996126,101.57659 C84.2301476,101.489123 84.1358736,101.44053 84.056485,101.3725 C83.1931336,98.4132031 82.6969547,95.385876 82.3397058,92.3099561 C82.2255847,91.3186644 81.3622333,90.6237884 80.2756015,90.706396 C79.2584346,90.8230186 78.519128,91.7268434 78.638211,92.7278536 C79.7943079,102.665067 82.0568838,113.078489 95.5678363,121.49475 C99.9590199,124.230521 106.334919,124.925397 110.557402,125.391887 C111.683728,125.50851 113.082953,125.668866 113.365775,125.756333 C115.023012,126.548394 115.221484,128.166532 114.884082,129.313321 C114.546681,130.474687 113.598979,131.674927 111.763117,131.470838 C110.666561,131.359074 109.411229,131.281326 108.036813,131.189 C101.075423,130.751665 91.5388633,130.153975 84.0267142,124.041009 C75.8645707,117.398383 70.8581252,101.202426 70.8581252,92.5140456 C70.8581252,91.5081761 70.0245446,90.6918182 68.9974542,90.6918182 C67.9703638,90.6918182 67.1367832,91.5081761 67.1367832,92.5140456 C67.1367832,101.202426 62.1253759,117.398383 53.9632324,124.041009 C46.4610069,130.153975 36.9244477,130.751665 29.9630572,131.189 C28.5886415,131.281326 27.3333088,131.354215 26.2317916,131.470838 C24.5646303,131.660349 23.4531895,130.479546 23.1108261,129.313321 C22.7783862,128.166532 22.9768577,126.548394 24.5745539,125.780629 C24.9169174,125.664006 26.3211038,125.50365 27.4424682,125.387028 C31.6649509,124.920538 38.0408503,124.230521 42.4320339,121.489891 C55.9479481,113.068771 58.2055623,102.660208 59.3566974,92.7181351 C59.4658568,91.7219841 58.7364738,90.8133 57.7143452,90.7015367 C56.7319109,90.6286476 55.7742855,91.3138051 55.6552026,92.3099561 C55.3029155,95.3810167 54.8067366,98.4083438 53.9433852,101.367641 C53.8590348,101.44053 53.7647608,101.489123 53.690334,101.57659 C51.333484,104.511591 48.4506844,106.970383 45.1262855,108.880077 C39.2217562,112.281568 13.3311392,113.122223 6.48386986,112.495376 C4.67281674,112.325302 3.91862476,111.018157 3.82931255,109.856791 C3.73007676,108.695425 4.25602643,107.300814 5.97776735,106.85862 C6.49379344,106.756575 9.18804507,106.683686 11.569704,106.615656 C18.0349155,106.435863 26.881786,106.18804 30.791676,105.05097 C37.4255884,103.126698 42.0648615,100.079934 45.3644514,96.6541462 C45.4537636,96.5763979 45.5182669,96.488931 45.5926937,96.401464 C54.4693349,86.9453187 53.0750721,74.7048098 53.0552249,74.5347352 C53.0453014,74.4715647 53.0105688,74.422972 52.9956835,74.3598014 C52.3754598,66.7793354 47.7808428,60.1853019 44.7938456,56.6477511 C44.4713293,56.2930242 44.1388894,55.9382972 43.7121755,55.4475106 C43.6724812,55.3843401 43.6327869,55.3308881 43.5881308,55.2725768 C37.6786397,48.0079636 35.3465987,38.9065451 37.0286453,29.6399114 C39.3458009,16.8891789 49.5869342,6.68470542 62.5272809,4.24535034 C72.2672734,2.40854512 82.1809286,4.83818166 89.6881159,10.9074137 C97.200265,16.981505 101.507098,25.932286 101.507098,35.4613205 C101.507098,42.7259338 99.0559742,49.5726495 94.4167012,55.2725768 C94.3819687,55.311451 94.3521979,55.3503252 94.3224272,55.3940586 C93.9552548,55.8411118 93.5583116,56.2687278 93.0025912,56.8761369 C90.204142,60.1998797 85.6144868,66.7841947 84.9992249,74.3743792 C84.9843396,74.4326905 84.949607,74.476424 84.9446453,74.5347352 C84.9247981,74.7048098 83.5255735,86.9307408 92.3873293,96.3868862 C92.466718,96.4840717 92.536183,96.5812571 92.6354188,96.6638648 C95.9350087,100.084793 100.574282,103.131557 107.208194,105.055829 C111.118084,106.192899 119.964955,106.440722 126.430166,106.620515 C128.806863,106.688545 131.501115,106.761434 131.98737,106.85862 C133.743844,107.305673 134.264832,108.700284 134.165596,109.86165 C134.071322,111.023017 133.322092,112.330161 131.511039,112.500236 C130.48891,112.597421 129.73968,113.481809 129.833954,114.482819 C129.923266,115.425518 130.736999,116.134972 131.684701,116.134972 C131.744243,116.134972 131.798822,116.130113 131.858364,116.125253 C135.703751,115.770526 137.653734,112.86954 137.877014,110.153207 C138.100295,107.441732 136.656414,104.283205 132.925149,103.330787 C132.230498,103.155854 130.791579,103.102402 126.534364,102.98092 C120.634796,102.820564 111.708537,102.567882 108.260094,101.566871 C105.670039,100.813684 103.442196,99.870985 101.487251,98.8068042 C103.571203,98.981738 105.957823,99.0740642 108.523068,99.0740642 C117.846271,99.0643457 129.15915,97.9612907 133.73392,96.2070931 Z M38.0606974,82.2366831 L36.9988745,81.8819561 C28.7325334,79.1364668 9.37163128,72.6930708 5.17891926,61.0988452 C2.92626688,54.8692571 3.28351572,47.0166719 6.23578039,37.7597567 C6.77165365,36.0833075 8.16591646,35.6362544 9.40140202,35.8160475 C10.5475754,35.9764035 11.9120674,36.8024799 11.9567235,38.6149887 C12.0311504,41.4916784 12.1551951,44.4752721 12.3635903,47.4297101 C13.8124328,68.266273 37.7530665,74.8700251 47.235046,76.6825339 C45.2056741,78.3929981 42.1144794,80.5796709 38.1103153,82.2609794 C38.0904682,82.2561201 38.0755828,82.2415423 38.0606974,82.2366831 Z M5.60067135,92.8104612 C3.90373939,92.1641779 3.55641413,90.706396 3.78961823,89.5644668 C4.02778412,88.4273969 4.96060052,87.3875125 6.73692112,87.2611714 C8.36438804,87.3000456 21.5081681,88.1164035 23.2894505,88.2621817 C33.8977562,89.122273 43.1713405,84.8023792 49.3289211,79.7244389 C48.9518251,83.5195311 47.5377152,88.9376206 43.1663787,93.6754119 C42.193868,94.015561 41.1965483,94.336273 40.144649,94.5986737 C32.8905129,96.4257604 11.286882,94.9922749 5.60067135,92.8104612 Z M125.621395,47.4345694 C125.82979,44.4655535 125.953834,41.4819598 126.023299,38.6004109 C126.067956,36.7927613 127.427486,35.9666849 128.578621,35.8063289 C129.799221,35.66541 131.198446,36.0735889 131.739281,37.7451789 C134.701469,46.9972348 135.058718,54.8546793 132.801104,61.0988452 C128.613354,72.6882115 109.262375,79.1267483 100.996034,81.8770968 L99.9242874,82.2366831 C99.9143638,82.2415423 99.909402,82.2512609 99.8994784,82.2512609 C95.8903526,80.5699524 92.7941961,78.3881388 90.7598624,76.6825339 C100.241842,74.8748844 124.172552,68.266273 125.621395,47.4345694 Z M97.8353741,94.5986737 C96.8033219,94.3411323 95.8208876,94.0252795 94.8583004,93.6899897 C90.4919258,88.9570577 89.0678922,83.5389682 88.6759109,79.7390167 C94.8434151,84.8169571 104.121961,89.1271323 114.700496,88.2621817 C116.471855,88.1164035 129.610673,87.3000456 131.248064,87.2611714 C133.06904,87.2514529 133.962162,88.4176784 134.195367,89.5644668 C134.433532,90.706396 134.081245,92.1641779 132.384313,92.8104612 C126.688179,94.9922749 105.104395,96.4257604 97.8353741,94.5986737 Z" id="Shape" fill="#22B4DE" fill-rule="nonzero"></path>
                                    <path d="M104.852777,113.519874 C113.943465,113.718861 123.034153,113.917849 132.124841,114.116837" id="Path-5" stroke="#22B4DE" stroke-width="0.57" stroke-linecap="round"></path>
                                </g>
                            </g>
                        </g>
                        <g id="noun_Octopus_2602069-(1)-Copy-2" stroke-width="1" fill-rule="evenodd" transform="translate(45.783784, 54.445946)">
                            <g id="Group">
                                <g id="Group-3" transform="translate(3.087422, 3.072715)">
                                    <path d="M133.73392,96.2070931 C137.331217,94.8319188 138.388079,91.5178946 137.83732,88.8452944 C137.291523,86.1775535 135.157954,83.6167166 131.15379,83.6167166 C129.451896,83.6555908 116.342848,84.4719487 114.382942,84.6274454 C111.336403,84.8801276 108.552839,84.5837119 105.9479,84.0589105 C116.174148,80.5116411 132.081644,74.0099338 136.304127,62.3185228 C138.839601,55.3163103 138.492276,46.681382 135.28696,36.661561 C134.130863,33.0511211 130.831273,31.8265843 128.057633,32.2007483 C124.74812,32.65752 122.376384,35.2523718 122.301957,38.5178033 C122.232492,41.3507595 122.108448,44.2760419 121.909976,47.1916057 C120.585178,66.1622078 96.4311877,71.9593205 88.814841,73.3150577 C89.8071988,66.9931434 93.9751019,61.4341351 95.9151616,59.1356989 C96.3567608,58.6594901 96.7933983,58.1832814 97.2449211,57.6487613 C97.3441569,57.5467166 97.4185837,57.4446719 97.4880488,57.3280493 C102.549074,51.0207129 105.218517,43.4645433 105.218517,35.4613205 C105.218517,24.8389496 100.415505,14.8677213 92.0499276,8.09875388 C83.6843508,1.33464578 72.6939873,-1.38168787 61.8127832,0.668925366 C47.3739761,3.38525901 35.9370516,14.7705358 33.3569211,28.9984873 C31.4863265,39.3098648 34.0813424,49.4463084 40.6755604,57.5418573 C40.710293,57.5904501 40.7450255,57.6390428 40.779758,57.677917 C41.181663,58.1638443 41.6034151,58.6254752 42.1244029,59.1891509 C44.0148447,61.4389943 48.177786,66.9931434 49.1701439,73.3101984 C41.5537972,71.949602 17.3948447,66.1573485 16.0750087,47.1818872 C15.8666136,44.2711826 15.7524924,41.3459002 15.6780656,38.5275218 C15.5986769,35.2669496 13.2319034,32.6672385 9.9223899,32.2104668 C7.13386427,31.8363028 3.83923613,33.0608396 2.6831392,36.6712795 C-0.517214947,46.6959598 -0.854616624,55.3211695 1.67093417,62.3136635 C5.90830229,74.0196523 21.8356462,80.5262189 32.0618941,84.068629 C29.4519929,84.5982898 26.6535437,84.8898461 23.5970814,84.6274454 C21.6322128,84.4719487 8.50827993,83.6555908 6.82127154,83.6167166 C6.75676828,83.6167166 6.69722681,83.6167166 6.62776175,83.6167166 C2.89153435,83.6167166 0.683538082,86.221287 0.137741251,88.8452944 C-0.40805558,91.5178946 0.648805557,94.8270596 4.24114106,96.2070931 C8.81591087,97.9564314 20.1337524,99.0643457 29.4619165,99.0643457 C32.0321234,99.0643457 34.4237058,98.9720195 36.5076574,98.7970857 C34.5477506,99.8564072 32.3149454,100.803965 29.7248913,101.557153 C26.2814095,102.558163 17.3551504,102.810845 11.450621,102.971201 C7.18844395,103.092683 5.75448682,103.146135 5.05983631,103.321069 C1.3285707,104.273486 -0.115310007,107.436873 0.107970515,110.143488 C0.331251037,112.864681 2.28123426,115.760808 6.12662103,116.115535 C7.43157163,116.237017 9.7338419,116.309906 12.6216033,116.309906 C23.0959407,116.309906 41.2461662,115.333192 47.0068037,112.014308 C47.9296965,111.484648 48.718621,110.809209 49.5819724,110.206659 C47.4384794,113.083348 44.550718,115.843416 40.427471,118.413971 C36.7656704,120.697829 30.6626695,121.36355 27.0256779,121.757151 C24.7482166,122.009833 23.7161644,122.131315 22.9967049,122.471464 C20.0146695,123.890372 18.5906359,127.11207 19.5284141,130.309471 C20.3967273,133.25905 22.8925073,135.125011 25.8596574,135.125011 C26.1127086,135.125011 26.3657599,135.110433 26.6138494,135.086137 C27.6657487,134.979233 28.8714635,134.901485 30.1912995,134.818877 C37.2420022,134.376683 47.8999258,133.706103 56.3349677,126.830232 C62.4429304,121.864055 66.7299165,112.67517 68.9924924,104.326938 C71.2550684,112.67517 75.5370926,121.859196 81.6450553,126.830232 C90.0850591,133.706103 100.742983,134.371824 107.798647,134.818877 C109.118483,134.901485 110.324198,134.974374 111.371135,135.086137 C111.629149,135.110433 111.8822,135.125011 112.125327,135.125011 C115.102401,135.125011 117.598181,133.25905 118.456571,130.304612 C119.394349,127.11207 117.970315,123.890372 114.993242,122.471464 C114.273782,122.131315 113.24173,122.004974 110.964269,121.757151 C107.327277,121.36355 101.224276,120.69297 97.5624756,118.413971 C93.4491522,115.848275 90.5663526,113.093067 88.4228596,110.221237 C89.2762874,110.818927 90.0602501,111.489507 90.9732193,112.019168 C93.384649,113.40892 98.143005,114.507115 105.114319,115.270021 C105.188746,115.274881 105.253249,115.27974 105.322714,115.27974 C106.255531,115.27974 107.069264,114.589723 107.173462,113.661602 C107.282621,112.660592 106.548276,111.756767 105.531109,111.645004 C97.0811821,110.721742 93.9701401,109.516642 92.8636611,108.880077 C89.5343004,106.965524 86.6564626,104.511591 84.2996126,101.57659 C84.2301476,101.489123 84.1358736,101.44053 84.056485,101.3725 C83.1931336,98.4132031 82.6969547,95.385876 82.3397058,92.3099561 C82.2255847,91.3186644 81.3622333,90.6237884 80.2756015,90.706396 C79.2584346,90.8230186 78.519128,91.7268434 78.638211,92.7278536 C79.7943079,102.665067 82.0568838,113.078489 95.5678363,121.49475 C99.9590199,124.230521 106.334919,124.925397 110.557402,125.391887 C111.683728,125.50851 113.082953,125.668866 113.365775,125.756333 C115.023012,126.548394 115.221484,128.166532 114.884082,129.313321 C114.546681,130.474687 113.598979,131.674927 111.763117,131.470838 C110.666561,131.359074 109.411229,131.281326 108.036813,131.189 C101.075423,130.751665 91.5388633,130.153975 84.0267142,124.041009 C75.8645707,117.398383 70.8581252,101.202426 70.8581252,92.5140456 C70.8581252,91.5081761 70.0245446,90.6918182 68.9974542,90.6918182 C67.9703638,90.6918182 67.1367832,91.5081761 67.1367832,92.5140456 C67.1367832,101.202426 62.1253759,117.398383 53.9632324,124.041009 C46.4610069,130.153975 36.9244477,130.751665 29.9630572,131.189 C28.5886415,131.281326 27.3333088,131.354215 26.2317916,131.470838 C24.5646303,131.660349 23.4531895,130.479546 23.1108261,129.313321 C22.7783862,128.166532 22.9768577,126.548394 24.5745539,125.780629 C24.9169174,125.664006 26.3211038,125.50365 27.4424682,125.387028 C31.6649509,124.920538 38.0408503,124.230521 42.4320339,121.489891 C55.9479481,113.068771 58.2055623,102.660208 59.3566974,92.7181351 C59.4658568,91.7219841 58.7364738,90.8133 57.7143452,90.7015367 C56.7319109,90.6286476 55.7742855,91.3138051 55.6552026,92.3099561 C55.3029155,95.3810167 54.8067366,98.4083438 53.9433852,101.367641 C53.8590348,101.44053 53.7647608,101.489123 53.690334,101.57659 C51.333484,104.511591 48.4506844,106.970383 45.1262855,108.880077 C39.2217562,112.281568 13.3311392,113.122223 6.48386986,112.495376 C4.67281674,112.325302 3.91862476,111.018157 3.82931255,109.856791 C3.73007676,108.695425 4.25602643,107.300814 5.97776735,106.85862 C6.49379344,106.756575 9.18804507,106.683686 11.569704,106.615656 C18.0349155,106.435863 26.881786,106.18804 30.791676,105.05097 C37.4255884,103.126698 42.0648615,100.079934 45.3644514,96.6541462 C45.4537636,96.5763979 45.5182669,96.488931 45.5926937,96.401464 C54.4693349,86.9453187 53.0750721,74.7048098 53.0552249,74.5347352 C53.0453014,74.4715647 53.0105688,74.422972 52.9956835,74.3598014 C52.3754598,66.7793354 47.7808428,60.1853019 44.7938456,56.6477511 C44.4713293,56.2930242 44.1388894,55.9382972 43.7121755,55.4475106 C43.6724812,55.3843401 43.6327869,55.3308881 43.5881308,55.2725768 C37.6786397,48.0079636 35.3465987,38.9065451 37.0286453,29.6399114 C39.3458009,16.8891789 49.5869342,6.68470542 62.5272809,4.24535034 C72.2672734,2.40854512 82.1809286,4.83818166 89.6881159,10.9074137 C97.200265,16.981505 101.507098,25.932286 101.507098,35.4613205 C101.507098,42.7259338 99.0559742,49.5726495 94.4167012,55.2725768 C94.3819687,55.311451 94.3521979,55.3503252 94.3224272,55.3940586 C93.9552548,55.8411118 93.5583116,56.2687278 93.0025912,56.8761369 C90.204142,60.1998797 85.6144868,66.7841947 84.9992249,74.3743792 C84.9843396,74.4326905 84.949607,74.476424 84.9446453,74.5347352 C84.9247981,74.7048098 83.5255735,86.9307408 92.3873293,96.3868862 C92.466718,96.4840717 92.536183,96.5812571 92.6354188,96.6638648 C95.9350087,100.084793 100.574282,103.131557 107.208194,105.055829 C111.118084,106.192899 119.964955,106.440722 126.430166,106.620515 C128.806863,106.688545 131.501115,106.761434 131.98737,106.85862 C133.743844,107.305673 134.264832,108.700284 134.165596,109.86165 C134.071322,111.023017 133.322092,112.330161 131.511039,112.500236 C130.48891,112.597421 129.73968,113.481809 129.833954,114.482819 C129.923266,115.425518 130.736999,116.134972 131.684701,116.134972 C131.744243,116.134972 131.798822,116.130113 131.858364,116.125253 C135.703751,115.770526 137.653734,112.86954 137.877014,110.153207 C138.100295,107.441732 136.656414,104.283205 132.925149,103.330787 C132.230498,103.155854 130.791579,103.102402 126.534364,102.98092 C120.634796,102.820564 111.708537,102.567882 108.260094,101.566871 C105.670039,100.813684 103.442196,99.870985 101.487251,98.8068042 C103.571203,98.981738 105.957823,99.0740642 108.523068,99.0740642 C117.846271,99.0643457 129.15915,97.9612907 133.73392,96.2070931 Z M38.0606974,82.2366831 L36.9988745,81.8819561 C28.7325334,79.1364668 9.37163128,72.6930708 5.17891926,61.0988452 C2.92626688,54.8692571 3.28351572,47.0166719 6.23578039,37.7597567 C6.77165365,36.0833075 8.16591646,35.6362544 9.40140202,35.8160475 C10.5475754,35.9764035 11.9120674,36.8024799 11.9567235,38.6149887 C12.0311504,41.4916784 12.1551951,44.4752721 12.3635903,47.4297101 C13.8124328,68.266273 37.7530665,74.8700251 47.235046,76.6825339 C45.2056741,78.3929981 42.1144794,80.5796709 38.1103153,82.2609794 C38.0904682,82.2561201 38.0755828,82.2415423 38.0606974,82.2366831 Z M5.60067135,92.8104612 C3.90373939,92.1641779 3.55641413,90.706396 3.78961823,89.5644668 C4.02778412,88.4273969 4.96060052,87.3875125 6.73692112,87.2611714 C8.36438804,87.3000456 21.5081681,88.1164035 23.2894505,88.2621817 C33.8977562,89.122273 43.1713405,84.8023792 49.3289211,79.7244389 C48.9518251,83.5195311 47.5377152,88.9376206 43.1663787,93.6754119 C42.193868,94.015561 41.1965483,94.336273 40.144649,94.5986737 C32.8905129,96.4257604 11.286882,94.9922749 5.60067135,92.8104612 Z M125.621395,47.4345694 C125.82979,44.4655535 125.953834,41.4819598 126.023299,38.6004109 C126.067956,36.7927613 127.427486,35.9666849 128.578621,35.8063289 C129.799221,35.66541 131.198446,36.0735889 131.739281,37.7451789 C134.701469,46.9972348 135.058718,54.8546793 132.801104,61.0988452 C128.613354,72.6882115 109.262375,79.1267483 100.996034,81.8770968 L99.9242874,82.2366831 C99.9143638,82.2415423 99.909402,82.2512609 99.8994784,82.2512609 C95.8903526,80.5699524 92.7941961,78.3881388 90.7598624,76.6825339 C100.241842,74.8748844 124.172552,68.266273 125.621395,47.4345694 Z M97.8353741,94.5986737 C96.8033219,94.3411323 95.8208876,94.0252795 94.8583004,93.6899897 C90.4919258,88.9570577 89.0678922,83.5389682 88.6759109,79.7390167 C94.8434151,84.8169571 104.121961,89.1271323 114.700496,88.2621817 C116.471855,88.1164035 129.610673,87.3000456 131.248064,87.2611714 C133.06904,87.2514529 133.962162,88.4176784 134.195367,89.5644668 C134.433532,90.706396 134.081245,92.1641779 132.384313,92.8104612 C126.688179,94.9922749 105.104395,96.4257604 97.8353741,94.5986737 Z" id="Shape" fill="#2C2C2C" fill-rule="nonzero"></path>
                                    <path d="M104.852777,113.519874 C113.943465,113.718861 123.034153,113.917849 132.124841,114.116837" id="Path-5" stroke="#2C2C2C" stroke-width="0.57" stroke-linecap="round"></path>
                                </g>
                            </g>
                        </g>
                        <path d="M111.189189,91.212973 C110.792363,88.8113589 108.015959,87.0001848 104.708623,86.9854054 C101.382576,86.9962674 98.5780898,88.8013676 98.1404809,91.212973 C98.0973172,91.4253195 98.0973172,91.641167 98.1404809,91.8535135 C98.0976633,92.0228888 98.0976633,92.1965706 98.1404809,92.3659459 L99.7168349,92.3659459 C99.6740173,92.1965706 99.6740173,92.0228888 99.7168349,91.8535135 C99.6736712,91.641167 99.6736712,91.4253195 99.7168349,91.212973 C100.044272,89.4327916 102.121455,88.1042115 104.57726,88.1042115 C107.033065,88.1042115 109.110247,89.4327916 109.437685,91.212973 C109.520401,91.4222008 109.520401,91.6442857 109.437685,91.8535135 C109.480502,92.0228888 109.480502,92.1965706 109.437685,92.3659459 L111.014039,92.3659459 C111.056856,92.1965706 111.056856,92.0228888 111.014039,91.8535135 C111.116118,91.6476548 111.175166,91.4317128 111.189189,91.212973 Z" id="Path" stroke="#2C2C2C" stroke-width="0.1" fill="#2C2C2C" fill-rule="nonzero"></path>
                        <path d="M137.351351,91.212973 C136.954525,88.8113589 134.178121,87.0001848 130.870785,86.9854054 C127.544738,86.9962674 124.740252,88.8013676 124.302643,91.212973 C124.259479,91.4253195 124.259479,91.641167 124.302643,91.8535135 C124.259825,92.0228888 124.259825,92.1965706 124.302643,92.3659459 L125.878997,92.3659459 C125.836179,92.1965706 125.836179,92.0228888 125.878997,91.8535135 C125.835833,91.641167 125.835833,91.4253195 125.878997,91.212973 C126.206434,89.4327916 128.283617,88.1042115 130.739422,88.1042115 C133.195227,88.1042115 135.272409,89.4327916 135.599847,91.212973 C135.682563,91.4222008 135.682563,91.6442857 135.599847,91.8535135 C135.642664,92.0228888 135.642664,92.1965706 135.599847,92.3659459 L137.176201,92.3659459 C137.219018,92.1965706 137.219018,92.0228888 137.176201,91.8535135 C137.278281,91.6476548 137.337328,91.4317128 137.351351,91.212973 Z" id="Path" stroke="#2C2C2C" stroke-width="0.1" fill="#2C2C2C" fill-rule="nonzero"></path>
                        <path d="M124.27027,107.226486 C123.873444,104.824872 121.09704,103.013698 117.789704,102.998919 C114.463657,103.009781 111.659171,104.814881 111.221562,107.226486 C111.178398,107.438833 111.178398,107.654681 111.221562,107.867027 C111.178744,108.036402 111.178744,108.210084 111.221562,108.379459 L112.797916,108.379459 C112.755098,108.210084 112.755098,108.036402 112.797916,107.867027 C112.754752,107.654681 112.754752,107.438833 112.797916,107.226486 C113.125353,105.446305 115.202536,104.117725 117.658341,104.117725 C120.114146,104.117725 122.191328,105.446305 122.518766,107.226486 C122.601482,107.435714 122.601482,107.657799 122.518766,107.867027 C122.561583,108.036402 122.561583,108.210084 122.518766,108.379459 L124.09512,108.379459 C124.137937,108.210084 124.137937,108.036402 124.09512,107.867027 C124.197199,107.661168 124.256247,107.445226 124.27027,107.226486 Z" id="Path-Copy" stroke="#2C2C2C" stroke-width="0.1" fill="#2C2C2C" fill-rule="nonzero" transform="translate(117.729730, 105.689189) scale(-1, -1) translate(-117.729730, -105.689189) "></path>
                        <ellipse id="Oval" stroke="#0E0E0E" stroke-width="2" cx="117.72973" cy="121.702703" rx="98.1081081" ry="96.0810811"></ellipse>
                    </g>
                </g>
                <g id="Edit-Info" transform="translate(168.000000, 176.000000)">
                    <circle id="Oval" fill="#000000" cx="20.5" cy="20.5" r="20.5"></circle>
                    <polygon id="Path-5" stroke="#FFFFFF" points="16.0821787 28.5921928 30.75 13.9243715 27.0756285 10.25 12.4078072 24.9178213 11.3888889 29.6111111"></polygon>
                    <line x1="27.3333333" y1="17.0833333" x2="23.9166667" y2="13.6666667" id="Path-6" stroke="#FFFFFF"></line>
                </g>
            </g>
        </g>
    </g>
</svg>