<?xml version="1.0" encoding="UTF-8"?>
<svg width="39px" height="49px" viewBox="0 0 39 49" version="1.1" xmlns="http://www.w3.org/2000/svg" xmlns:xlink="http://www.w3.org/1999/xlink">
    <!-- Generator: Sketch 60.1 (88133) - https://sketch.com -->
    <title>Icons/Bookmark@1.5x</title>
    <desc>Created with Sketch.</desc>
    <g id="Web" stroke="none" stroke-width="1" fill="none" fill-rule="evenodd">
        <g id="Tutorials-List" transform="translate(-749.000000, -410.000000)">
            <g id="Tutorial-1" transform="translate(128.000000, 398.000000)">
                <g id="Icon-set-1" transform="translate(604.000000, 0.000000)">
                    <g id="Icons/Bookmark" transform="translate(0.000000, 0.000000)">
                        <g id="8309137151551938530">
                            <polygon id="Path" points="0 0 71 0 71 71 0 71"></polygon>
                        </g>
                        <g id="noun_bookmark_1633754" transform="translate(17.270270, 11.513514)" fill="#22BFDE">
                            <g id="Group" transform="translate(0.000000, 0.339979)" fill-rule="nonzero">
                                <path d="M1.63039594,47.0999661 C0.703266096,47.0223098 -0.00398005295,46.3286255 1.68567257e-05,45.500867 L1.68567257e-05,3.92428514 C1.68567257e-05,1.88484212 1.90330219,0.193053904 4.19766959,0.193053904 L34.1807777,0.193053904 C36.4751451,0.193053904 38.3784216,1.88484212 38.3784216,3.92428514 L38.3784216,45.500867 C38.380501,46.0978433 38.0083556,46.6461561 37.4132716,46.9228901 C36.8181876,47.1996241 36.0992446,47.158704 35.548727,46.8167657 L19.1892236,36.7890818 L2.82972027,46.8167657 C2.48037889,47.0346044 2.05530354,47.1349788 1.63039594,47.0999661 Z M3.59800743,42.4525577 L18.1585243,33.5242544 C18.7775505,33.1396689 19.6008968,33.1396689 20.219923,33.5242544 L34.7804399,42.4525577 L34.7804399,3.92428514 C34.7804399,3.60131509 34.544113,3.3912521 34.1807777,3.3912521 L4.19766959,3.3912521 C3.83433429,3.3912521 3.59800743,3.60131509 3.59800743,3.92428514 L3.59800743,42.4525577 L3.59800743,42.4525577 Z" id="Shape"></path>
                            </g>
                        </g>
                        <g id="noun_bookmark_1633754" transform="translate(17.270270, 13.432432)" fill="#000000">
                            <g id="Group" transform="translate(0.000000, 0.339979)" fill-rule="nonzero">
                                <path d="M1.63036568,47.0965601 C0.703235837,47.0189037 -0.00401031177,46.3252194 -1.34020916e-05,45.497461 L-1.34020916e-05,3.92087905 C-1.34020916e-05,1.88143604 1.90327193,0.189647823 4.19763933,0.189647823 L34.1807474,0.189647823 C36.4751148,0.189647823 38.3783913,1.88143604 38.3783913,3.92087905 L38.3783913,45.497461 C38.3804707,46.0944372 38.0083254,46.64275 37.4132414,46.919484 C36.8181574,47.196218 36.0992143,47.1552979 35.5486968,46.8133596 L19.1891934,36.7856757 L2.82969001,46.8133596 C2.48034863,47.0311983 2.05527328,47.1315728 1.63036568,47.0965601 Z M3.59797717,42.4491517 L18.1584941,33.5208483 C18.7775202,33.1362628 19.6008666,33.1362628 20.2198927,33.5208483 L34.7804096,42.4491517 L34.7804096,3.92087905 C34.7804096,3.59790901 34.5440827,3.38784602 34.1807474,3.38784602 L4.19763933,3.38784602 C3.83430403,3.38784602 3.59797717,3.59790901 3.59797717,3.92087905 L3.59797717,42.4491517 L3.59797717,42.4491517 Z" id="Shape"></path>
                            </g>
                        </g>
                    </g>
                </g>
            </g>
        </g>
    </g>
</svg>