<?xml version="1.0" encoding="UTF-8"?>
<svg width="37px" height="37px" viewBox="0 0 37 37" version="1.1" xmlns="http://www.w3.org/2000/svg" xmlns:xlink="http://www.w3.org/1999/xlink">
    <!-- Generator: Sketch 60.1 (88133) - https://sketch.com -->
    <title>Icon/download@1.5x</title>
    <desc>Created with Sketch.</desc>
    <g id="Icon/download" stroke="none" stroke-width="1" fill="none" fill-rule="evenodd">
        <g id="Group-12" transform="translate(7.000000, 9.000000)">
            <g id="noun_Download_1899683-2" fill="#22BFDE">
                <g id="noun_Download_1899683">
                    <g id="Group">
                        <path d="M12.9063444,0.8 L12.9063444,11.6666667 L16.2416918,8 C16.9667674,7.2 18.3444109,8.2 17.5468278,9.06666667 L12.6888218,14.4 C12.326284,14.8 11.673716,14.8 11.3111782,14.4 L6.45317221,9.06666667 C5.65558912,8.2 7.03323263,7.2 7.83081571,8 L11.0936556,11.6666667 L11.0936556,0.8 C11.0936556,-0.266666667 12.9063444,-0.266666667 12.9063444,0.8 Z" id="Path"></path>
                        <path d="M21.9697885,17.1333333 L2.03021148,17.1333333 L2.03021148,11.4666667 C2.03021148,10.2 0,10.2 0,11.4666667 L0,18.0666667 C0,18.6 0.50755287,19 1.01510574,19 L22.9848943,19 C23.5649547,19 24,18.6 24,18.0666667 L24,11.4666667 C24,10.2 21.9697885,10.2 21.9697885,11.4666667 L21.9697885,17.1333333 Z" id="Path"></path>
                    </g>
                </g>
            </g>
            <g id="noun_Download_1899683" transform="translate(0.000000, 1.000000)" fill="#000000">
                <g id="Group">
                    <path d="M12.9063444,0.8 L12.9063444,11.6666667 L16.2416918,8 C16.9667674,7.2 18.3444109,8.2 17.5468278,9.06666667 L12.6888218,14.4 C12.326284,14.8 11.673716,14.8 11.3111782,14.4 L6.45317221,9.06666667 C5.65558912,8.2 7.03323263,7.2 7.83081571,8 L11.0936556,11.6666667 L11.0936556,0.8 C11.0936556,-0.266666667 12.9063444,-0.266666667 12.9063444,0.8 Z" id="Path"></path>
                    <path d="M21.9697885,17.1333333 L2.03021148,17.1333333 L2.03021148,11.4666667 C2.03021148,10.2 0,10.2 0,11.4666667 L0,18.0666667 C0,18.6 0.50755287,19 1.01510574,19 L22.9848943,19 C23.5649547,19 24,18.6 24,18.0666667 L24,11.4666667 C24,10.2 21.9697885,10.2 21.9697885,11.4666667 L21.9697885,17.1333333 Z" id="Path"></path>
                </g>
            </g>
        </g>
    </g>
</svg>