<?xml version="1.0" encoding="UTF-8"?>
<svg width="44px" height="44px" viewBox="0 0 44 44" version="1.1" xmlns="http://www.w3.org/2000/svg" xmlns:xlink="http://www.w3.org/1999/xlink">
    <!-- Generator: Sketch 60.1 (88133) - https://sketch.com -->
    <title>Icons/filter@1.5x</title>
    <desc>Created with Sketch.</desc>
    <g id="Web" stroke="none" stroke-width="1" fill="none" fill-rule="evenodd">
        <g id="Tutorials-List/-Bookmark" transform="translate(-1248.000000, -224.000000)">
            <g id="Icons/filter" transform="translate(1232.000000, 208.000000)">
                <g id="Group-13" transform="translate(16.000000, 16.000000)">
                    <g id="noun_filter_1051169" transform="translate(2.000000, 0.000000)" fill="#22BFDE">
                        <g id="Group">
                            <path d="M0.567498843,0.720195983 C0.408169323,1.05150958 0.43821004,1.44934761 0.645239,1.74973169 L15.852011,23.8033079 L15.852011,35.5855191 C15.8520174,35.8859266 15.9813049,36.170007 16.2033223,36.3574472 L24.6266557,43.4679955 C24.9071768,43.7046144 25.2910825,43.7504247 25.6144207,43.5858625 C25.9377588,43.4213003 26.1433785,43.0754525 26.143467,42.696018 L26.143467,23.8033079 L41.354761,1.74973169 C41.5617747,1.44936985 41.5918274,1.05156625 41.432534,0.720264129 C41.2732405,0.388962007 40.9515633,0.180113258 40.6000723,0.180113258 L1.40007233,0.180113258 C1.04855532,0.180113258 0.726828362,0.388882382 0.567498843,0.720195983 Z M38.762717,2.15543146 L24.454717,22.8993303 C24.3381571,23.0683506 24.2753499,23.2721328 24.2753443,23.4813169 L24.2753443,40.6436404 L17.7201337,35.1101213 L17.7201337,23.4813169 C17.7201701,23.2721499 17.657414,23.0683692 17.5409057,22.8993303 L3.237283,2.15543146 L38.762717,2.15543146 Z" id="Shape"></path>
                        </g>
                    </g>
                    <g id="noun_filter_1051169" fill="#000000">
                        <g id="Group">
                            <path d="M0.567498843,0.720195983 C0.408169323,1.05150958 0.43821004,1.44934761 0.645239,1.74973169 L15.852011,23.8033079 L15.852011,35.5855191 C15.8520174,35.8859266 15.9813049,36.170007 16.2033223,36.3574472 L24.6266557,43.4679955 C24.9071768,43.7046144 25.2910825,43.7504247 25.6144207,43.5858625 C25.9377588,43.4213003 26.1433785,43.0754525 26.143467,42.696018 L26.143467,23.8033079 L41.354761,1.74973169 C41.5617747,1.44936985 41.5918274,1.05156625 41.432534,0.720264129 C41.2732405,0.388962007 40.9515633,0.180113258 40.6000723,0.180113258 L1.40007233,0.180113258 C1.04855532,0.180113258 0.726828362,0.388882382 0.567498843,0.720195983 Z M38.762717,2.15543146 L24.454717,22.8993303 C24.3381571,23.0683506 24.2753499,23.2721328 24.2753443,23.4813169 L24.2753443,40.6436404 L17.7201337,35.1101213 L17.7201337,23.4813169 C17.7201701,23.2721499 17.657414,23.0683692 17.5409057,22.8993303 L3.237283,2.15543146 L38.762717,2.15543146 Z" id="Shape"></path>
                        </g>
                    </g>
                </g>
            </g>
        </g>
    </g>
</svg>