<?xml version="1.0" encoding="UTF-8"?>
<svg width="37px" height="37px" viewBox="0 0 37 37" version="1.1" xmlns="http://www.w3.org/2000/svg" xmlns:xlink="http://www.w3.org/1999/xlink">
    <!-- Generator: Sketch 60.1 (88133) - https://sketch.com -->
    <title>Icons/Share@1.5x</title>
    <desc>Created with Sketch.</desc>
    <g id="Icons/Share" stroke="none" stroke-width="1" fill="none" fill-rule="evenodd">
        <g id="Group-10-Copy" transform="translate(9.000000, 3.000000)" fill="#22BFDE" fill-rule="nonzero">
            <path d="M4.75113411,7.95459355 C4.46199721,7.95567687 4.19814462,7.77368371 4.07333758,7.48708126 C3.94853053,7.20047881 3.98508731,6.86051795 4.1672463,6.61377437 L8.80092006,0.304520894 C8.94196642,0.113452528 9.15343615,0.00179011439 9.37732213,0.000163164461 C9.60135522,-0.00473601146 9.81560396,0.100906698 9.96120994,0.288069125 L14.789513,6.60554848 C14.9843837,6.82697652 15.0503426,7.14948818 14.960427,7.4412466 C14.8705114,7.73300501 14.6397914,7.94511032 14.3625812,7.99085775 C14.085371,8.03660518 13.808132,7.90832727 13.6441946,7.65846171 L9.39977935,2.1142155 L5.33502192,7.65023582 C5.19232119,7.84353709 4.97764396,7.95543988 4.75113411,7.95459355 Z" id="Path"></path>
            <path d="M16.5566369,11 L12.4583213,11 L12.4583213,12.3030563 L16.5566369,12.3030563 C17.2235074,12.3030563 17.7641128,12.8763378 17.7641128,13.5835163 L17.7641128,25.4089406 C17.7717408,25.7544246 17.6481286,26.0886671 17.4210591,26.3365435 C17.1939897,26.5844199 16.8825131,26.7251349 16.5566369,26.7270611 L2.44337355,26.7270611 C1.77535569,26.7229184 1.23588615,26.1474763 1.23589757,25.4390691 L1.23589757,13.5835163 C1.23589757,12.8763378 1.77650298,12.3030563 2.44337355,12.3030563 L6.33570787,12.3030563 L6.33570787,11 L2.44337355,11 C1.0967103,11 0.00392511795,12.1554621 0,13.5835163 L0,25.4089406 C-0.0018833323,26.096743 0.254933522,26.7569538 0.71356415,27.2433056 C1.17219478,27.7296574 1.79477466,28.0019972 2.44337355,28 L16.5566369,28 C17.9060691,28 19,26.8399371 19,25.4089406 L19,13.5835163 C18.9960853,12.1554621 17.9033001,11 16.5566369,11 Z" id="Path"></path>
            <path d="M9.5,17 C9.22385763,17 9,16.7323078 9,16.4020927 L9,5.59790732 C9,5.26769223 9.22385763,5 9.5,5 C9.77614237,5 10,5.26769223 10,5.59790732 L10,16.4020927 C10,16.7323078 9.77614237,17 9.5,17 Z" id="Path"></path>
        </g>
        <g id="Group-10" transform="translate(8.000000, 3.000000)" fill="#231F20" fill-rule="nonzero">
            <path d="M4.75113411,7.95459355 C4.46199721,7.95567687 4.19814462,7.77368371 4.07333758,7.48708126 C3.94853053,7.20047881 3.98508731,6.86051795 4.1672463,6.61377437 L8.80092006,0.304520894 C8.94196642,0.113452528 9.15343615,0.00179011439 9.37732213,0.000163164461 C9.60135522,-0.00473601146 9.81560396,0.100906698 9.96120994,0.288069125 L14.789513,6.60554848 C14.9843837,6.82697652 15.0503426,7.14948818 14.960427,7.4412466 C14.8705114,7.73300501 14.6397914,7.94511032 14.3625812,7.99085775 C14.085371,8.03660518 13.808132,7.90832727 13.6441946,7.65846171 L9.39977935,2.1142155 L5.33502192,7.65023582 C5.19232119,7.84353709 4.97764396,7.95543988 4.75113411,7.95459355 Z" id="Path"></path>
            <path d="M16.5566369,11 L12.4583213,11 L12.4583213,12.3030563 L16.5566369,12.3030563 C17.2235074,12.3030563 17.7641128,12.8763378 17.7641128,13.5835163 L17.7641128,25.4089406 C17.7717408,25.7544246 17.6481286,26.0886671 17.4210591,26.3365435 C17.1939897,26.5844199 16.8825131,26.7251349 16.5566369,26.7270611 L2.44337355,26.7270611 C1.77535569,26.7229184 1.23588615,26.1474763 1.23589757,25.4390691 L1.23589757,13.5835163 C1.23589757,12.8763378 1.77650298,12.3030563 2.44337355,12.3030563 L6.33570787,12.3030563 L6.33570787,11 L2.44337355,11 C1.0967103,11 0.00392511795,12.1554621 0,13.5835163 L0,25.4089406 C-0.0018833323,26.096743 0.254933522,26.7569538 0.71356415,27.2433056 C1.17219478,27.7296574 1.79477466,28.0019972 2.44337355,28 L16.5566369,28 C17.9060691,28 19,26.8399371 19,25.4089406 L19,13.5835163 C18.9960853,12.1554621 17.9033001,11 16.5566369,11 Z" id="Path"></path>
            <path d="M9.5,17 C9.22385763,17 9,16.7323078 9,16.4020927 L9,5.59790732 C9,5.26769223 9.22385763,5 9.5,5 C9.77614237,5 10,5.26769223 10,5.59790732 L10,16.4020927 C10,16.7323078 9.77614237,17 9.5,17 Z" id="Path"></path>
        </g>
    </g>
</svg>