<?xml version="1.0" encoding="UTF-8"?>
<svg width="55px" height="55px" viewBox="0 0 55 55" version="1.1" xmlns="http://www.w3.org/2000/svg" xmlns:xlink="http://www.w3.org/1999/xlink">
    <!-- Generator: Sketch 60.1 (88133) - https://sketch.com -->
    <title>Icons/User@1.5x</title>
    <desc>Created with Sketch.</desc>
    <g id="Web" stroke="none" stroke-width="1" fill="none" fill-rule="evenodd">
        <g id="Tutorials-List" transform="translate(-984.000000, -404.000000)">
            <g id="Tutorial-1" transform="translate(128.000000, 398.000000)">
                <g id="Icon-set-1" transform="translate(604.000000, 0.000000)">
                    <g id="Icons/Avatar" transform="translate(248.000000, 0.000000)">
                        <g id="noun_Octopus_2602069-(1)-Copy" stroke-width="1" fill-rule="evenodd" transform="translate(12.297297, 14.054054)">
                            <g id="Group">
                                <g id="Group-3" transform="translate(0.829266, 0.842728)">
                                    <path d="M35.9202678,26.3859116 C36.886484,26.0087541 37.1703517,25.0998445 37.0224207,24.3668529 C36.8758223,23.635194 36.3027562,22.9328548 35.2272576,22.9328548 C34.7701373,22.9435165 31.2491122,23.1674121 30.7226909,23.2100589 C29.9044058,23.2793599 29.1567543,23.1980645 28.4570805,23.0541316 C31.2038,22.0812518 35.4764747,20.2980831 36.6106126,17.091578 C37.2916285,15.1711399 37.1983386,12.8029107 36.3374067,10.0548585 C36.0268848,9.06465346 35.1406313,8.72881003 34.3956453,8.83142886 C33.5067263,8.95670379 32.86969,9.66837201 32.8496993,10.5639545 C32.8310414,11.3409256 32.7977236,12.1432182 32.7444151,12.9428454 C32.388581,18.1457532 25.9009388,19.7356786 23.8552259,20.1075053 C24.1217683,18.3736469 25.2412464,16.8490244 25.7623368,16.2186516 C25.8809482,16.0880458 25.9982268,15.95744 26.1195036,15.8108417 C26.1461578,15.7828548 26.1661485,15.7548678 26.1848065,15.7228827 C27.5441728,13.9930225 28.2611718,11.9206553 28.2611718,9.72567862 C28.2611718,6.81237014 26.9711066,4.07764507 24.7241541,2.22117723 C22.4772016,0.366042091 19.5252445,-0.37894393 16.6026071,0.183460544 C12.7244151,0.928446564 9.65251386,4.05099083 8.95950361,7.95317163 C8.45707117,10.7811865 9.15407956,13.5612238 10.9252538,15.7815221 L10.9252538,15.7815221 C10.9345828,15.7948492 10.9439118,15.8081763 10.9532408,15.818838 C11.0611905,15.9521092 11.174471,16.0787168 11.3144058,16.2333114 C11.822169,16.8503571 12.9403144,18.3736469 13.2068568,20.1061726 C11.1611439,19.7330132 4.67216903,18.1444205 4.31766763,12.94018 C4.26169373,12.1418855 4.23104135,11.3395929 4.21105067,10.5666199 C4.18972728,9.67237014 3.55402364,8.95936921 2.66510473,8.83409428 C1.91612057,8.73147545 1.03119979,9.06731888 0.720677884,10.0575239 C-0.13892137,12.8069088 -0.229545787,15.1724727 0.448804632,17.0902453 C1.5869407,20.3007485 5.86494629,22.0852499 8.61166577,23.056797 C7.91065925,23.2020626 7.15900966,23.2820253 6.33805906,23.2100589 C5.8103051,23.1674121 2.2852818,22.9435165 1.83215971,22.9328548 C1.81483445,22.9328548 1.79884191,22.9328548 1.78018394,22.9328548 C0.776651789,22.9328548 0.183594939,23.6471884 0.036996617,24.3668529 C-0.109601705,25.0998445 0.174265955,26.0074214 1.13914946,26.3859116 C2.36790994,26.8656879 5.40782607,27.1695463 7.91332467,27.1695463 C8.6036695,27.1695463 9.24603669,27.1442248 9.80577574,27.0962471 C9.27935449,27.3867783 8.67963408,27.6466572 7.98395841,27.8532276 C7.05905626,28.1277662 4.66150733,28.1970673 3.07558003,28.2410468 C1.9307804,28.2743646 1.54562663,28.2890244 1.35904694,28.337002 C0.356847502,28.5982136 -0.0309716962,29.4658091 0.0290003448,30.2081297 C0.0889723859,30.9544484 0.612728211,31.7487448 1.64558003,31.8460328 C1.99608329,31.8793506 2.61446167,31.8993413 3.39010007,31.8993413 C6.20345514,31.8993413 11.0785157,31.6314661 12.6257944,30.7212238 C12.8736788,30.5759582 13.08558,30.3907112 13.3174719,30.225455 C12.7417403,31.0144205 11.9661019,31.7714009 10.8586182,32.4764056 C9.87507677,33.1027802 8.23584098,33.2853618 7.25896307,33.3933114 C6.64724825,33.4626125 6.37004415,33.4959303 6.1768009,33.5892201 C5.37584098,33.978372 4.99335263,34.8619601 5.2452352,35.7388846 C5.4784598,36.5478408 6.14881395,37.0596022 6.94577574,37.0596022 C7.01374405,37.0596022 7.08171237,37.0556041 7.14834797,37.0489405 C7.43088292,37.0196208 7.75473194,36.9982974 8.10923334,36.9756413 C10.0030171,36.8543646 12.8656825,36.6704503 15.131293,34.7846628 C16.7718615,33.4226311 17.9233247,30.9024727 18.5310414,28.6128734 C19.138758,30.9024727 20.2888885,33.4212984 21.929457,34.7846628 C24.1964002,36.6704503 27.0590656,36.8530318 28.9541821,36.9756413 C29.3086835,36.9982974 29.6325325,37.0182881 29.9137347,37.0489405 C29.9830358,37.0556041 30.0510041,37.0596022 30.116307,37.0596022 C30.9159342,37.0596022 31.5862883,36.5478408 31.8168475,35.7375519 C32.0687301,34.8619601 31.6862417,33.978372 30.8866145,33.5892201 C30.6933713,33.4959303 30.4161672,33.4612797 29.8044523,33.3933114 C28.8275744,33.2853618 27.1883386,33.1014475 26.2047972,32.4764056 C25.0999789,31.7727336 24.3256732,31.0170859 23.7499416,30.2294531 C23.9791681,30.3933767 24.1897366,30.5772909 24.4349556,30.7225565 C25.0826537,31.1037122 26.3607245,31.4049051 28.2331849,31.6141409 C28.2531756,31.6154736 28.2705008,31.6168063 28.2891588,31.6168063 C28.5397086,31.6168063 28.7582734,31.4275612 28.7862604,31.1730132 C28.81558,30.8984745 28.6183386,30.6505901 28.3451327,30.6199377 C26.0755241,30.3667224 25.2399137,30.0362098 24.9427189,29.8616246 C24.0484691,29.336536 23.2754962,28.6635165 22.6424579,27.8585584 C22.6238,27.8345696 22.5984784,27.8212425 22.5771551,27.8025845 C22.3452632,26.9909629 22.211992,26.1606833 22.1160367,25.3170766 C22.0853843,25.0452033 21.8534924,24.8546255 21.5616285,24.8772816 C21.2884225,24.9092667 21.0898484,25.1571511 21.1218335,25.4316898 C21.4323554,28.1570859 22.0400721,31.0130878 25.6690469,33.321345 C26.8484971,34.0716618 28.561032,34.2622397 29.69517,34.39018 C29.9976956,34.4221651 30.3735204,34.4661446 30.449485,34.4901334 C30.8946108,34.7073655 30.9479193,35.1511586 30.8572948,35.4656786 C30.7666704,35.7841968 30.5121224,36.1133767 30.019019,36.0574028 C29.7244896,36.0267504 29.3873135,36.005427 29.0181523,35.9801055 C27.1483573,35.8601614 24.5868848,35.6962378 22.5691588,34.0196861 C20.3768475,32.1978687 19.0321411,27.7559396 19.0321411,25.3730505 C19.0321411,25.0971791 18.8082455,24.8732835 18.5323741,24.8732835 C18.2565027,24.8732835 18.0326071,25.0971791 18.0326071,25.3730505 C18.0326071,27.7559396 16.6865679,32.1978687 14.4942566,34.0196861 C12.4791961,35.6962378 9.91772355,35.8601614 8.04792858,35.9801055 C7.67876735,36.005427 7.34159121,36.0254177 7.04572914,36.0574028 C6.5979379,36.1093785 6.29941041,35.7855295 6.20745328,35.4656786 C6.11816158,35.1511586 6.17147006,34.7073655 6.60060333,34.496797 C6.69256046,34.4648119 7.06971796,34.4208324 7.37091088,34.3888473 C8.50504881,34.260907 10.2175838,34.0716618 11.3970339,33.3200123 C15.0273414,31.0104223 15.6337254,28.1557532 15.9429146,25.4290244 C15.9722343,25.1558184 15.7763256,24.9066013 15.5017869,24.8759489 C15.2379099,24.8559582 14.9806965,25.0438706 14.9487114,25.3170766 C14.8540889,26.1593506 14.7208177,26.9896302 14.4889258,27.8012518 C14.4662697,27.8212425 14.4409482,27.8345696 14.4209575,27.8585584 C13.7879193,28.6635165 13.0136136,29.3378687 12.1206965,29.8616246 C10.5347692,30.794523 3.58067788,31.0250822 1.74153529,30.8531623 C1.25509541,30.8065174 1.05252318,30.4480179 1.02853436,30.1294997 C1.00188012,29.8109815 1.1431476,29.4284932 1.60559867,29.3072164 C1.74420072,29.2792294 2.46786335,29.2592387 3.10756512,29.2405808 C4.84408888,29.1912704 7.22031442,29.1233021 8.27049149,28.8114475 C10.0523275,28.2836935 11.2984132,27.4480831 12.1846667,26.5085211 C12.2086555,26.4871977 12.2259808,26.4632089 12.2459715,26.4392201 C14.6301933,23.8457625 14.2557012,20.4886609 14.2503703,20.442016 C14.2477049,20.4246907 14.2383759,20.4113636 14.2343778,20.3940384 C14.0677888,18.3150076 12.8336975,16.5065174 12.0314048,15.536303 C11.9447785,15.4390151 11.8554868,15.3417271 11.7408736,15.2071232 C11.7302119,15.1897979 11.7195502,15.1751381 11.7075558,15.1591455 C10.1202958,13.1667411 9.49392113,10.6705714 9.9457105,8.12908962 C10.568087,4.63205327 13.3188046,1.83335803 16.7945176,1.16433659 C19.4106313,0.660571448 22.0733899,1.32692746 24.0897832,2.99148477 C26.1075092,4.6573748 27.2643032,7.11223035 27.2643032,9.72567862 C27.2643032,11.7180831 26.6059435,13.5958743 25.3598578,15.1591455 C25.3505288,15.1698072 25.3425325,15.1804689 25.3345362,15.1924633 C25.2359155,15.3150728 25.1292986,15.4323515 24.9800348,15.5989405 C24.2283852,16.5105155 22.9956266,18.3163403 22.8303703,20.3980365 C22.8263722,20.414029 22.8170432,20.4260235 22.8157105,20.442016 C22.8103797,20.4886609 22.4345549,23.8417644 24.8147785,26.435222 C24.8361019,26.4618762 24.8547599,26.4885304 24.8814141,26.5111865 C25.7676676,27.4494158 27.0137534,28.2850262 28.7955893,28.8127802 C29.8457664,29.1246348 32.221992,29.1926031 33.9585157,29.2419135 C34.5968848,29.2605714 35.3205474,29.2805621 35.4511532,29.3072164 C35.9229332,29.4298259 36.062868,29.8123142 36.0362138,30.1308324 C36.0108922,30.4493506 35.8096527,30.8078501 35.3232128,30.854495 C35.0486742,30.8811493 34.8474346,31.1237029 34.8727562,31.3982415 C34.896745,31.6567877 35.1153098,31.8513636 35.3698578,31.8513636 C35.3858503,31.8513636 35.4005101,31.8500309 35.4165027,31.8486982 C36.4493545,31.7514102 36.9731103,30.9557811 37.0330824,30.2107951 C37.0930544,29.4671418 36.7052352,28.600879 35.7030358,28.3396674 C35.5164561,28.2916898 35.1299696,28.27703 33.9865027,28.2437122 C32.4019081,28.1997327 30.0043592,28.1304317 29.0781243,27.855893 C28.3824486,27.6493226 27.7840609,27.3907765 27.2589724,27.0989125 C27.8187114,27.1468902 28.4597459,27.1722117 29.148758,27.1722117 C31.6529239,27.1695463 34.6915073,26.8670207 35.9202678,26.3859116 Z M10.2229146,22.5543646 L9.93771423,22.4570766 C7.717416,21.7040943 2.51717369,19.9369181 1.39103203,16.7570673 C0.785980774,15.0485304 0.881936039,12.8948678 1.67489969,10.3560514 C1.81883259,9.89626576 2.19332467,9.77365626 2.52516996,9.8229666 C2.83302644,9.8669461 3.19952225,10.0935071 3.21151665,10.5906087 C3.23150733,11.3795742 3.26482514,12.1978594 3.32079904,13.0081483 C3.70995095,18.7228175 10.1402865,20.5339731 12.6870991,21.0310747 C12.1420199,21.5001893 11.3117403,22.0999098 10.2362417,22.5610281 C10.2309109,22.5596954 10.2269127,22.5556973 10.2229146,22.5543646 Z M1.50431255,25.4543459 C1.04852504,25.2770952 0.9552352,24.8772816 1.01787267,24.5640943 C1.08184284,24.2522397 1.3323927,23.9670393 1.80950361,23.9323888 C2.24663315,23.9430505 5.7769873,24.1669461 6.25543091,24.2069275 C9.10476922,24.4428175 11.595608,23.2580365 13.2495036,21.8653524 C13.1482175,22.9062005 12.7683946,24.3921744 11.5942753,25.6915687 C11.3330637,25.7848585 11.0651886,25.8728175 10.7826537,25.9447839 C8.83422868,26.4458837 3.03160053,26.0527336 1.50431255,25.4543459 Z M33.7412837,13.009481 C33.7972576,12.195194 33.8305754,11.3769088 33.8492333,10.5866106 C33.8612277,10.0908417 34.2263908,9.86428067 34.53558,9.82030118 C34.8634272,9.78165253 35.239252,9.89360034 35.3845176,10.3520533 C36.1801467,12.889537 36.2761019,15.0445323 35.669718,16.7570673 C34.544909,19.9355854 29.3473321,21.7014289 27.1270339,22.4557439 L26.8391681,22.5543646 C26.8365027,22.5556973 26.83517,22.5583627 26.8325045,22.5583627 C25.7556732,22.0972443 24.9240609,21.4988566 24.377649,21.0310747 C26.9244617,20.5353058 33.3521318,18.7228175 33.7412837,13.009481 Z M26.2780963,25.9447839 C26.0008922,25.8741502 25.7370153,25.7875239 25.4784691,25.6955668 C24.3056825,24.3975053 23.9231942,22.9115314 23.8179099,21.8693506 C25.474471,23.2620346 27.9666425,24.4441502 30.8079845,24.2069275 C31.2837627,24.1669461 34.8127841,23.9430505 35.2525791,23.9323888 C35.7416844,23.9297234 35.9815726,24.2495742 36.04421,24.5640943 C36.1081802,24.8772816 36.0135577,25.2770952 35.5577701,25.4543459 C34.0278167,26.0527336 28.2305195,26.4458837 26.2780963,25.9447839 Z" id="Shape" fill="#22B4DE" fill-rule="nonzero"></path>
                                    <path d="M28.162936,31.1341426 C30.6046497,31.1887173 33.0463634,31.243292 35.4880772,31.2978667" id="Path-5" stroke="#22B4DE" stroke-width="0.5" stroke-linecap="round"></path>
                                </g>
                            </g>
                        </g>
                        <g id="noun_Octopus_2602069-(1)-Copy-2" stroke-width="1" fill-rule="evenodd" transform="translate(12.297297, 14.932432)">
                            <g id="Group">
                                <g id="Group-3" transform="translate(0.829266, 0.842728)">
                                    <path d="M35.9202678,26.3859116 C36.886484,26.0087541 37.1703517,25.0998445 37.0224207,24.3668529 C36.8758223,23.635194 36.3027562,22.9328548 35.2272576,22.9328548 C34.7701373,22.9435165 31.2491122,23.1674121 30.7226909,23.2100589 C29.9044058,23.2793599 29.1567543,23.1980645 28.4570805,23.0541316 C31.2038,22.0812518 35.4764747,20.2980831 36.6106126,17.091578 C37.2916285,15.1711399 37.1983386,12.8029107 36.3374067,10.0548585 C36.0268848,9.06465346 35.1406313,8.72881003 34.3956453,8.83142886 C33.5067263,8.95670379 32.86969,9.66837201 32.8496993,10.5639545 C32.8310414,11.3409256 32.7977236,12.1432182 32.7444151,12.9428454 C32.388581,18.1457532 25.9009388,19.7356786 23.8552259,20.1075053 C24.1217683,18.3736469 25.2412464,16.8490244 25.7623368,16.2186516 C25.8809482,16.0880458 25.9982268,15.95744 26.1195036,15.8108417 C26.1461578,15.7828548 26.1661485,15.7548678 26.1848065,15.7228827 C27.5441728,13.9930225 28.2611718,11.9206553 28.2611718,9.72567862 C28.2611718,6.81237014 26.9711066,4.07764507 24.7241541,2.22117723 C22.4772016,0.366042091 19.5252445,-0.37894393 16.6026071,0.183460544 C12.7244151,0.928446564 9.65251386,4.05099083 8.95950361,7.95317163 C8.45707117,10.7811865 9.15407956,13.5612238 10.9252538,15.7815221 C10.9345828,15.7948492 10.9439118,15.8081763 10.9532408,15.818838 C11.0611905,15.9521092 11.174471,16.0787168 11.3144058,16.2333114 C11.822169,16.8503571 12.9403144,18.3736469 13.2068568,20.1061726 C11.1611439,19.7330132 4.67216903,18.1444205 4.31766763,12.94018 C4.26169373,12.1418855 4.23104135,11.3395929 4.21105067,10.5666199 C4.18972728,9.67237014 3.55402364,8.95936921 2.66510473,8.83409428 C1.91612057,8.73147545 1.03119979,9.06731888 0.720677884,10.0575239 C-0.13892137,12.8069088 -0.229545787,15.1724727 0.448804632,17.0902453 C1.5869407,20.3007485 5.86494629,22.0852499 8.61166577,23.056797 C7.91065925,23.2020626 7.15900966,23.2820253 6.33805906,23.2100589 C5.8103051,23.1674121 2.2852818,22.9435165 1.83215971,22.9328548 C1.81483445,22.9328548 1.79884191,22.9328548 1.78018394,22.9328548 C0.776651789,22.9328548 0.183594939,23.6471884 0.036996617,24.3668529 C-0.109601705,25.0998445 0.174265955,26.0074214 1.13914946,26.3859116 C2.36790994,26.8656879 5.40782607,27.1695463 7.91332467,27.1695463 C8.6036695,27.1695463 9.24603669,27.1442248 9.80577574,27.0962471 C9.27935449,27.3867783 8.67963408,27.6466572 7.98395841,27.8532276 C7.05905626,28.1277662 4.66150733,28.1970673 3.07558003,28.2410468 C1.9307804,28.2743646 1.54562663,28.2890244 1.35904694,28.337002 C0.356847502,28.5982136 -0.0309716962,29.4658091 0.0290003448,30.2081297 C0.0889723859,30.9544484 0.612728211,31.7487448 1.64558003,31.8460328 C1.99608329,31.8793506 2.61446167,31.8993413 3.39010007,31.8993413 C6.20345514,31.8993413 11.0785157,31.6314661 12.6257944,30.7212238 C12.8736788,30.5759582 13.08558,30.3907112 13.3174719,30.225455 C12.7417403,31.0144205 11.9661019,31.7714009 10.8586182,32.4764056 C9.87507677,33.1027802 8.23584098,33.2853618 7.25896307,33.3933114 C6.64724825,33.4626125 6.37004415,33.4959303 6.1768009,33.5892201 C5.37584098,33.978372 4.99335263,34.8619601 5.2452352,35.7388846 C5.4784598,36.5478408 6.14881395,37.0596022 6.94577574,37.0596022 C7.01374405,37.0596022 7.08171237,37.0556041 7.14834797,37.0489405 C7.43088292,37.0196208 7.75473194,36.9982974 8.10923334,36.9756413 C10.0030171,36.8543646 12.8656825,36.6704503 15.131293,34.7846628 C16.7718615,33.4226311 17.9233247,30.9024727 18.5310414,28.6128734 C19.138758,30.9024727 20.2888885,33.4212984 21.929457,34.7846628 C24.1964002,36.6704503 27.0590656,36.8530318 28.9541821,36.9756413 C29.3086835,36.9982974 29.6325325,37.0182881 29.9137347,37.0489405 C29.9830358,37.0556041 30.0510041,37.0596022 30.116307,37.0596022 C30.9159342,37.0596022 31.5862883,36.5478408 31.8168475,35.7375519 C32.0687301,34.8619601 31.6862417,33.978372 30.8866145,33.5892201 C30.6933713,33.4959303 30.4161672,33.4612797 29.8044523,33.3933114 C28.8275744,33.2853618 27.1883386,33.1014475 26.2047972,32.4764056 C25.0999789,31.7727336 24.3256732,31.0170859 23.7499416,30.2294531 C23.9791681,30.3933767 24.1897366,30.5772909 24.4349556,30.7225565 C25.0826537,31.1037122 26.3607245,31.4049051 28.2331849,31.6141409 C28.2531756,31.6154736 28.2705008,31.6168063 28.2891588,31.6168063 C28.5397086,31.6168063 28.7582734,31.4275612 28.7862604,31.1730132 C28.81558,30.8984745 28.6183386,30.6505901 28.3451327,30.6199377 C26.0755241,30.3667224 25.2399137,30.0362098 24.9427189,29.8616246 C24.0484691,29.336536 23.2754962,28.6635165 22.6424579,27.8585584 C22.6238,27.8345696 22.5984784,27.8212425 22.5771551,27.8025845 C22.3452632,26.9909629 22.211992,26.1606833 22.1160367,25.3170766 C22.0853843,25.0452033 21.8534924,24.8546255 21.5616285,24.8772816 C21.2884225,24.9092667 21.0898484,25.1571511 21.1218335,25.4316898 C21.4323554,28.1570859 22.0400721,31.0130878 25.6690469,33.321345 C26.8484971,34.0716618 28.561032,34.2622397 29.69517,34.39018 C29.9976956,34.4221651 30.3735204,34.4661446 30.449485,34.4901334 C30.8946108,34.7073655 30.9479193,35.1511586 30.8572948,35.4656786 C30.7666704,35.7841968 30.5121224,36.1133767 30.019019,36.0574028 C29.7244896,36.0267504 29.3873135,36.005427 29.0181523,35.9801055 C27.1483573,35.8601614 24.5868848,35.6962378 22.5691588,34.0196861 C20.3768475,32.1978687 19.0321411,27.7559396 19.0321411,25.3730505 C19.0321411,25.0971791 18.8082455,24.8732835 18.5323741,24.8732835 C18.2565027,24.8732835 18.0326071,25.0971791 18.0326071,25.3730505 C18.0326071,27.7559396 16.6865679,32.1978687 14.4942566,34.0196861 C12.4791961,35.6962378 9.91772355,35.8601614 8.04792858,35.9801055 C7.67876735,36.005427 7.34159121,36.0254177 7.04572914,36.0574028 C6.5979379,36.1093785 6.29941041,35.7855295 6.20745328,35.4656786 C6.11816158,35.1511586 6.17147006,34.7073655 6.60060333,34.496797 C6.69256046,34.4648119 7.06971796,34.4208324 7.37091088,34.3888473 C8.50504881,34.260907 10.2175838,34.0716618 11.3970339,33.3200123 C15.0273414,31.0104223 15.6337254,28.1557532 15.9429146,25.4290244 C15.9722343,25.1558184 15.7763256,24.9066013 15.5017869,24.8759489 C15.2379099,24.8559582 14.9806965,25.0438706 14.9487114,25.3170766 C14.8540889,26.1593506 14.7208177,26.9896302 14.4889258,27.8012518 C14.4662697,27.8212425 14.4409482,27.8345696 14.4209575,27.8585584 C13.7879193,28.6635165 13.0136136,29.3378687 12.1206965,29.8616246 C10.5347692,30.794523 3.58067788,31.0250822 1.74153529,30.8531623 C1.25509541,30.8065174 1.05252318,30.4480179 1.02853436,30.1294997 C1.00188012,29.8109815 1.1431476,29.4284932 1.60559867,29.3072164 C1.74420072,29.2792294 2.46786335,29.2592387 3.10756512,29.2405808 C4.84408888,29.1912704 7.22031442,29.1233021 8.27049149,28.8114475 C10.0523275,28.2836935 11.2984132,27.4480831 12.1846667,26.5085211 C12.2086555,26.4871977 12.2259808,26.4632089 12.2459715,26.4392201 C14.6301933,23.8457625 14.2557012,20.4886609 14.2503703,20.442016 C14.2477049,20.4246907 14.2383759,20.4113636 14.2343778,20.3940384 C14.0677888,18.3150076 12.8336975,16.5065174 12.0314048,15.536303 C11.9447785,15.4390151 11.8554868,15.3417271 11.7408736,15.2071232 C11.7302119,15.1897979 11.7195502,15.1751381 11.7075558,15.1591455 C10.1202958,13.1667411 9.49392113,10.6705714 9.9457105,8.12908962 C10.568087,4.63205327 13.3188046,1.83335803 16.7945176,1.16433659 C19.4106313,0.660571448 22.0733899,1.32692746 24.0897832,2.99148477 C26.1075092,4.6573748 27.2643032,7.11223035 27.2643032,9.72567862 C27.2643032,11.7180831 26.6059435,13.5958743 25.3598578,15.1591455 C25.3505288,15.1698072 25.3425325,15.1804689 25.3345362,15.1924633 C25.2359155,15.3150728 25.1292986,15.4323515 24.9800348,15.5989405 C24.2283852,16.5105155 22.9956266,18.3163403 22.8303703,20.3980365 C22.8263722,20.414029 22.8170432,20.4260235 22.8157105,20.442016 C22.8103797,20.4886609 22.4345549,23.8417644 24.8147785,26.435222 C24.8361019,26.4618762 24.8547599,26.4885304 24.8814141,26.5111865 C25.7676676,27.4494158 27.0137534,28.2850262 28.7955893,28.8127802 C29.8457664,29.1246348 32.221992,29.1926031 33.9585157,29.2419135 C34.5968848,29.2605714 35.3205474,29.2805621 35.4511532,29.3072164 C35.9229332,29.4298259 36.062868,29.8123142 36.0362138,30.1308324 C36.0108922,30.4493506 35.8096527,30.8078501 35.3232128,30.854495 C35.0486742,30.8811493 34.8474346,31.1237029 34.8727562,31.3982415 C34.896745,31.6567877 35.1153098,31.8513636 35.3698578,31.8513636 C35.3858503,31.8513636 35.4005101,31.8500309 35.4165027,31.8486982 C36.4493545,31.7514102 36.9731103,30.9557811 37.0330824,30.2107951 C37.0930544,29.4671418 36.7052352,28.600879 35.7030358,28.3396674 C35.5164561,28.2916898 35.1299696,28.27703 33.9865027,28.2437122 C32.4019081,28.1997327 30.0043592,28.1304317 29.0781243,27.855893 C28.3824486,27.6493226 27.7840609,27.3907765 27.2589724,27.0989125 C27.8187114,27.1468902 28.4597459,27.1722117 29.148758,27.1722117 C31.6529239,27.1695463 34.6915073,26.8670207 35.9202678,26.3859116 Z M10.2229146,22.5543646 L9.93771423,22.4570766 C7.717416,21.7040943 2.51717369,19.9369181 1.39103203,16.7570673 C0.785980774,15.0485304 0.881936039,12.8948678 1.67489969,10.3560514 C1.81883259,9.89626576 2.19332467,9.77365626 2.52516996,9.8229666 C2.83302644,9.8669461 3.19952225,10.0935071 3.21151665,10.5906087 C3.23150733,11.3795742 3.26482514,12.1978594 3.32079904,13.0081483 C3.70995095,18.7228175 10.1402865,20.5339731 12.6870991,21.0310747 C12.1420199,21.5001893 11.3117403,22.0999098 10.2362417,22.5610281 C10.2309109,22.5596954 10.2269127,22.5556973 10.2229146,22.5543646 Z M1.50431255,25.4543459 C1.04852504,25.2770952 0.9552352,24.8772816 1.01787267,24.5640943 C1.08184284,24.2522397 1.3323927,23.9670393 1.80950361,23.9323888 C2.24663315,23.9430505 5.7769873,24.1669461 6.25543091,24.2069275 C9.10476922,24.4428175 11.595608,23.2580365 13.2495036,21.8653524 C13.1482175,22.9062005 12.7683946,24.3921744 11.5942753,25.6915687 C11.3330637,25.7848585 11.0651886,25.8728175 10.7826537,25.9447839 C8.83422868,26.4458837 3.03160053,26.0527336 1.50431255,25.4543459 Z M33.7412837,13.009481 C33.7972576,12.195194 33.8305754,11.3769088 33.8492333,10.5866106 C33.8612277,10.0908417 34.2263908,9.86428067 34.53558,9.82030118 C34.8634272,9.78165253 35.239252,9.89360034 35.3845176,10.3520533 C36.1801467,12.889537 36.2761019,15.0445323 35.669718,16.7570673 C34.544909,19.9355854 29.3473321,21.7014289 27.1270339,22.4557439 L26.8391681,22.5543646 C26.8365027,22.5556973 26.83517,22.5583627 26.8325045,22.5583627 C25.7556732,22.0972443 24.9240609,21.4988566 24.377649,21.0310747 C26.9244617,20.5353058 33.3521318,18.7228175 33.7412837,13.009481 Z M26.2780963,25.9447839 C26.0008922,25.8741502 25.7370153,25.7875239 25.4784691,25.6955668 C24.3056825,24.3975053 23.9231942,22.9115314 23.8179099,21.8693506 C25.474471,23.2620346 27.9666425,24.4441502 30.8079845,24.2069275 C31.2837627,24.1669461 34.8127841,23.9430505 35.2525791,23.9323888 C35.7416844,23.9297234 35.9815726,24.2495742 36.04421,24.5640943 C36.1081802,24.8772816 36.0135577,25.2770952 35.5577701,25.4543459 C34.0278167,26.0527336 28.2305195,26.4458837 26.2780963,25.9447839 Z" id="Shape" fill="#2C2C2C" fill-rule="nonzero"></path>
                                    <path d="M28.162936,31.1341426 C30.6046497,31.1887173 33.0463634,31.243292 35.4880772,31.2978667" id="Path-5" stroke="#2C2C2C" stroke-width="0.5" stroke-linecap="round"></path>
                                </g>
                            </g>
                        </g>
                        <path d="M29.8648649,25.0162162 C29.7582793,24.3575457 29.0125511,23.8608102 28.1242168,23.8567568 C27.2308571,23.8597358 26.4775861,24.3548055 26.3600465,25.0162162 C26.348453,25.0744547 26.348453,25.1336534 26.3600465,25.1918919 C26.3485459,25.238345 26.3485459,25.2859793 26.3600465,25.3324324 L26.7834474,25.3324324 C26.7719468,25.2859793 26.7719468,25.238345 26.7834474,25.1918919 C26.7718538,25.1336534 26.7718538,25.0744547 26.7834474,25.0162162 C26.8713955,24.5279808 27.4293163,24.1636023 28.0889334,24.1636023 C28.7485505,24.1636023 29.3064714,24.5279808 29.3944194,25.0162162 C29.4166365,25.0735994 29.4166365,25.1345087 29.3944194,25.1918919 C29.40592,25.238345 29.40592,25.2859793 29.3944194,25.3324324 L29.8178203,25.3324324 C29.8293209,25.2859793 29.8293209,25.238345 29.8178203,25.1918919 C29.8452384,25.1354328 29.8610983,25.0762082 29.8648649,25.0162162 Z" id="Path" stroke="#2C2C2C" stroke-width="0.5" fill="#2C2C2C" fill-rule="nonzero"></path>
                        <path d="M36.8918919,25.0162162 C36.7853064,24.3575457 36.0395781,23.8608102 35.1512439,23.8567568 C34.2578841,23.8597358 33.5046131,24.3548055 33.3870735,25.0162162 C33.37548,25.0744547 33.37548,25.1336534 33.3870735,25.1918919 C33.375573,25.238345 33.375573,25.2859793 33.3870735,25.3324324 L33.8104744,25.3324324 C33.7989738,25.2859793 33.7989738,25.238345 33.8104744,25.1918919 C33.7988809,25.1336534 33.7988809,25.0744547 33.8104744,25.0162162 C33.8984225,24.5279808 34.4563433,24.1636023 35.1159604,24.1636023 C35.7755776,24.1636023 36.3334984,24.5279808 36.4214465,25.0162162 C36.4436635,25.0735994 36.4436635,25.1345087 36.4214465,25.1918919 C36.4329471,25.238345 36.4329471,25.2859793 36.4214465,25.3324324 L36.8448474,25.3324324 C36.8563479,25.2859793 36.8563479,25.238345 36.8448474,25.1918919 C36.8722654,25.1354328 36.8881253,25.0762082 36.8918919,25.0162162 Z" id="Path" stroke="#2C2C2C" stroke-width="0.5" fill="#2C2C2C" fill-rule="nonzero"></path>
                        <path d="M33.3783784,29.4081081 C33.2717929,28.7494376 32.5260646,28.2527021 31.6377303,28.2486486 C30.7443706,28.2516277 29.9910996,28.7466973 29.87356,29.4081081 C29.8619665,29.4663466 29.8619665,29.5255453 29.87356,29.5837838 C29.8620594,29.6302369 29.8620594,29.6778712 29.87356,29.7243243 L30.2969609,29.7243243 C30.2854603,29.6778712 30.2854603,29.6302369 30.2969609,29.5837838 C30.2853674,29.5255453 30.2853674,29.4663466 30.2969609,29.4081081 C30.384909,28.9198727 30.9428298,28.5554942 31.6024469,28.5554942 C32.262064,28.5554942 32.8199849,28.9198727 32.907933,29.4081081 C32.93015,29.4654913 32.93015,29.5264006 32.907933,29.5837838 C32.9194335,29.6302369 32.9194335,29.6778712 32.907933,29.7243243 L33.3313338,29.7243243 C33.3428344,29.6778712 33.3428344,29.6302369 33.3313338,29.5837838 C33.3587519,29.5273247 33.3746118,29.4681001 33.3783784,29.4081081 Z" id="Path-Copy" stroke="#2C2C2C" stroke-width="0.5" fill="#2C2C2C" fill-rule="nonzero" transform="translate(31.621622, 28.986486) scale(-1, -1) translate(-31.621622, -28.986486) "></path>
                        <circle id="Oval" stroke="#0E0E0E" stroke-width="1.6" cx="31.6216216" cy="33.3783784" r="26.3513514"></circle>
                    </g>
                </g>
            </g>
        </g>
    </g>
</svg>