<?xml version="1.0" encoding="UTF-8"?>
<svg width="21px" height="25px" viewBox="0 0 21 25" version="1.1" xmlns="http://www.w3.org/2000/svg" xmlns:xlink="http://www.w3.org/1999/xlink">
    <!-- Generator: Sketch 59.1 (86144) - https://sketch.com -->
    <title>Icons/Bookmark@1.5x</title>
    <desc>Created with Sketch.</desc>
    <g id="Page-1" stroke="none" stroke-width="1" fill="none" fill-rule="evenodd">
        <g id="Icons/Bookmark" transform="translate(-8.000000, -6.000000)">
            <g id="8309137151551938530">
                <polygon id="Path" points="0 0 35.8615385 0 35.8615385 35.8615385 0 35.8615385"></polygon>
            </g>
            <g id="noun_bookmark_1633754" transform="translate(8.723077, 5.815385)" fill="#22BFDE">
                <g id="Group" transform="translate(0.000000, 0.171721)" fill-rule="nonzero">
                    <path d="M0.823500096,23.7898204 C0.355214143,23.7505968 -0.00201029327,23.4002223 8.51419883e-06,22.9821281 L8.51419883e-06,1.98212538 C8.51419883e-06,0.952018846 0.961342884,0.09751 2.12020971,0.09751 L17.2644405,0.09751 C18.4233073,0.09751 19.3846372,0.952018846 19.3846372,1.98212538 L19.3846372,22.9821281 C19.3856875,23.2836561 19.1977198,23.5606045 18.8971476,23.7003807 C18.5965754,23.8401568 18.2334429,23.8194884 17.9553809,23.6467781 L9.6923251,18.5818742 L1.42926933,23.6467781 C1.25281976,23.7568067 1.03811756,23.807505 0.823500096,23.7898204 Z M1.8173251,21.4424512 L9.17172702,16.9328358 C9.48439222,16.7385847 9.90025797,16.7385847 10.2129232,16.9328358 L17.5673251,21.4424512 L17.5673251,1.98212538 C17.5673251,1.81899577 17.4479583,1.71289462 17.2644405,1.71289462 L2.12020971,1.71289462 C1.93669192,1.71289462 1.8173251,1.81899577 1.8173251,1.98212538 L1.8173251,21.4424512 L1.8173251,21.4424512 Z" id="Shape"></path>
                </g>
            </g>
            <g id="noun_bookmark_1633754" transform="translate(8.723077, 6.784615)" fill="#000000">
                <g id="Group" transform="translate(0.000000, 0.171721)" fill-rule="nonzero">
                    <path d="M0.823484813,23.7881 C0.355198859,23.7488764 -0.00202557676,23.3985019 -6.76929045e-06,22.9804077 L-6.76929045e-06,1.980405 C-6.76929045e-06,0.950298462 0.961327601,0.0957896154 2.12019443,0.0957896154 L17.2644252,0.0957896154 C18.423292,0.0957896154 19.3846219,0.950298462 19.3846219,1.980405 L19.3846219,22.9804077 C19.3856722,23.2819357 19.1977045,23.5588841 18.8971323,23.6986603 C18.5965601,23.8384364 18.2334276,23.817768 17.9553656,23.6450577 L9.69230981,18.5801538 L1.42925404,23.6450577 C1.25280448,23.7550863 1.03810228,23.8057846 0.823484813,23.7881 Z M1.81730981,21.4407308 L9.17171174,16.9311154 C9.48437694,16.7368643 9.90024268,16.7368643 10.2129079,16.9311154 L17.5673098,21.4407308 L17.5673098,1.980405 C17.5673098,1.81727538 17.447943,1.71117423 17.2644252,1.71117423 L2.12019443,1.71117423 C1.93667664,1.71117423 1.81730981,1.81727538 1.81730981,1.980405 L1.81730981,21.4407308 L1.81730981,21.4407308 Z" id="Shape"></path>
                </g>
            </g>
        </g>
    </g>
</svg>