<?xml version="1.0" encoding="UTF-8"?>
<svg width="88px" height="15px" viewBox="0 0 88 15" version="1.1" xmlns="http://www.w3.org/2000/svg" xmlns:xlink="http://www.w3.org/1999/xlink">
    <!-- Generator: Sketch 59.1 (86144) - https://sketch.com -->
    <title>Component/Five Stars/Mobile/Filled@1.5x</title>
    <desc>Created with Sketch.</desc>
    <g id="Mobile" stroke="none" stroke-width="1" fill="none" fill-rule="evenodd">
        <g id="Tutorial-Profile" transform="translate(-20.000000, -584.000000)">
            <g id="Component/Five-Stars/Mobile/Filled" transform="translate(14.000000, 585.000000)">
                <g id="Group-7-Copy" transform="translate(8.000000, 0.000000)">
                    <g id="Group-3">
                        <path d="M6.48831899,0.341457912 L7.78153091,2.94682271 C7.87121548,3.13032293 8.04605796,3.25237453 8.2440996,3.28084384 L11.1329613,3.6991454 C11.6379675,3.77440586 11.8408187,4.39030136 11.4727442,4.74799993 L9.38170737,6.77467665 C9.23543948,6.91589571 9.16923698,7.11799963 9.20233823,7.32038543 L9.69319859,10.184229 C9.77835649,10.6873748 9.24958531,11.0684689 8.80116245,10.8333857 L6.21926527,9.47897935 C6.03989613,9.38483332 5.82289907,9.38483332 5.64352993,9.47897935 L3.06615942,10.8378957 C2.61292698,11.0729789 2.08443871,10.6921666 2.17412328,10.1890209 L2.66498364,7.32489542 C2.69808488,7.12730149 2.63188239,6.92068758 2.48561449,6.77946852 L0.394577672,4.75250992 C0.026503135,4.3953751 0.22935436,3.77891585 0.734360546,3.70393727 L3.62322227,3.28535383 C3.82607349,3.25716639 3.99610639,3.13032293 4.08579096,2.95161458 L5.37900288,0.346249777 C5.6056191,-0.114614818 6.26170277,-0.114614818 6.48831899,0.341457912 Z" id="Stroke-1" stroke="#000000" stroke-width="2" fill="#000000"></path>
                        <path d="M6.4678824,1.432367 L7.79937473,4.0377318 C7.89171405,4.22123202 8.07173205,4.34328362 8.27563593,4.37175293 L11.2500109,4.79005449 C11.7699658,4.86531495 11.9788216,5.48121045 11.5998517,5.83890902 L9.44691806,7.86558574 C9.29632048,8.0068048 9.22815833,8.20890872 9.26223941,8.41129452 L9.76762973,11.2751381 C9.8553084,11.7782839 9.31088505,12.159378 8.84918841,11.9242948 L6.19086442,10.5698884 C6.00618576,10.4757424 5.78276537,10.4757424 5.59808672,10.5698884 L2.94442339,11.9288048 C2.4777748,12.163888 1.93364273,11.7830757 2.02598206,11.27993 L2.53137239,8.41580451 C2.56545346,8.21821058 2.49729131,8.01159667 2.34669373,7.87037761 L0.193760068,5.84341901 C-0.185209855,5.48628419 0.0236459749,4.86982494 0.543600864,4.79484636 L3.51797587,4.37626292 C3.7268317,4.34807548 3.90189774,4.22123202 3.99423707,4.04252367 L5.32572939,1.43715887 C5.55905369,0.976294273 6.23455811,0.976294273 6.4678824,1.432367 Z" id="Stroke-1-Copy" stroke="#22BFDE" stroke-width="3" fill="#22BFDE"></path>
                    </g>
                </g>
                <g id="Group-7-Copy-2" transform="translate(26.000000, 0.000000)">
                    <g id="Group-3">
                        <path d="M6.48831899,0.341457912 L7.78153091,2.94682271 C7.87121548,3.13032293 8.04605796,3.25237453 8.2440996,3.28084384 L11.1329613,3.6991454 C11.6379675,3.77440586 11.8408187,4.39030136 11.4727442,4.74799993 L9.38170737,6.77467665 C9.23543948,6.91589571 9.16923698,7.11799963 9.20233823,7.32038543 L9.69319859,10.184229 C9.77835649,10.6873748 9.24958531,11.0684689 8.80116245,10.8333857 L6.21926527,9.47897935 C6.03989613,9.38483332 5.82289907,9.38483332 5.64352993,9.47897935 L3.06615942,10.8378957 C2.61292698,11.0729789 2.08443871,10.6921666 2.17412328,10.1890209 L2.66498364,7.32489542 C2.69808488,7.12730149 2.63188239,6.92068758 2.48561449,6.77946852 L0.394577672,4.75250992 C0.026503135,4.3953751 0.22935436,3.77891585 0.734360546,3.70393727 L3.62322227,3.28535383 C3.82607349,3.25716639 3.99610639,3.13032293 4.08579096,2.95161458 L5.37900288,0.346249777 C5.6056191,-0.114614818 6.26170277,-0.114614818 6.48831899,0.341457912 Z" id="Stroke-1" stroke="#000000" stroke-width="2" fill="#000000"></path>
                        <path d="M6.4678824,1.432367 L7.79937473,4.0377318 C7.89171405,4.22123202 8.07173205,4.34328362 8.27563593,4.37175293 L11.2500109,4.79005449 C11.7699658,4.86531495 11.9788216,5.48121045 11.5998517,5.83890902 L9.44691806,7.86558574 C9.29632048,8.0068048 9.22815833,8.20890872 9.26223941,8.41129452 L9.76762973,11.2751381 C9.8553084,11.7782839 9.31088505,12.159378 8.84918841,11.9242948 L6.19086442,10.5698884 C6.00618576,10.4757424 5.78276537,10.4757424 5.59808672,10.5698884 L2.94442339,11.9288048 C2.4777748,12.163888 1.93364273,11.7830757 2.02598206,11.27993 L2.53137239,8.41580451 C2.56545346,8.21821058 2.49729131,8.01159667 2.34669373,7.87037761 L0.193760068,5.84341901 C-0.185209855,5.48628419 0.0236459749,4.86982494 0.543600864,4.79484636 L3.51797587,4.37626292 C3.7268317,4.34807548 3.90189774,4.22123202 3.99423707,4.04252367 L5.32572939,1.43715887 C5.55905369,0.976294273 6.23455811,0.976294273 6.4678824,1.432367 Z" id="Stroke-1-Copy" stroke="#22BFDE" stroke-width="3" fill="#22BFDE"></path>
                    </g>
                </g>
                <g id="Group-7-Copy-3" transform="translate(44.000000, 0.000000)">
                    <g id="Group-3">
                        <path d="M6.48831899,0.341457912 L7.78153091,2.94682271 C7.87121548,3.13032293 8.04605796,3.25237453 8.2440996,3.28084384 L11.1329613,3.6991454 C11.6379675,3.77440586 11.8408187,4.39030136 11.4727442,4.74799993 L9.38170737,6.77467665 C9.23543948,6.91589571 9.16923698,7.11799963 9.20233823,7.32038543 L9.69319859,10.184229 C9.77835649,10.6873748 9.24958531,11.0684689 8.80116245,10.8333857 L6.21926527,9.47897935 C6.03989613,9.38483332 5.82289907,9.38483332 5.64352993,9.47897935 L3.06615942,10.8378957 C2.61292698,11.0729789 2.08443871,10.6921666 2.17412328,10.1890209 L2.66498364,7.32489542 C2.69808488,7.12730149 2.63188239,6.92068758 2.48561449,6.77946852 L0.394577672,4.75250992 C0.026503135,4.3953751 0.22935436,3.77891585 0.734360546,3.70393727 L3.62322227,3.28535383 C3.82607349,3.25716639 3.99610639,3.13032293 4.08579096,2.95161458 L5.37900288,0.346249777 C5.6056191,-0.114614818 6.26170277,-0.114614818 6.48831899,0.341457912 Z" id="Stroke-1" stroke="#000000" stroke-width="2" fill="#000000"></path>
                        <path d="M6.4678824,1.432367 L7.79937473,4.0377318 C7.89171405,4.22123202 8.07173205,4.34328362 8.27563593,4.37175293 L11.2500109,4.79005449 C11.7699658,4.86531495 11.9788216,5.48121045 11.5998517,5.83890902 L9.44691806,7.86558574 C9.29632048,8.0068048 9.22815833,8.20890872 9.26223941,8.41129452 L9.76762973,11.2751381 C9.8553084,11.7782839 9.31088505,12.159378 8.84918841,11.9242948 L6.19086442,10.5698884 C6.00618576,10.4757424 5.78276537,10.4757424 5.59808672,10.5698884 L2.94442339,11.9288048 C2.4777748,12.163888 1.93364273,11.7830757 2.02598206,11.27993 L2.53137239,8.41580451 C2.56545346,8.21821058 2.49729131,8.01159667 2.34669373,7.87037761 L0.193760068,5.84341901 C-0.185209855,5.48628419 0.0236459749,4.86982494 0.543600864,4.79484636 L3.51797587,4.37626292 C3.7268317,4.34807548 3.90189774,4.22123202 3.99423707,4.04252367 L5.32572939,1.43715887 C5.55905369,0.976294273 6.23455811,0.976294273 6.4678824,1.432367 Z" id="Stroke-1-Copy" stroke="#22BFDE" stroke-width="3" fill="#22BFDE"></path>
                    </g>
                </g>
                <g id="Group-7-Copy-4" transform="translate(62.000000, 0.000000)">
                    <g id="Group-3">
                        <path d="M6.48831899,0.341457912 L7.78153091,2.94682271 C7.87121548,3.13032293 8.04605796,3.25237453 8.2440996,3.28084384 L11.1329613,3.6991454 C11.6379675,3.77440586 11.8408187,4.39030136 11.4727442,4.74799993 L9.38170737,6.77467665 C9.23543948,6.91589571 9.16923698,7.11799963 9.20233823,7.32038543 L9.69319859,10.184229 C9.77835649,10.6873748 9.24958531,11.0684689 8.80116245,10.8333857 L6.21926527,9.47897935 C6.03989613,9.38483332 5.82289907,9.38483332 5.64352993,9.47897935 L3.06615942,10.8378957 C2.61292698,11.0729789 2.08443871,10.6921666 2.17412328,10.1890209 L2.66498364,7.32489542 C2.69808488,7.12730149 2.63188239,6.92068758 2.48561449,6.77946852 L0.394577672,4.75250992 C0.026503135,4.3953751 0.22935436,3.77891585 0.734360546,3.70393727 L3.62322227,3.28535383 C3.82607349,3.25716639 3.99610639,3.13032293 4.08579096,2.95161458 L5.37900288,0.346249777 C5.6056191,-0.114614818 6.26170277,-0.114614818 6.48831899,0.341457912 Z" id="Stroke-1" stroke="#000000" stroke-width="2" fill="#000000"></path>
                        <path d="M6.4678824,1.432367 L7.79937473,4.0377318 C7.89171405,4.22123202 8.07173205,4.34328362 8.27563593,4.37175293 L11.2500109,4.79005449 C11.7699658,4.86531495 11.9788216,5.48121045 11.5998517,5.83890902 L9.44691806,7.86558574 C9.29632048,8.0068048 9.22815833,8.20890872 9.26223941,8.41129452 L9.76762973,11.2751381 C9.8553084,11.7782839 9.31088505,12.159378 8.84918841,11.9242948 L6.19086442,10.5698884 C6.00618576,10.4757424 5.78276537,10.4757424 5.59808672,10.5698884 L2.94442339,11.9288048 C2.4777748,12.163888 1.93364273,11.7830757 2.02598206,11.27993 L2.53137239,8.41580451 C2.56545346,8.21821058 2.49729131,8.01159667 2.34669373,7.87037761 L0.193760068,5.84341901 C-0.185209855,5.48628419 0.0236459749,4.86982494 0.543600864,4.79484636 L3.51797587,4.37626292 C3.7268317,4.34807548 3.90189774,4.22123202 3.99423707,4.04252367 L5.32572939,1.43715887 C5.55905369,0.976294273 6.23455811,0.976294273 6.4678824,1.432367 Z" id="Stroke-1-Copy" stroke="#22BFDE" stroke-width="3" fill="#22BFDE"></path>
                    </g>
                </g>
                <g id="Group-7-Copy-5" transform="translate(80.000000, 0.000000)">
                    <g id="Group-3">
                        <path d="M6.48831899,0.341457912 L7.78153091,2.94682271 C7.87121548,3.13032293 8.04605796,3.25237453 8.2440996,3.28084384 L11.1329613,3.6991454 C11.6379675,3.77440586 11.8408187,4.39030136 11.4727442,4.74799993 L9.38170737,6.77467665 C9.23543948,6.91589571 9.16923698,7.11799963 9.20233823,7.32038543 L9.69319859,10.184229 C9.77835649,10.6873748 9.24958531,11.0684689 8.80116245,10.8333857 L6.21926527,9.47897935 C6.03989613,9.38483332 5.82289907,9.38483332 5.64352993,9.47897935 L3.06615942,10.8378957 C2.61292698,11.0729789 2.08443871,10.6921666 2.17412328,10.1890209 L2.66498364,7.32489542 C2.69808488,7.12730149 2.63188239,6.92068758 2.48561449,6.77946852 L0.394577672,4.75250992 C0.026503135,4.3953751 0.22935436,3.77891585 0.734360546,3.70393727 L3.62322227,3.28535383 C3.82607349,3.25716639 3.99610639,3.13032293 4.08579096,2.95161458 L5.37900288,0.346249777 C5.6056191,-0.114614818 6.26170277,-0.114614818 6.48831899,0.341457912 Z" id="Stroke-1" stroke="#000000" stroke-width="2" fill="#000000"></path>
                        <path d="M6.4678824,1.432367 L7.79937473,4.0377318 C7.89171405,4.22123202 8.07173205,4.34328362 8.27563593,4.37175293 L11.2500109,4.79005449 C11.7699658,4.86531495 11.9788216,5.48121045 11.5998517,5.83890902 L9.44691806,7.86558574 C9.29632048,8.0068048 9.22815833,8.20890872 9.26223941,8.41129452 L9.76762973,11.2751381 C9.8553084,11.7782839 9.31088505,12.159378 8.84918841,11.9242948 L6.19086442,10.5698884 C6.00618576,10.4757424 5.78276537,10.4757424 5.59808672,10.5698884 L2.94442339,11.9288048 C2.4777748,12.163888 1.93364273,11.7830757 2.02598206,11.27993 L2.53137239,8.41580451 C2.56545346,8.21821058 2.49729131,8.01159667 2.34669373,7.87037761 L0.193760068,5.84341901 C-0.185209855,5.48628419 0.0236459749,4.86982494 0.543600864,4.79484636 L3.51797587,4.37626292 C3.7268317,4.34807548 3.90189774,4.22123202 3.99423707,4.04252367 L5.32572939,1.43715887 C5.55905369,0.976294273 6.23455811,0.976294273 6.4678824,1.432367 Z" id="Stroke-1-Copy" stroke="#22BFDE" stroke-width="3" fill="#22BFDE"></path>
                    </g>
                </g>
            </g>
        </g>
    </g>
</svg>