<?xml version="1.0" encoding="UTF-8"?>
<svg width="22px" height="25px" viewBox="0 0 22 25" version="1.1" xmlns="http://www.w3.org/2000/svg" xmlns:xlink="http://www.w3.org/1999/xlink">
    <!-- Generator: Sketch 59.1 (86144) - https://sketch.com -->
    <title>Icons/Bookmark/Filled@1.5x</title>
    <desc>Created with Sketch.</desc>
    <g id="Page-1" stroke="none" stroke-width="1" fill="none" fill-rule="evenodd">
        <g id="Icons/Bookmark/Filled" transform="translate(-7.500000, -7.000000)">
            <g id="2518772251551938529" stroke-width="1" fill-rule="evenodd">
                <polygon id="Path" points="0 0 37 0 37 37 0 37"></polygon>
            </g>
            <path d="M27.8947368,7 L9.10526316,7 C8.50294735,7.01635362 8.01913546,7.42983086 8,7.94458438 L8,31.0554156 C8.00703741,31.3914022 8.21581129,31.700669 8.55263158,31.8740554 C8.89822958,32.0307898 9.31229674,32.0307898 9.65789474,31.8740554 L18.5,27.4345088 L27.3421053,31.8740554 C27.5138219,31.948963 27.7021777,31.9918892 27.8947368,32 C28.0865043,31.987731 28.2739156,31.94502 28.4473684,31.8740554 C28.7841887,31.700669 28.9929626,31.3914022 29,31.0554156 L29,7.94458438 C28.9808645,7.42983086 28.4970526,7.01635362 27.8947368,7 Z" id="Path" fill="#22BFDE" fill-rule="nonzero"></path>
            <g id="noun_bookmark_1533173" stroke-width="1" fill-rule="evenodd" transform="translate(8.000000, 8.000000)" fill="#000000">
                <path d="M19.5517241,0 L1.0862069,0 C0.494275845,0.0155817291 0.0188055351,0.409542843 3.55271368e-15,0.9 L3.55271368e-15,22.92 C0.00691607504,23.240128 0.212090403,23.5347974 0.543103448,23.7 C0.882742861,23.8493365 1.28967093,23.8493365 1.62931034,23.7 L10.3189655,19.47 L19.0086207,23.7 C19.1773767,23.7713719 19.362485,23.812272 19.5517241,23.82 C19.7401853,23.8083101 19.9243654,23.7676151 20.0948276,23.7 C20.4258406,23.5347974 20.631015,23.240128 20.637931,22.92 L20.637931,0.9 C20.6191255,0.409542843 20.1436552,0.0155817291 19.5517241,0 Z" id="Path" fill-rule="nonzero"></path>
            </g>
        </g>
    </g>
</svg>