<?xml version="1.0" encoding="UTF-8"?>
<svg width="26px" height="26px" viewBox="0 0 26 26" version="1.1" xmlns="http://www.w3.org/2000/svg" xmlns:xlink="http://www.w3.org/1999/xlink">
    <!-- Generator: Sketch 59.1 (86144) - https://sketch.com -->
    <title>Icons/filter@1.5x</title>
    <desc>Created with Sketch.</desc>
    <g id="Page-1" stroke="none" stroke-width="1" fill="none" fill-rule="evenodd">
        <g id="Icons/filter" transform="translate(-9.000000, -9.000000)">
            <g id="Group-13" transform="translate(9.261538, 9.261538)">
                <g id="noun_filter_1051169" transform="translate(1.157692, 0.000000)" fill="#22BFDE">
                    <g id="Group">
                        <path d="M0.328494522,0.416882675 C0.236267243,0.608662278 0.253656196,0.838949287 0.373494113,1.01282546 L9.1758756,13.7784532 L9.1758756,20.5985409 C9.17587929,20.7724306 9.25071689,20.9368695 9.37923081,21.0453685 L14.2550449,25.161282 C14.4174235,25.298248 14.6396458,25.3247651 14.8268089,25.2295089 C15.0139719,25.1342527 15.1329941,24.93406 15.1330453,24.7144258 L15.1330453,13.7784532 L23.9380443,1.01282546 C24.0578734,0.838962163 24.0752693,0.60869508 23.9830629,0.416922121 C23.8908565,0.225149162 23.7046549,0.104257867 23.5011957,0.104257867 L0.810426485,0.104257867 C0.606952215,0.104257867 0.420721802,0.225103071 0.328494522,0.416882675 Z M22.4376496,1.24766321 L14.1555189,13.2551893 C14.0880486,13.353026 14.0516929,13.4709846 14.0516897,13.5920699 L14.0516897,23.526415 L10.2572312,20.3233587 L10.2572312,13.5920699 C10.2572523,13.4709944 10.2209262,13.3530368 10.1534858,13.2551893 L1.87388881,1.24766321 L22.4376496,1.24766321 Z" id="Shape"></path>
                    </g>
                </g>
                <g id="noun_filter_1051169" fill="#000000">
                    <g id="Group">
                        <path d="M0.328494522,0.416882675 C0.236267243,0.608662278 0.253656196,0.838949287 0.373494113,1.01282546 L9.1758756,13.7784532 L9.1758756,20.5985409 C9.17587929,20.7724306 9.25071689,20.9368695 9.37923081,21.0453685 L14.2550449,25.161282 C14.4174235,25.298248 14.6396458,25.3247651 14.8268089,25.2295089 C15.0139719,25.1342527 15.1329941,24.93406 15.1330453,24.7144258 L15.1330453,13.7784532 L23.9380443,1.01282546 C24.0578734,0.838962163 24.0752693,0.60869508 23.9830629,0.416922121 C23.8908565,0.225149162 23.7046549,0.104257867 23.5011957,0.104257867 L0.810426485,0.104257867 C0.606952215,0.104257867 0.420721802,0.225103071 0.328494522,0.416882675 Z M22.4376496,1.24766321 L14.1555189,13.2551893 C14.0880486,13.353026 14.0516929,13.4709846 14.0516897,13.5920699 L14.0516897,23.526415 L10.2572312,20.3233587 L10.2572312,13.5920699 C10.2572523,13.4709944 10.2209262,13.3530368 10.1534858,13.2551893 L1.87388881,1.24766321 L22.4376496,1.24766321 Z" id="Shape"></path>
                    </g>
                </g>
            </g>
        </g>
    </g>
</svg>