<?xml version="1.0" encoding="UTF-8"?>
<svg width="23px" height="20px" viewBox="0 0 23 20" version="1.1" xmlns="http://www.w3.org/2000/svg" xmlns:xlink="http://www.w3.org/1999/xlink">
    <!-- Generator: Sketch 59.1 (86144) - https://sketch.com -->
    <title>Icons/Language@1.5x</title>
    <desc>Created with Sketch.</desc>
    <g id="Page-1" stroke="none" stroke-width="1" fill="none" fill-rule="evenodd">
        <g id="Icons/Language" transform="translate(-8.000000, -9.000000)">
            <g id="Group-15" transform="translate(8.000000, 9.000000)">
                <g id="Group-11" transform="translate(6.000000, 3.000000)" fill-rule="nonzero">
                    <g id="noun_Globe_1977475">
                        <path d="M9.90222677,2.14705389 C8.898084,0.844409418 7.29850516,0 5.5,0 C3.72029368,0 2.13611475,0.827425166 1.13019562,2.10692041 C1.12472663,2.11233687 1.12072627,2.11871958 1.11581676,2.12472123 C0.416147875,3.02247867 0,4.14037838 0,5.35135135 C0,6.55164111 0.408356988,7.66085816 1.09687806,8.55454645 C1.09711585,8.55479141 1.09726971,8.55510442 1.09750749,8.55533578 C2.10162226,9.85817078 3.701341,10.7027027 5.5,10.7027027 C7.2831192,10.7027027 8.87008157,9.87217465 9.87570698,8.58847418 C9.88278452,8.58083943 9.88920465,8.57301415 9.89519119,8.56437229 C10.588384,7.66895562 11,6.55611852 11,5.35135135 C11,4.1513746 10.5918668,3.04240254 9.90366745,2.14882309 C9.90313594,2.14826513 9.90277228,2.14759826 9.90222677,2.14705389 Z M3.95504125,0.682487293 C3.50679269,1.11285071 3.13053638,1.72755062 2.85840097,2.47140175 C2.46335982,2.38400353 2.07083637,2.27717138 1.68208948,2.15306919 C2.28039297,1.47787641 3.06353761,0.962428322 3.95504125,0.682487293 Z M1.38252512,2.52586571 C1.82319259,2.67240948 2.26927312,2.7961034 2.71844483,2.89677057 C2.52115504,3.5668599 2.40320078,4.32177528 2.38480759,5.12837838 L0.464152013,5.12837838 C0.508827206,4.16213947 0.842646292,3.26846478 1.38252512,2.52586571 Z M0.464152013,5.57432432 L2.38480759,5.57432432 C2.40266927,6.35709773 2.51406352,7.09138159 2.70094681,7.74652801 C2.23808161,7.84692299 1.78748322,7.97727183 1.35034052,8.13283847 C0.829190565,7.39908539 0.507946015,6.52144232 0.464152013,5.57432432 Z M1.64229583,8.50494096 C2.0302035,8.37301348 2.42876943,8.26167669 2.83733622,8.17441457 C3.11095428,8.94402788 3.49532317,9.57884217 3.95504125,10.0202154 C3.04382959,9.7340822 2.24541091,9.20224865 1.64229583,8.50494096 Z M5.27083333,10.2373501 C4.44799295,10.1071645 3.73082607,9.28443457 3.29283015,8.08625422 C3.93649419,7.97640084 4.59950255,7.92196408 5.27083333,7.91954163 L5.27083333,10.2373501 Z M5.27083333,7.47396315 C4.55187606,7.47646725 3.84220632,7.53761333 3.15344746,7.65872152 C2.9715716,7.03223605 2.86133829,6.32507531 2.84302902,5.57432432 L5.27083333,5.57432432 L5.27083333,7.47396315 Z M5.27083333,5.12837838 L2.84302902,5.12837838 C2.86186982,4.35577103 2.97803369,3.62931246 3.16947682,2.98946278 C3.86915971,3.12193463 4.57282893,3.1997656 5.27083333,3.22162195 L5.27083333,5.12837838 Z M5.27083333,2.7756488 C4.62083309,2.75450012 3.96553167,2.68363706 3.31325149,2.56295075 C3.75289789,1.3940574 4.4604136,0.593578447 5.27083333,0.465352644 L5.27083333,2.7756488 Z M9.35764821,2.19769369 C8.96974054,2.32959395 8.57118861,2.44093073 8.16262182,2.52816565 C7.88901774,1.75862039 7.50466283,1.12383331 7.04495875,0.68248727 C7.95614243,0.968620504 8.75453313,1.50041323 9.35764821,2.19769369 Z M5.72916667,0.465352644 C6.55197906,0.595538157 7.26911799,1.41820011 7.70711391,2.61629878 C7.06344987,2.72612494 6.40049745,2.78054809 5.72916667,2.78297054 L5.72916667,0.465352644 Z M5.72916667,3.22944723 C6.44809596,3.22694313 7.15783564,3.16536154 7.84663646,3.04426697 C8.02847036,3.67068438 8.13866171,4.37773625 8.15697098,5.12837836 L5.72916667,5.12837836 L5.72916667,3.22944723 Z M5.72916667,5.57432432 L8.15697098,5.57432432 C8.13813018,6.3468364 8.02199427,7.07321331 7.83059312,7.71300857 C7.13085429,7.58050949 6.42718505,7.50311403 5.72916667,7.48124406 L5.72916667,5.57432432 Z M5.72916667,10.2373501 L5.72916667,7.926877 C6.37918091,7.94801207 7.03449631,8.01887514 7.68680445,8.13958864 C7.24717203,9.30857726 6.53961435,10.1091243 5.72916667,10.2373501 Z M7.04495875,10.0202154 C7.49323527,9.58982477 7.86950558,8.97508403 8.14165497,8.23116487 C8.53669612,8.3185767 8.92920559,8.42543607 9.31795249,8.54957911 C8.71963501,9.22478546 7.93649037,9.74026078 7.04495875,10.0202154 Z M9.61757278,8.17671451 C9.17689133,8.03017075 8.73082478,7.90625907 8.28165307,7.8055783 C8.47887294,7.13557062 8.59679922,6.38079132 8.61519241,5.57432432 L10.535848,5.57432432 C10.4911728,6.54050878 10.1573957,7.43412905 9.61757278,8.17671451 Z M8.61519241,5.12837838 C8.59733073,4.3453464 8.48583858,3.61085839 8.29885737,2.95553507 C8.76173655,2.85515369 9.21248882,2.72529479 9.64958954,2.56978258 C10.1707815,3.30356289 10.492054,4.18121956 10.535848,5.12837838 L8.61519241,5.12837838 Z" id="Shape" fill="#22BFDE"></path>
                        <path d="M9.90222677,2.44435119 C8.898084,1.14170672 7.29850516,0.297297297 5.5,0.297297297 C3.72029368,0.297297297 2.13611475,1.12472246 1.13019562,2.40421771 C1.12472663,2.40963416 1.12072627,2.41601688 1.11581676,2.42201853 C0.416147875,3.31977597 0,4.43767568 0,5.64864865 C0,6.84893841 0.408356988,7.95815545 1.09687806,8.85184375 C1.09711585,8.85208871 1.09726971,8.85240172 1.09750749,8.85263308 C2.10162226,10.1554681 3.701341,11 5.5,11 C7.2831192,11 8.87008157,10.1694719 9.87570698,8.88577147 C9.88278452,8.87813672 9.88920465,8.87031144 9.89519119,8.86166959 C10.588384,7.96625292 11,6.85341581 11,5.64864865 C11,4.4486719 10.5918668,3.33969983 9.90366745,2.44612039 C9.90313594,2.44556242 9.90277228,2.44489556 9.90222677,2.44435119 Z M3.95504125,0.97978459 C3.50679269,1.410148 3.13053638,2.02484792 2.85840097,2.76869905 C2.46335982,2.68130082 2.07083637,2.57446867 1.68208948,2.45036649 C2.28039297,1.77517371 3.06353761,1.25972562 3.95504125,0.97978459 Z M1.38252512,2.82316301 C1.82319259,2.96970678 2.26927312,3.0934007 2.71844483,3.19406787 C2.52115504,3.86415719 2.40320078,4.61907257 2.38480759,5.42567568 L0.464152013,5.42567568 C0.508827206,4.45943677 0.842646292,3.56576207 1.38252512,2.82316301 Z M0.464152013,5.87162162 L2.38480759,5.87162162 C2.40266927,6.65439502 2.51406352,7.38867889 2.70094681,8.04382531 C2.23808161,8.14422029 1.78748322,8.27456913 1.35034052,8.43013577 C0.829190565,7.69638269 0.507946015,6.81873962 0.464152013,5.87162162 Z M1.64229583,8.80223826 C2.0302035,8.67031077 2.42876943,8.55897399 2.83733622,8.47171187 C3.11095428,9.24132518 3.49532317,9.87613947 3.95504125,10.3175127 C3.04382959,10.0313795 2.24541091,9.49954594 1.64229583,8.80223826 Z M5.27083333,10.5346474 C4.44799295,10.4044618 3.73082607,9.58173186 3.29283015,8.38355152 C3.93649419,8.27369813 4.59950255,8.21926138 5.27083333,8.21683893 L5.27083333,10.5346474 Z M5.27083333,7.77126045 C4.55187606,7.77376454 3.84220632,7.83491062 3.15344746,7.95601882 C2.9715716,7.32953335 2.86133829,6.6223726 2.84302902,5.87162162 L5.27083333,5.87162162 L5.27083333,7.77126045 Z M5.27083333,5.42567568 L2.84302902,5.42567568 C2.86186982,4.65306833 2.97803369,3.92660976 3.16947682,3.28676007 C3.86915971,3.41923193 4.57282893,3.4970629 5.27083333,3.51891924 L5.27083333,5.42567568 Z M5.27083333,3.07294609 C4.62083309,3.05179742 3.96553167,2.98093436 3.31325149,2.86024805 C3.75289789,1.69135469 4.4604136,0.890875745 5.27083333,0.762649941 L5.27083333,3.07294609 Z M9.35764821,2.49499098 C8.96974054,2.62689125 8.57118861,2.73822803 8.16262182,2.82546295 C7.88901774,2.05591769 7.50466283,1.4211306 7.04495875,0.979784568 C7.95614243,1.2659178 8.75453313,1.79771053 9.35764821,2.49499098 Z M5.72916667,0.762649941 C6.55197906,0.892835454 7.26911799,1.7154974 7.70711391,2.91359607 C7.06344987,3.02342224 6.40049745,3.07784539 5.72916667,3.08026784 L5.72916667,0.762649941 Z M5.72916667,3.52674452 C6.44809596,3.52424043 7.15783564,3.46265884 7.84663646,3.34156427 C8.02847036,3.96798168 8.13866171,4.67503355 8.15697098,5.42567565 L5.72916667,5.42567565 L5.72916667,3.52674452 Z M5.72916667,5.87162162 L8.15697098,5.87162162 C8.13813018,6.64413369 8.02199427,7.37051061 7.83059312,8.01030587 C7.13085429,7.87780679 6.42718505,7.80041133 5.72916667,7.77854136 L5.72916667,5.87162162 Z M5.72916667,10.5346474 L5.72916667,8.2241743 C6.37918091,8.24530937 7.03449631,8.31617243 7.68680445,8.43688594 C7.24717203,9.60587455 6.53961435,10.4064216 5.72916667,10.5346474 Z M7.04495875,10.3175127 C7.49323527,9.88712207 7.86950558,9.27238132 8.14165497,8.52846217 C8.53669612,8.615874 8.92920559,8.72273337 9.31795249,8.8468764 C8.71963501,9.52208276 7.93649037,10.0375581 7.04495875,10.3175127 Z M9.61757278,8.47401181 C9.17689133,8.32746804 8.73082478,8.20355636 8.28165307,8.10287559 C8.47887294,7.43286792 8.59679922,6.67808862 8.61519241,5.87162162 L10.535848,5.87162162 C10.4911728,6.83780608 10.1573957,7.73142635 9.61757278,8.47401181 Z M8.61519241,5.42567568 C8.59733073,4.64264369 8.48583858,3.90815569 8.29885737,3.25283237 C8.76173655,3.15245099 9.21248882,3.02259209 9.64958954,2.86707988 C10.1707815,3.60086018 10.492054,4.47851686 10.535848,5.42567568 L8.61519241,5.42567568 Z" id="Shape" fill="#000000"></path>
                    </g>
                </g>
                <path d="M22.4210526,0 L1.57894737,0 C1.26052632,0 1,0.259090909 1,0.575757576 L1,14.3939394 C1,14.7106061 1.26052632,14.969697 1.57894737,14.969697 L6.21052632,14.969697 L6.21052632,18.4242424 C6.21052632,18.6545455 6.35526316,18.8560606 6.55789474,18.9424242 C6.64473684,19 6.70263158,19 6.78947368,19 C6.93421053,19 7.07894737,18.9424242 7.19473684,18.8272727 L11.1315789,14.969697 L22.4210526,14.969697 C22.7394737,14.969697 23,14.7106061 23,14.3939394 L23,0.575757576 C23,0.259090909 22.7394737,0 22.4210526,0 Z M21.8421053,13.8181818 L10.9,13.8181818 C10.7552632,13.8181818 10.6105263,13.8757576 10.4947368,13.9909091 L7.36842105,17.0424242 L7.36842105,14.3939394 C7.36842105,14.0772727 7.10789474,13.8181818 6.78947368,13.8181818 L2.15789474,13.8181818 L2.15789474,1.15151515 L21.8421053,1.15151515 L21.8421053,13.8181818 Z" id="Shape" fill="#22BFDE" fill-rule="nonzero"></path>
                <path d="M21.4210526,1 L0.578947368,1 C0.260526316,1 0,1.25909091 0,1.57575758 L0,15.3939394 C0,15.7106061 0.260526316,15.969697 0.578947368,15.969697 L5.21052632,15.969697 L5.21052632,19.4242424 C5.21052632,19.6545455 5.35526316,19.8560606 5.55789474,19.9424242 C5.64473684,20 5.70263158,20 5.78947368,20 C5.93421053,20 6.07894737,19.9424242 6.19473684,19.8272727 L10.1315789,15.969697 L21.4210526,15.969697 C21.7394737,15.969697 22,15.7106061 22,15.3939394 L22,1.57575758 C22,1.25909091 21.7394737,1 21.4210526,1 Z M20.8421053,14.8181818 L9.9,14.8181818 C9.75526316,14.8181818 9.61052632,14.8757576 9.49473684,14.9909091 L6.36842105,18.0424242 L6.36842105,15.3939394 C6.36842105,15.0772727 6.10789474,14.8181818 5.78947368,14.8181818 L1.15789474,14.8181818 L1.15789474,2.15151515 L20.8421053,2.15151515 L20.8421053,14.8181818 Z" id="Shape" fill="#000000" fill-rule="nonzero"></path>
            </g>
        </g>
    </g>
</svg>