<?xml version="1.0" encoding="UTF-8"?>
<svg width="28px" height="27px" viewBox="0 0 28 27" version="1.1" xmlns="http://www.w3.org/2000/svg" xmlns:xlink="http://www.w3.org/1999/xlink">
    <!-- Generator: Sketch 59.1 (86144) - https://sketch.com -->
    <title>Icons/User@1.5x</title>
    <desc>Created with Sketch.</desc>
    <g id="Mobile" stroke="none" stroke-width="1" fill="none" fill-rule="evenodd">
        <g id="Tutorial-Profile" transform="translate(-22.000000, -1103.000000)">
            <g id="Icons/Avatar" transform="translate(21.000000, 1101.000000)">
                <g id="noun_Octopus_2602069-(1)-Copy" stroke-width="1" fill-rule="evenodd" transform="translate(5.963017, 6.595041)">
                    <g id="Group">
                        <g id="Group-3" transform="translate(0.402115, 0.395461)">
                            <path d="M17.4179046,12.3819203 C17.8864273,12.2049344 18.024076,11.7784172 17.9523436,11.4344517 C17.8812574,11.0911115 17.6033749,10.76153 17.0818607,10.76153 C16.860201,10.7665332 15.1528395,10.871599 14.8975754,10.8916115 C14.5007851,10.9241319 14.1382455,10.885983 13.7989704,10.8184407 C15.1308674,10.3619046 17.2027072,9.52513035 17.752656,8.02043756 C18.0828837,7.1192479 18.037647,6.00792659 17.6201771,4.71836859 C17.4696036,4.25370245 17.0398552,4.0961037 16.678608,4.14425888 C16.2475671,4.20304571 15.9386652,4.53700496 15.9289716,4.95726828 C15.9199243,5.32187173 15.9037684,5.69835762 15.8779188,6.07359273 C15.7053732,8.51512251 12.5594854,9.26121499 11.5675097,9.43569931 C11.6967574,8.62206452 12.2395975,7.90661624 12.4922767,7.6108059 C12.5497919,7.5495175 12.6066608,7.48822909 12.6654685,7.41943599 C12.6783933,7.40630276 12.6880869,7.39316953 12.6971342,7.37816013 C13.3562972,6.56640151 13.7039734,5.59391718 13.7039734,4.56389681 C13.7039734,3.19679022 13.0784148,1.91348615 11.9888571,1.0423153 C10.8992994,0.171769847 9.46788168,-0.177824197 8.05068121,0.0860911635 C6.17012792,0.435685207 4.68054877,1.90097831 4.34450488,3.73212565 C4.10087306,5.05920715 4.43885566,6.36377455 5.29770629,7.40567737 L5.29770629,7.40567737 C5.30222996,7.41193129 5.30675362,7.41818521 5.31127729,7.42318834 C5.36362259,7.48572753 5.41855284,7.54513975 5.48640786,7.61768521 C5.73262463,7.90724163 6.27481851,8.62206452 6.40406616,9.43507392 C5.41209046,9.2599642 2.26555645,8.51449712 2.09365707,6.07234195 C2.06651507,5.69773223 2.05165159,5.32124634 2.04195801,4.95851906 C2.0316182,4.53888113 1.72336256,4.20429649 1.29232165,4.14550966 C0.929135756,4.09735449 0.500033562,4.25495323 0.349460051,4.71961938 C-0.067363617,6.00980276 -0.111307818,7.1198733 0.217627449,8.01981217 C0.76951491,9.52638113 2.84393967,10.3637808 4.1758367,10.8196915 C3.83591538,10.8878592 3.47143701,10.9253827 3.07335425,10.8916115 C2.81744391,10.871599 1.10814375,10.7665332 0.888422747,10.76153 C0.880021649,10.76153 0.872266791,10.76153 0.863219455,10.76153 C0.376602057,10.76153 0.0890260382,11.0967401 0.0179398313,11.4344517 C-0.0531463756,11.7784172 0.0845023705,12.204309 0.552378859,12.3819203 C1.14821052,12.6070614 2.62227996,12.7496507 3.83720786,12.7496507 C4.17195927,12.7496507 4.4834461,12.7377683 4.75486616,12.7152542 C4.49960206,12.8515896 4.20879485,12.973541 3.87145848,13.0704767 C3.42296914,13.1993075 2.26038654,13.2318278 1.49136303,13.2524658 C0.936244377,13.2681006 0.749481524,13.2749799 0.65900817,13.297494 C0.17303701,13.4200708 -0.0150183192,13.8272009 0.0140624018,14.1755441 C0.0431431228,14.5257636 0.297114753,14.8984971 0.797949392,14.9441507 C0.967910051,14.9597855 1.2677646,14.9691664 1.64387525,14.9691664 C3.00808419,14.9691664 5.37202369,14.8434626 6.12230629,14.41632 C6.2425066,14.3481523 6.34525848,14.2612228 6.45770394,14.1836742 C6.17852902,14.5539062 5.80241836,14.9091288 5.26539438,15.2399611 C4.78847055,15.5338952 3.99359751,15.6195739 3.51990488,15.6702307 C3.22328152,15.702751 3.08886397,15.7183858 2.99515942,15.7621633 C2.60677024,15.9447777 2.42129986,16.3594125 2.54343889,16.7709203 C2.65653058,17.1505332 2.98158842,17.3906836 3.36803889,17.3906836 C3.40099704,17.3906836 3.43395519,17.3888075 3.4662671,17.3856805 C3.60326961,17.3719219 3.76030551,17.3619156 3.93220488,17.351284 C4.85050942,17.2943733 6.23862917,17.2080692 7.33723419,16.3231398 C8.13275347,15.6839893 8.69110331,14.5013733 8.98578795,13.4269501 C9.28047259,14.5013733 9.83817619,15.6833639 10.6336955,16.3231398 C11.7329467,17.2080692 13.1210665,17.2937479 14.0400173,17.351284 C14.2119166,17.3619156 14.3689525,17.3712965 14.5053088,17.3856805 C14.5389132,17.3888075 14.5718713,17.3906836 14.603537,17.3906836 C14.99128,17.3906836 15.3163378,17.1505332 15.428137,16.7702949 C15.550276,16.3594125 15.3648057,15.9447777 14.9770627,15.7621633 C14.8833582,15.7183858 14.7489406,15.7021256 14.4523173,15.6702307 C13.9786246,15.6195739 13.1837516,15.5332698 12.7068278,15.2399611 C12.1710963,14.9097542 11.7956318,14.555157 11.5164569,14.1855504 C11.6276099,14.2624736 11.7297155,14.3487777 11.8486234,14.4169454 C12.1626952,14.5958075 12.7824376,14.737146 13.6904024,14.8353325 C13.7000959,14.8359579 13.708497,14.8365833 13.7175444,14.8365833 C13.8390372,14.8365833 13.9450202,14.7477777 13.9585912,14.6283278 C13.9728085,14.4994971 13.8771652,14.3831742 13.7446864,14.3687902 C12.6441427,14.2499658 12.2389513,14.0948686 12.0948401,14.0129423 C11.6612143,13.7665379 11.2863961,13.450715 10.9794329,13.0729783 C10.9703856,13.0617213 10.9581071,13.0554673 10.9477673,13.0467119 C10.8353218,12.6658482 10.770698,12.2762291 10.7241688,11.8803561 C10.7093053,11.7527761 10.5968599,11.6633451 10.4553337,11.6739767 C10.3228549,11.6889861 10.2265654,11.805309 10.2420751,11.9341398 C10.3926486,13.2130661 10.6873332,14.5532808 12.44704,15.6364595 C13.0189608,15.9885551 13.849377,16.0779861 14.3993257,16.1380238 C14.5460218,16.1530332 14.728261,16.1736711 14.7650966,16.1849282 C14.9809401,16.286867 15.0067897,16.4951225 14.9628455,16.642715 C14.9189013,16.7921836 14.7954698,16.9466554 14.5563616,16.920389 C14.413543,16.906005 14.2500447,16.8959987 14.0710367,16.8841162 C13.1643644,16.827831 11.9222945,16.7509078 10.9438898,15.9641648 C9.88082792,15.1092542 9.22877353,13.0248231 9.22877353,11.9066225 C9.22877353,11.7771664 9.12020551,11.6721006 8.98643419,11.6721006 C8.85266287,11.6721006 8.74409485,11.7771664 8.74409485,11.9066225 C8.74409485,13.0248231 8.09139422,15.1092542 7.02833231,15.9641648 C6.05122008,16.7509078 4.80915018,16.827831 3.90247792,16.8841162 C3.72346993,16.8959987 3.55997165,16.9053796 3.41650676,16.920389 C3.19937071,16.9447793 3.05461334,16.792809 3.0100229,16.642715 C2.96672494,16.4951225 2.99257447,16.286867 3.20066319,16.1880551 C3.24525362,16.1730457 3.42813905,16.1524078 3.57418889,16.1373984 C4.12413764,16.0773608 4.95455378,15.9885551 5.52647463,15.6358341 C7.28682761,14.55203 7.58086601,13.2124407 7.73079328,11.932889 C7.74501052,11.8046836 7.6500135,11.6877354 7.51688842,11.6733514 C7.38893325,11.6639705 7.26420927,11.7521507 7.24869955,11.8803561 C7.20281663,12.2756037 7.13819281,12.6652228 7.02574735,13.0460865 C7.0147613,13.0554673 7.00248278,13.0617213 6.9927892,13.0729783 C6.68582604,13.450715 6.31036162,13.7671633 5.87738199,14.0129423 C5.10835848,14.4507166 1.73628732,14.5589093 0.844478546,14.4782338 C0.608601587,14.4563451 0.510373374,14.2881147 0.498741085,14.138646 C0.48581632,13.9891774 0.554317574,13.8096899 0.778562245,13.7527793 C0.845771022,13.739646 1.19667839,13.7302651 1.50687275,13.7215097 C2.34892118,13.6983702 3.50116397,13.6664752 4.01039971,13.5201335 C4.87442024,13.2724783 5.478653,12.8803576 5.90840143,12.4394564 C5.92003372,12.4294501 5.92843482,12.418193 5.93812839,12.406936 C7.09424861,11.1899235 6.91265566,9.61456138 6.91007071,9.59267267 C6.90877823,9.58454257 6.90425456,9.57828866 6.90231585,9.57015856 C6.82153607,8.59454728 6.22311946,7.74589054 5.83408403,7.29060527 C5.79207855,7.24495167 5.74878058,7.19929806 5.69320409,7.13613348 C5.68803419,7.12800339 5.68286428,7.12112408 5.67704814,7.11361938 C4.90737839,6.17865856 4.60364641,5.00729963 4.82272118,3.81467737 C5.12451444,2.17364916 6.45835018,0.860326273 8.14373952,0.546379565 C9.41230519,0.309981446 10.7034892,0.62267737 11.6812477,1.40379179 C12.6596524,2.1855316 13.2205872,3.33750339 13.2205872,4.56389681 C13.2205872,5.49885762 12.9013455,6.38003474 12.2971127,7.11361938 C12.292589,7.11862251 12.2887116,7.12362565 12.2848342,7.12925417 C12.2370126,7.18679022 12.1853135,7.24182471 12.1129348,7.31999869 C11.7484564,7.74776671 11.1506861,8.59517267 11.0705525,9.57203474 C11.0686138,9.57953944 11.0640901,9.58516797 11.0634439,9.59267267 C11.060859,9.61456138 10.8786198,11.1880473 12.0328013,12.4050598 C12.0431411,12.4175677 12.0521884,12.4300755 12.0651132,12.4407072 C12.4948616,12.880983 13.0990944,13.2731037 13.9631149,13.5207589 C14.4723506,13.6671006 15.6245934,13.6989956 16.4666419,13.7221351 C16.77619,13.7308905 17.1270974,13.7402714 17.1904287,13.7527793 C17.419197,13.8103153 17.4870521,13.9898028 17.4741273,14.1392714 C17.4618488,14.2887401 17.3642668,14.4569705 17.1283898,14.4788592 C16.9952648,14.491367 16.8976828,14.6051883 16.9099613,14.7340191 C16.9215936,14.8553451 17.0275767,14.9466523 17.1510082,14.9466523 C17.158763,14.9466523 17.1658716,14.9460269 17.1736265,14.9454015 C17.6744611,14.8997479 17.9284328,14.526389 17.9575135,14.1767949 C17.9865942,13.8278263 17.7985389,13.4213216 17.3125677,13.2987448 C17.2220944,13.2762307 17.0346853,13.2693514 16.4802129,13.2537166 C15.7118356,13.2330786 14.549253,13.2005582 14.1001174,13.0717275 C13.7627811,12.9747918 13.4726201,12.8534658 13.2180022,12.716505 C13.4894223,12.7390191 13.8002629,12.7509015 14.134368,12.7509015 C15.3486497,12.7496507 16.8220729,12.6076868 17.4179046,12.3819203 Z M4.95713873,10.5839187 L4.81884375,10.5382651 C3.74221083,10.1849187 1.2205892,9.35564916 0.674517888,7.8634642 C0.381125725,7.06171185 0.427654878,6.05107862 0.812166634,4.85970715 C0.881960364,4.64394696 1.06355331,4.58641091 1.22446663,4.60955041 C1.37374767,4.63018834 1.55146319,4.73650496 1.55727933,4.96977612 C1.5669729,5.34000809 1.58312886,5.72399869 1.61027087,6.10423693 C1.79897243,8.78591718 4.91707196,9.63582471 6.15203325,9.86909587 C5.88772181,10.0892338 5.48511538,10.3706601 4.96360112,10.5870457 C4.96101616,10.5864203 4.95907745,10.5845441 4.95713873,10.5839187 Z M0.729448138,11.9447714 C0.508434659,11.8615943 0.463197982,11.6739767 0.493571179,11.5270097 C0.524590615,11.380668 0.646083405,11.2468341 0.877436696,11.2305739 C1.08940284,11.2355771 2.80128795,11.3406429 3.03328748,11.3594046 C4.41494485,11.470099 5.62276413,10.9141256 6.42474579,10.2605912 C6.37563168,10.7490222 6.19145378,11.4463341 5.62211789,12.0560912 C5.49545519,12.0998686 5.3655613,12.1411445 5.2285588,12.1749156 C4.28375848,12.410063 1.47003717,12.2255724 0.729448138,11.9447714 Z M16.361305,6.10486232 C16.388447,5.7227479 16.404603,5.33875731 16.4136503,4.96789994 C16.4194665,4.73525417 16.5965358,4.62893756 16.746463,4.60829963 C16.9054376,4.59016326 17.0876768,4.64269618 17.1581168,4.85783098 C17.543921,6.04857706 17.5904502,7.05983568 17.2964118,7.8634642 C16.7509867,9.35502377 14.2306575,10.183668 13.1540246,10.5376398 L13.0144372,10.5839187 C13.0131447,10.5845441 13.0124985,10.5857949 13.011206,10.5857949 C12.4890455,10.3694093 12.0857928,10.0886084 11.8208351,9.86909587 C13.0557964,9.6364501 16.1726035,8.78591718 16.361305,6.10486232 Z M12.7423709,12.1749156 C12.6079533,12.1417698 12.4799981,12.1011194 12.3546279,12.0579673 C11.7859383,11.4488357 11.6004679,10.7515238 11.5494151,10.2624673 C12.3526892,10.9160018 13.5611547,11.4707244 14.9389347,11.3594046 C15.1696417,11.3406429 16.8808806,11.2355771 17.0941392,11.2305739 C17.3313086,11.2293231 17.4476315,11.3794172 17.4780047,11.5270097 C17.5090242,11.6739767 17.4631412,11.8615943 17.2421278,11.9447714 C16.5002463,12.2255724 13.6891099,12.410063 12.7423709,12.1749156 Z" id="Shape" fill="#22B4DE" fill-rule="nonzero"></path>
                            <path d="M13.6563383,14.6100873 C14.8403367,14.6356972 16.024335,14.6613071 17.2083333,14.6869169" id="Path-5" stroke="#22B4DE" stroke-width="0.5" stroke-linecap="round"></path>
                        </g>
                    </g>
                </g>
                <g id="noun_Octopus_2602069-(1)-Copy-2" stroke-width="1" fill-rule="evenodd" transform="translate(5.963017, 7.007231)">
                    <g id="Group">
                        <g id="Group-3" transform="translate(0.402115, 0.395461)">
                            <path d="M17.4179046,12.3819203 C17.8864273,12.2049344 18.024076,11.7784172 17.9523436,11.4344517 C17.8812574,11.0911115 17.6033749,10.76153 17.0818607,10.76153 C16.860201,10.7665332 15.1528395,10.871599 14.8975754,10.8916115 C14.5007851,10.9241319 14.1382455,10.885983 13.7989704,10.8184407 C15.1308674,10.3619046 17.2027072,9.52513035 17.752656,8.02043756 C18.0828837,7.1192479 18.037647,6.00792659 17.6201771,4.71836859 C17.4696036,4.25370245 17.0398552,4.0961037 16.678608,4.14425888 C16.2475671,4.20304571 15.9386652,4.53700496 15.9289716,4.95726828 C15.9199243,5.32187173 15.9037684,5.69835762 15.8779188,6.07359273 C15.7053732,8.51512251 12.5594854,9.26121499 11.5675097,9.43569931 C11.6967574,8.62206452 12.2395975,7.90661624 12.4922767,7.6108059 C12.5497919,7.5495175 12.6066608,7.48822909 12.6654685,7.41943599 C12.6783933,7.40630276 12.6880869,7.39316953 12.6971342,7.37816013 C13.3562972,6.56640151 13.7039734,5.59391718 13.7039734,4.56389681 C13.7039734,3.19679022 13.0784148,1.91348615 11.9888571,1.0423153 C10.8992994,0.171769847 9.46788168,-0.177824197 8.05068121,0.0860911635 C6.17012792,0.435685207 4.68054877,1.90097831 4.34450488,3.73212565 C4.10087306,5.05920715 4.43885566,6.36377455 5.29770629,7.40567737 C5.30222996,7.41193129 5.30675362,7.41818521 5.31127729,7.42318834 C5.36362259,7.48572753 5.41855284,7.54513975 5.48640786,7.61768521 C5.73262463,7.90724163 6.27481851,8.62206452 6.40406616,9.43507392 C5.41209046,9.2599642 2.26555645,8.51449712 2.09365707,6.07234195 C2.06651507,5.69773223 2.05165159,5.32124634 2.04195801,4.95851906 C2.0316182,4.53888113 1.72336256,4.20429649 1.29232165,4.14550966 C0.929135756,4.09735449 0.500033562,4.25495323 0.349460051,4.71961938 C-0.067363617,6.00980276 -0.111307818,7.1198733 0.217627449,8.01981217 C0.76951491,9.52638113 2.84393967,10.3637808 4.1758367,10.8196915 C3.83591538,10.8878592 3.47143701,10.9253827 3.07335425,10.8916115 C2.81744391,10.871599 1.10814375,10.7665332 0.888422747,10.76153 C0.880021649,10.76153 0.872266791,10.76153 0.863219455,10.76153 C0.376602057,10.76153 0.0890260382,11.0967401 0.0179398313,11.4344517 C-0.0531463756,11.7784172 0.0845023705,12.204309 0.552378859,12.3819203 C1.14821052,12.6070614 2.62227996,12.7496507 3.83720786,12.7496507 C4.17195927,12.7496507 4.4834461,12.7377683 4.75486616,12.7152542 C4.49960206,12.8515896 4.20879485,12.973541 3.87145848,13.0704767 C3.42296914,13.1993075 2.26038654,13.2318278 1.49136303,13.2524658 C0.936244377,13.2681006 0.749481524,13.2749799 0.65900817,13.297494 C0.17303701,13.4200708 -0.0150183192,13.8272009 0.0140624018,14.1755441 C0.0431431228,14.5257636 0.297114753,14.8984971 0.797949392,14.9441507 C0.967910051,14.9597855 1.2677646,14.9691664 1.64387525,14.9691664 C3.00808419,14.9691664 5.37202369,14.8434626 6.12230629,14.41632 C6.2425066,14.3481523 6.34525848,14.2612228 6.45770394,14.1836742 C6.17852902,14.5539062 5.80241836,14.9091288 5.26539438,15.2399611 C4.78847055,15.5338952 3.99359751,15.6195739 3.51990488,15.6702307 C3.22328152,15.702751 3.08886397,15.7183858 2.99515942,15.7621633 C2.60677024,15.9447777 2.42129986,16.3594125 2.54343889,16.7709203 C2.65653058,17.1505332 2.98158842,17.3906836 3.36803889,17.3906836 C3.40099704,17.3906836 3.43395519,17.3888075 3.4662671,17.3856805 C3.60326961,17.3719219 3.76030551,17.3619156 3.93220488,17.351284 C4.85050942,17.2943733 6.23862917,17.2080692 7.33723419,16.3231398 C8.13275347,15.6839893 8.69110331,14.5013733 8.98578795,13.4269501 C9.28047259,14.5013733 9.83817619,15.6833639 10.6336955,16.3231398 C11.7329467,17.2080692 13.1210665,17.2937479 14.0400173,17.351284 C14.2119166,17.3619156 14.3689525,17.3712965 14.5053088,17.3856805 C14.5389132,17.3888075 14.5718713,17.3906836 14.603537,17.3906836 C14.99128,17.3906836 15.3163378,17.1505332 15.428137,16.7702949 C15.550276,16.3594125 15.3648057,15.9447777 14.9770627,15.7621633 C14.8833582,15.7183858 14.7489406,15.7021256 14.4523173,15.6702307 C13.9786246,15.6195739 13.1837516,15.5332698 12.7068278,15.2399611 C12.1710963,14.9097542 11.7956318,14.555157 11.5164569,14.1855504 C11.6276099,14.2624736 11.7297155,14.3487777 11.8486234,14.4169454 C12.1626952,14.5958075 12.7824376,14.737146 13.6904024,14.8353325 C13.7000959,14.8359579 13.708497,14.8365833 13.7175444,14.8365833 C13.8390372,14.8365833 13.9450202,14.7477777 13.9585912,14.6283278 C13.9728085,14.4994971 13.8771652,14.3831742 13.7446864,14.3687902 C12.6441427,14.2499658 12.2389513,14.0948686 12.0948401,14.0129423 C11.6612143,13.7665379 11.2863961,13.450715 10.9794329,13.0729783 C10.9703856,13.0617213 10.9581071,13.0554673 10.9477673,13.0467119 C10.8353218,12.6658482 10.770698,12.2762291 10.7241688,11.8803561 C10.7093053,11.7527761 10.5968599,11.6633451 10.4553337,11.6739767 C10.3228549,11.6889861 10.2265654,11.805309 10.2420751,11.9341398 C10.3926486,13.2130661 10.6873332,14.5532808 12.44704,15.6364595 C13.0189608,15.9885551 13.849377,16.0779861 14.3993257,16.1380238 C14.5460218,16.1530332 14.728261,16.1736711 14.7650966,16.1849282 C14.9809401,16.286867 15.0067897,16.4951225 14.9628455,16.642715 C14.9189013,16.7921836 14.7954698,16.9466554 14.5563616,16.920389 C14.413543,16.906005 14.2500447,16.8959987 14.0710367,16.8841162 C13.1643644,16.827831 11.9222945,16.7509078 10.9438898,15.9641648 C9.88082792,15.1092542 9.22877353,13.0248231 9.22877353,11.9066225 C9.22877353,11.7771664 9.12020551,11.6721006 8.98643419,11.6721006 C8.85266287,11.6721006 8.74409485,11.7771664 8.74409485,11.9066225 C8.74409485,13.0248231 8.09139422,15.1092542 7.02833231,15.9641648 C6.05122008,16.7509078 4.80915018,16.827831 3.90247792,16.8841162 C3.72346993,16.8959987 3.55997165,16.9053796 3.41650676,16.920389 C3.19937071,16.9447793 3.05461334,16.792809 3.0100229,16.642715 C2.96672494,16.4951225 2.99257447,16.286867 3.20066319,16.1880551 C3.24525362,16.1730457 3.42813905,16.1524078 3.57418889,16.1373984 C4.12413764,16.0773608 4.95455378,15.9885551 5.52647463,15.6358341 C7.28682761,14.55203 7.58086601,13.2124407 7.73079328,11.932889 C7.74501052,11.8046836 7.6500135,11.6877354 7.51688842,11.6733514 C7.38893325,11.6639705 7.26420927,11.7521507 7.24869955,11.8803561 C7.20281663,12.2756037 7.13819281,12.6652228 7.02574735,13.0460865 C7.0147613,13.0554673 7.00248278,13.0617213 6.9927892,13.0729783 C6.68582604,13.450715 6.31036162,13.7671633 5.87738199,14.0129423 C5.10835848,14.4507166 1.73628732,14.5589093 0.844478546,14.4782338 C0.608601587,14.4563451 0.510373374,14.2881147 0.498741085,14.138646 C0.48581632,13.9891774 0.554317574,13.8096899 0.778562245,13.7527793 C0.845771022,13.739646 1.19667839,13.7302651 1.50687275,13.7215097 C2.34892118,13.6983702 3.50116397,13.6664752 4.01039971,13.5201335 C4.87442024,13.2724783 5.478653,12.8803576 5.90840143,12.4394564 C5.92003372,12.4294501 5.92843482,12.418193 5.93812839,12.406936 C7.09424861,11.1899235 6.91265566,9.61456138 6.91007071,9.59267267 C6.90877823,9.58454257 6.90425456,9.57828866 6.90231585,9.57015856 C6.82153607,8.59454728 6.22311946,7.74589054 5.83408403,7.29060527 C5.79207855,7.24495167 5.74878058,7.19929806 5.69320409,7.13613348 C5.68803419,7.12800339 5.68286428,7.12112408 5.67704814,7.11361938 C4.90737839,6.17865856 4.60364641,5.00729963 4.82272118,3.81467737 C5.12451444,2.17364916 6.45835018,0.860326273 8.14373952,0.546379565 C9.41230519,0.309981446 10.7034892,0.62267737 11.6812477,1.40379179 C12.6596524,2.1855316 13.2205872,3.33750339 13.2205872,4.56389681 C13.2205872,5.49885762 12.9013455,6.38003474 12.2971127,7.11361938 C12.292589,7.11862251 12.2887116,7.12362565 12.2848342,7.12925417 C12.2370126,7.18679022 12.1853135,7.24182471 12.1129348,7.31999869 C11.7484564,7.74776671 11.1506861,8.59517267 11.0705525,9.57203474 C11.0686138,9.57953944 11.0640901,9.58516797 11.0634439,9.59267267 C11.060859,9.61456138 10.8786198,11.1880473 12.0328013,12.4050598 C12.0431411,12.4175677 12.0521884,12.4300755 12.0651132,12.4407072 C12.4948616,12.880983 13.0990944,13.2731037 13.9631149,13.5207589 C14.4723506,13.6671006 15.6245934,13.6989956 16.4666419,13.7221351 C16.77619,13.7308905 17.1270974,13.7402714 17.1904287,13.7527793 C17.419197,13.8103153 17.4870521,13.9898028 17.4741273,14.1392714 C17.4618488,14.2887401 17.3642668,14.4569705 17.1283898,14.4788592 C16.9952648,14.491367 16.8976828,14.6051883 16.9099613,14.7340191 C16.9215936,14.8553451 17.0275767,14.9466523 17.1510082,14.9466523 C17.158763,14.9466523 17.1658716,14.9460269 17.1736265,14.9454015 C17.6744611,14.8997479 17.9284328,14.526389 17.9575135,14.1767949 C17.9865942,13.8278263 17.7985389,13.4213216 17.3125677,13.2987448 C17.2220944,13.2762307 17.0346853,13.2693514 16.4802129,13.2537166 C15.7118356,13.2330786 14.549253,13.2005582 14.1001174,13.0717275 C13.7627811,12.9747918 13.4726201,12.8534658 13.2180022,12.716505 C13.4894223,12.7390191 13.8002629,12.7509015 14.134368,12.7509015 C15.3486497,12.7496507 16.8220729,12.6076868 17.4179046,12.3819203 Z M4.95713873,10.5839187 L4.81884375,10.5382651 C3.74221083,10.1849187 1.2205892,9.35564916 0.674517888,7.8634642 C0.381125725,7.06171185 0.427654878,6.05107862 0.812166634,4.85970715 C0.881960364,4.64394696 1.06355331,4.58641091 1.22446663,4.60955041 C1.37374767,4.63018834 1.55146319,4.73650496 1.55727933,4.96977612 C1.5669729,5.34000809 1.58312886,5.72399869 1.61027087,6.10423693 C1.79897243,8.78591718 4.91707196,9.63582471 6.15203325,9.86909587 C5.88772181,10.0892338 5.48511538,10.3706601 4.96360112,10.5870457 C4.96101616,10.5864203 4.95907745,10.5845441 4.95713873,10.5839187 Z M0.729448138,11.9447714 C0.508434659,11.8615943 0.463197982,11.6739767 0.493571179,11.5270097 C0.524590615,11.380668 0.646083405,11.2468341 0.877436696,11.2305739 C1.08940284,11.2355771 2.80128795,11.3406429 3.03328748,11.3594046 C4.41494485,11.470099 5.62276413,10.9141256 6.42474579,10.2605912 C6.37563168,10.7490222 6.19145378,11.4463341 5.62211789,12.0560912 C5.49545519,12.0998686 5.3655613,12.1411445 5.2285588,12.1749156 C4.28375848,12.410063 1.47003717,12.2255724 0.729448138,11.9447714 Z M16.361305,6.10486232 C16.388447,5.7227479 16.404603,5.33875731 16.4136503,4.96789994 C16.4194665,4.73525417 16.5965358,4.62893756 16.746463,4.60829963 C16.9054376,4.59016326 17.0876768,4.64269618 17.1581168,4.85783098 C17.543921,6.04857706 17.5904502,7.05983568 17.2964118,7.8634642 C16.7509867,9.35502377 14.2306575,10.183668 13.1540246,10.5376398 L13.0144372,10.5839187 C13.0131447,10.5845441 13.0124985,10.5857949 13.011206,10.5857949 C12.4890455,10.3694093 12.0857928,10.0886084 11.8208351,9.86909587 C13.0557964,9.6364501 16.1726035,8.78591718 16.361305,6.10486232 Z M12.7423709,12.1749156 C12.6079533,12.1417698 12.4799981,12.1011194 12.3546279,12.0579673 C11.7859383,11.4488357 11.6004679,10.7515238 11.5494151,10.2624673 C12.3526892,10.9160018 13.5611547,11.4707244 14.9389347,11.3594046 C15.1696417,11.3406429 16.8808806,11.2355771 17.0941392,11.2305739 C17.3313086,11.2293231 17.4476315,11.3794172 17.4780047,11.5270097 C17.5090242,11.6739767 17.4631412,11.8615943 17.2421278,11.9447714 C16.5002463,12.2255724 13.6891099,12.410063 12.7423709,12.1749156 Z" id="Shape" fill="#2C2C2C" fill-rule="nonzero"></path>
                            <path d="M13.6563383,14.6100873 C14.8403367,14.6356972 16.024335,14.6613071 17.2083333,14.6869169" id="Path-5" stroke="#2C2C2C" stroke-width="0.5" stroke-linecap="round"></path>
                        </g>
                    </g>
                </g>
                <path d="M14.4816116,11.7391736 C14.4299278,11.4300841 14.0683206,11.1969848 13.6375633,11.1950826 C13.204369,11.1964806 12.8391044,11.4287983 12.7821089,11.7391736 C12.7764871,11.7665027 12.7764871,11.7942824 12.7821089,11.8216116 C12.7765322,11.8434103 12.7765322,11.8657633 12.7821089,11.887562 L12.9874179,11.887562 C12.9818412,11.8657633 12.9818412,11.8434103 12.9874179,11.8216116 C12.9817962,11.7942824 12.9817962,11.7665027 12.9874179,11.7391736 C13.0300644,11.510063 13.3006028,11.3390738 13.6204542,11.3390738 C13.9403056,11.3390738 14.210844,11.510063 14.2534904,11.7391736 C14.2642636,11.7661013 14.2642636,11.7946838 14.2534904,11.8216116 C14.2590671,11.8434103 14.2590671,11.8657633 14.2534904,11.887562 L14.4587995,11.887562 C14.4643761,11.8657633 14.4643761,11.8434103 14.4587995,11.8216116 C14.4720946,11.7951174 14.4797851,11.7673255 14.4816116,11.7391736 Z" id="Path" stroke="#2C2C2C" stroke-width="0.5" fill="#2C2C2C" fill-rule="nonzero"></path>
                <path d="M17.8890496,11.7391736 C17.8373658,11.4300841 17.4757587,11.1969848 17.0450013,11.1950826 C16.611807,11.1964806 16.2465424,11.4287983 16.1895469,11.7391736 C16.1839251,11.7665027 16.1839251,11.7942824 16.1895469,11.8216116 C16.1839702,11.8434103 16.1839702,11.8657633 16.1895469,11.887562 L16.394856,11.887562 C16.3892793,11.8657633 16.3892793,11.8434103 16.394856,11.8216116 C16.3892342,11.7942824 16.3892342,11.7665027 16.394856,11.7391736 C16.4375024,11.510063 16.7080408,11.3390738 17.0278922,11.3390738 C17.3477436,11.3390738 17.618282,11.510063 17.6609284,11.7391736 C17.6717016,11.7661013 17.6717016,11.7946838 17.6609284,11.8216116 C17.6665051,11.8434103 17.6665051,11.8657633 17.6609284,11.887562 L17.8662375,11.887562 C17.8718142,11.8657633 17.8718142,11.8434103 17.8662375,11.8216116 C17.8795326,11.7951174 17.8872232,11.7673255 17.8890496,11.7391736 Z" id="Path" stroke="#2C2C2C" stroke-width="0.5" fill="#2C2C2C" fill-rule="nonzero"></path>
                <path d="M16.1853306,13.800124 C16.1336468,13.4910346 15.7720397,13.2579352 15.3412823,13.2560331 C14.908088,13.257431 14.5428234,13.4897487 14.4858279,13.800124 C14.4802061,13.8274531 14.4802061,13.8552328 14.4858279,13.882562 C14.4802512,13.9043607 14.4802512,13.9267137 14.4858279,13.9485124 L14.6911369,13.9485124 C14.6855603,13.9267137 14.6855603,13.9043607 14.6911369,13.882562 C14.6855152,13.8552328 14.6855152,13.8274531 14.6911369,13.800124 C14.7337834,13.5710134 15.0043218,13.4000242 15.3241732,13.4000242 C15.6440246,13.4000242 15.914563,13.5710134 15.9572094,13.800124 C15.9679826,13.8270517 15.9679826,13.8556342 15.9572094,13.882562 C15.9627861,13.9043607 15.9627861,13.9267137 15.9572094,13.9485124 L16.1625185,13.9485124 C16.1680951,13.9267137 16.1680951,13.9043607 16.1625185,13.882562 C16.1758136,13.8560678 16.1835041,13.8282759 16.1853306,13.800124 Z" id="Path-Copy" stroke="#2C2C2C" stroke-width="0.5" fill="#2C2C2C" fill-rule="nonzero" transform="translate(15.333471, 13.602273) scale(-1, -1) translate(-15.333471, -13.602273) "></path>
                <ellipse id="Oval" stroke="#0E0E0E" stroke-width="1.20909091" cx="15.3334711" cy="15.6632231" rx="12.7778926" ry="12.3657025"></ellipse>
            </g>
        </g>
    </g>
</svg>