<?xml version="1.0" encoding="UTF-8"?>
<svg width="108px" height="113px" viewBox="0 0 108 113" version="1.1" xmlns="http://www.w3.org/2000/svg" xmlns:xlink="http://www.w3.org/1999/xlink">
    <!-- Generator: Sketch 59.1 (86144) - https://sketch.com -->
    <title>Website icon@1.5x</title>
    <desc>Created with Sketch.</desc>
    <g id="Mobile" stroke="none" stroke-width="1" fill="none" fill-rule="evenodd">
        <g id="Create-Tutorial-" transform="translate(-134.000000, -2302.000000)">
            <g id="Website-icon" transform="translate(134.000000, 2302.000000)">
                <polyline id="Fill-4" fill="#2A2931" points="100.768626 79.5485413 100.768626 79.5485413 100.468634 79.3916356 54 55 69.7998512 110.986518 80.3820812 95.7191636 94.450748 113 102.677742 106.478658 91.0330771 92.1764861 91.0339367 92.1764861 88.6090751 89.1978212 106 82.2948161 100.768626 79.5485413"></polyline>
                <path d="M12.5791588,73.8890685 L34.8522384,73.8890685 C36.230237,83.295429 38.5916645,91.7334253 41.9048525,97.7377918 C29.0586529,94.2849207 18.4155393,85.4780641 12.5791588,73.8890685 Z M7.74161337,53.4983041 C7.74161337,49.0872442 8.3732674,44.8177928 9.55526497,40.778985 L33.9646704,40.778985 C33.6026248,44.9534655 33.4186063,49.2297006 33.4186063,53.4983041 C33.4186063,57.7702994 33.6026248,62.0465345 33.9646704,66.2201671 L9.55526497,66.2201671 C8.3732674,62.1788154 7.74161337,57.9119078 7.74161337,53.4983041 Z M41.9048525,9.26136021 C38.5916645,15.2657268 36.230237,23.7037231 34.8522384,33.1100835 L12.5791588,33.1100835 C18.4155393,21.5219359 29.0586529,12.7116875 41.9048525,9.26136021 Z M45.8556858,19.5945351 C48.6270892,11.356656 51.9428449,7.66890146 54.0004279,7.66890146 C56.0554433,7.66890146 59.3720549,11.356656 62.1434583,19.5945351 C63.4820855,23.5688983 64.5528161,28.1393736 65.3316849,33.1100835 L42.6683151,33.1100835 C43.4471839,28.1368298 44.5187704,23.5688983 45.8556858,19.5945351 Z M95.4208412,33.1100835 L73.1486175,33.1100835 C71.769763,23.7037231 69.4091914,15.2657268 66.0951475,9.26136021 C78.9404912,12.7116875 89.5853166,21.5219359 95.4208412,33.1100835 Z M54.0004279,99.3302506 C51.9428449,99.3302506 48.6270892,95.642496 45.8556858,87.4054649 C44.5187704,83.4311017 43.4497516,78.8597784 42.6683151,73.8890685 L54.5370771,73.8890685 L52.3810656,66.2201671 L41.7285371,66.2201671 C41.3553648,62.1313299 41.1593638,57.8644224 41.1593638,53.4983041 C41.1593638,49.1321858 41.3553648,44.8686701 41.7285371,40.778985 L66.2714629,40.778985 C66.6420675,44.8686701 66.8380685,49.1321858 66.8380685,53.4983041 C66.8380685,53.9443282 66.8269418,54.3844167 66.8235182,54.8287449 L74.476118,58.8624649 C74.5403105,57.0783684 74.5796819,55.2891842 74.5796819,53.4983041 C74.5796819,49.2297006 74.3982311,44.9534655 74.0353296,40.778985 L98.4438791,40.778985 C99.623309,44.8177928 100.259243,49.0872442 100.259243,53.4983041 C100.259243,57.9119078 99.623309,62.1813593 98.4438791,66.2201671 L88.437555,66.2201671 L103.74361,74.2867592 C104.12363,73.3964069 104.489955,72.497575 104.822044,71.582632 C104.890516,71.4283042 104.947861,71.265497 104.99408,71.1009938 C106.938684,65.585897 108,59.6620861 108,53.4983041 C108,47.3345221 106.938684,41.413255 104.99408,35.8981583 C104.947861,35.7336551 104.890516,35.5716958 104.822044,35.417368 C97.3235063,14.7891763 77.3733387,0 54.0004279,0 C30.6258054,0 10.6773496,14.7891763 3.17795583,35.417368 C3.10948384,35.5716958 3.05128266,35.7336551 3.00677587,35.8981583 C1.06131571,41.413255 0,47.3345221 0,53.4983041 C0,59.6620861 1.06131571,65.585897 3.00677587,71.1009938 C3.05385036,71.265497 3.10948384,71.4283042 3.17795583,71.582632 C10.6790614,92.2108237 30.6258054,107 54.0004279,107 C57.2776681,107 60.4838687,106.698976 63.6010556,106.14187 L59.891586,92.9392167 C57.7244478,97.3112707 55.5179382,99.3302506 54.0004279,99.3302506 L54.0004279,99.3302506 Z" id="Fill-5" fill="#1991E8"></path>
            </g>
        </g>
    </g>
</svg>