<?xml version="1.0" encoding="UTF-8"?>
<svg width="40px" height="49px" viewBox="0 0 40 49" version="1.1" xmlns="http://www.w3.org/2000/svg" xmlns:xlink="http://www.w3.org/1999/xlink">
    <!-- Generator: Sketch 60.1 (88133) - https://sketch.com -->
    <title>Icons/Bookmark/Filled Copy@1.5x</title>
    <desc>Created with Sketch.</desc>
    <g id="Web" stroke="none" stroke-width="1" fill="none" fill-rule="evenodd">
        <g id="My-Tutorials" transform="translate(-652.000000, -413.000000)">
            <g id="Tutorial-1" transform="translate(128.000000, 400.000000)">
                <g id="Icons/Bookmark/Filled" transform="translate(510.000000, 0.000000)">
                    <g id="2518772251551938529" stroke-width="1" fill-rule="evenodd">
                        <polygon id="Path" points="0 0 68 0 68 71 0 71"></polygon>
                    </g>
                    <path d="M51.2660028,13.4324324 L16.7339972,13.4324324 C15.6270384,13.4638137 14.7378706,14.257243 14.7027027,15.2450133 L14.7027027,59.5928246 C14.7156363,60.2375556 15.0993289,60.8310135 15.7183499,61.163728 C16.353503,61.4644884 17.1144913,61.4644884 17.7496444,61.163728 L34,52.644598 L50.2503556,61.163728 C50.565943,61.3074695 50.9121104,61.3898415 51.2660028,61.4054054 C51.6184404,61.3818622 51.962872,61.2999033 52.2816501,61.163728 C52.9006711,60.8310135 53.2843637,60.2375556 53.2972973,59.5928246 L53.2972973,15.2450133 C53.2621294,14.257243 52.3729616,13.4638137 51.2660028,13.4324324 Z" id="Path" fill="#22BFDE" fill-rule="nonzero"></path>
                    <g id="noun_bookmark_1533173" stroke-width="1" fill-rule="evenodd" transform="translate(14.702703, 15.351351)" fill="#000000">
                        <path d="M35.9328984,0 L1.99627213,0 C0.908398849,0.0299000748 0.034561524,0.785879509 3.55271368e-15,1.72702703 L3.55271368e-15,43.9816216 C0.0127106244,44.5959214 0.389787767,45.1613681 0.998136067,45.4783784 C1.62233823,45.764943 2.37020604,45.764943 2.9944082,45.4783784 L18.9645853,37.3613514 L34.9347623,45.4783784 C35.2449085,45.6153353 35.5851076,45.6938193 35.9328984,45.7086486 C36.2792594,45.6862167 36.6177525,45.6081262 36.9310345,45.4783784 C37.5393828,45.1613681 37.9164599,44.5959214 37.9291705,43.9816216 L37.9291705,1.72702703 C37.894609,0.785879509 37.0207717,0.0299000748 35.9328984,0 Z" id="Path" fill-rule="nonzero"></path>
                    </g>
                </g>
            </g>
        </g>
    </g>
</svg>