<svg id="Layer_1" data-name="Layer 1" xmlns="http://www.w3.org/2000/svg" viewBox="0 0 512.54 706.84"><defs><style>.cls-1{fill:#57c8f4;}.cls-2{fill:#6488a6;}.cls-3{fill:#69ceed;}.cls-4{fill:#6487a5;}.cls-5{opacity:0.8;}</style></defs><title>Artboard 2</title><path class="cls-1" d="M293.56,463.21l.1,0,1.8-.93,1.69-.9.1-.06a117,117,0,0,0,60.46-91.79c.06-.54.11-1.08.15-1.63s.1-1.33.14-2c0-.12,0-.25,0-.37l.09-1.63c.08-1.76.12-3.53.12-5.3a117,117,0,0,0-233.95,0c0,1.77,0,3.54.12,5.3,0,.67.07,1.33.11,2s.09,1.34.14,2l.06.67c0,.32.05.64.08,1a117,117,0,0,0,3.32,18.85c0,.1,0,.19.07.28a117.18,117.18,0,0,0,56.12,72.13l.81.45c.32.18.64.36,1,.53.59.32,1.19.63,1.79.93l.24.13L219,369.48l0-.09.32-.95h43l.34,1Z"/><path class="cls-2" d="M165.11,341.53v-.62a10.86,10.86,0,0,0-.08-1.42c0-.27-.06-.54-.11-.8a8.35,8.35,0,0,0-.38-1.53,7.73,7.73,0,0,0-1.71-2.85A7.45,7.45,0,0,0,160,332.5a11.13,11.13,0,0,0-3.84-.62,9.85,9.85,0,0,0-3.77.68,8,8,0,0,0-2.86,1.94,8.44,8.44,0,0,0-1.81,3.12,13,13,0,0,0-.63,4.19v5.41a14.23,14.23,0,0,0,.42,3.6,5.41,5.41,0,0,0,.24.81,7.87,7.87,0,0,0,1.78,3,8.56,8.56,0,0,0,6.17,2.51,3.46,3.46,0,0,0,.46,0,14,14,0,0,0,2-.14,7.89,7.89,0,0,0,4.65-2.2,7.41,7.41,0,0,0,1.79-3.1,10,10,0,0,0,.36-1.63c.05-.31.08-.63.1-.95s0-.66,0-1v-.63h-4.6v.63a9.13,9.13,0,0,1-.18,1.82,4,4,0,0,1-.64,1.56,3.34,3.34,0,0,1-1.33,1.08,5.24,5.24,0,0,1-2.18.4,4.93,4.93,0,0,1-2.07-.4,3.41,3.41,0,0,1-1.38-1.13,4.62,4.62,0,0,1-.51-.93,1.57,1.57,0,0,1-.09-.23,4.58,4.58,0,0,1-.17-.56,9.17,9.17,0,0,1-.25-2.17v-6.11a7.76,7.76,0,0,1,.27-2.06,4.82,4.82,0,0,1,.82-1.74,4,4,0,0,1,1.39-1.18,3.29,3.29,0,0,1,.76-.28,4.71,4.71,0,0,1,1.23-.15,4.62,4.62,0,0,1,.76.05,3.52,3.52,0,0,1,1.33.38,3.7,3.7,0,0,1,1.33,1.13,4.42,4.42,0,0,1,.7,1.56,8.46,8.46,0,0,1,.16.85s0,0,0,0a8.46,8.46,0,0,1,0,.87v.62Z"/><path class="cls-2" d="M186.2,339.08a8.93,8.93,0,0,0-2.15-4.6,9.72,9.72,0,0,0-13.23,0q-2.38,2.61-2.39,7.33v5.41a14.34,14.34,0,0,0,.42,3.62,5.82,5.82,0,0,0,.25.84,7.81,7.81,0,0,0,1.72,2.94,8.39,8.39,0,0,0,6.12,2.51,3.93,3.93,0,0,0,.49,0,11.54,11.54,0,0,0,2-.16l.08,0a7.86,7.86,0,0,0,4.55-2.35q2.38-2.53,2.39-7.4v-5.41A14.6,14.6,0,0,0,186.2,339.08Zm-6.74-2.6a3.84,3.84,0,0,1,1.36,1.16,5.12,5.12,0,0,1,.77,1.74,7,7,0,0,1,.14.8,8.41,8.41,0,0,1,.1,1.35v6a10.87,10.87,0,0,1-.21,2.22,4.49,4.49,0,0,1-.73,1.74,3.49,3.49,0,0,1-1.36,1.13,5.69,5.69,0,0,1-4.19,0,3.49,3.49,0,0,1-1.36-1.13,3.63,3.63,0,0,1-.41-.72,2.33,2.33,0,0,1-.11-.28,4.23,4.23,0,0,1-.21-.74,10.87,10.87,0,0,1-.21-2.22v-6a9.26,9.26,0,0,1,.24-2.15,4.93,4.93,0,0,1,.77-1.74,3.84,3.84,0,0,1,1.36-1.16,3,3,0,0,1,.75-.27,4.6,4.6,0,0,1,1.27-.16,4.83,4.83,0,0,1,.67,0A4,4,0,0,1,179.46,336.48Z"/><path class="cls-2" d="M207.28,338.61a7.11,7.11,0,0,0-2-4.14c-1.46-1.4-3.71-2.11-6.73-2.11h-8.87v4.38H192v15.52h-2.31v4.41h8.87c3,0,5.27-.7,6.73-2.1s2.2-3.57,2.2-6.51V341A12.47,12.47,0,0,0,207.28,338.61ZM202.87,341v6.66a5.34,5.34,0,0,1-1,3.52,4.2,4.2,0,0,1-3.36,1.13h-2V336.74h2a4.34,4.34,0,0,1,3.36,1.08,4,4,0,0,1,.92,2.4A6.12,6.12,0,0,1,202.87,341Z"/><path class="cls-2" d="M216.87,352.29v-5.62h10.39v-4.38H216.87v-5.55h10.81v-4.38H212.26v24.31H228.1v-4.38Z"/><path class="cls-2" d="M271.59,338.4v0l0-.21a6.35,6.35,0,0,0-.45-1.71,6.23,6.23,0,0,0-1.46-2.13,6.56,6.56,0,0,0-2.39-1.44,9.64,9.64,0,0,0-3.32-.53h-9.35v24.31h4.6V347.5h5.31A1.83,1.83,0,0,1,266,348a2.05,2.05,0,0,1,.43,1.36v7.29H271v-5.81h0v-2.57h0a3.48,3.48,0,0,0-.11-.88,2.75,2.75,0,0,0-.61-1.14l-.13-.14a2.31,2.31,0,0,0-.39-.31,3.11,3.11,0,0,0-1.41-.48v-.63a5.8,5.8,0,0,0,1.48-.88,4.43,4.43,0,0,0,1-1.12,5.19,5.19,0,0,0,.74-1.93v0a5.55,5.55,0,0,0,.06-.82v-.83C271.62,338.84,271.61,338.62,271.59,338.4Zm-12.4-1.66h4.4a3.46,3.46,0,0,1,2.55.88,3,3,0,0,1,.78,1.34,3.25,3.25,0,0,1,.09.77v.41a3.41,3.41,0,0,1-.18,1.14,2.2,2.2,0,0,1-.26.56,2.33,2.33,0,0,1-.43.51,3.71,3.71,0,0,1-2.55.78h-4.4Z"/><path class="cls-2" d="M292.8,339.06a8.9,8.9,0,0,0-2.15-4.58,9.7,9.7,0,0,0-13.22,0c-1.6,1.74-2.39,4.18-2.39,7.33v5.41a14.58,14.58,0,0,0,.42,3.65,7.44,7.44,0,0,0,.25.84,8,8,0,0,0,1.72,2.91,8.39,8.39,0,0,0,6.12,2.51,3.93,3.93,0,0,0,.49,0,11.54,11.54,0,0,0,2-.16l.08,0a7.83,7.83,0,0,0,4.54-2.35c1.6-1.69,2.39-4.16,2.39-7.4v-5.41A14.82,14.82,0,0,0,292.8,339.06Zm-6.74-2.58a3.88,3.88,0,0,1,1.37,1.16,5.11,5.11,0,0,1,.76,1.74,6.83,6.83,0,0,1,.16.81,9.73,9.73,0,0,1,.09,1.34v6a10.87,10.87,0,0,1-.21,2.22,4.64,4.64,0,0,1-.73,1.74,3.52,3.52,0,0,1-1.37,1.13,5.66,5.66,0,0,1-4.18,0,3.42,3.42,0,0,1-1.36-1.13,4.57,4.57,0,0,1-.43-.75c0-.09-.07-.18-.1-.27a4.27,4.27,0,0,1-.21-.72,10.87,10.87,0,0,1-.21-2.22v-6a8.74,8.74,0,0,1,.25-2.15,4.93,4.93,0,0,1,.77-1.74,3.76,3.76,0,0,1,1.36-1.16,3.13,3.13,0,0,1,.76-.28,5,5,0,0,1,1.26-.15,4.83,4.83,0,0,1,.67,0A4,4,0,0,1,286.06,336.48Z"/><path class="cls-2" d="M315,354.62,310.08,334l-.39-1.63H301l-5.34,22.26-.49,2.05H300l1.19-5.21h8.31l.37,1.63.81,3.58h4.82Zm-12.84-7.53.47-2,1.95-8.47.38-1.63.06-.28h.63l.06.28.31,1.35.06.28L308,345l.47,2Z"/><path class="cls-2" d="M335.21,338.61a7.11,7.11,0,0,0-2-4.14c-1.47-1.4-3.71-2.11-6.74-2.11h-8.86v4.38h2.3v15.52h-2.3v4.41h8.86c3,0,5.27-.7,6.74-2.1s2.2-3.57,2.2-6.51V341A12.47,12.47,0,0,0,335.21,338.61ZM330.8,341v6.66a5.34,5.34,0,0,1-1,3.52,4.21,4.21,0,0,1-3.37,1.13h-2V336.74h2a4.35,4.35,0,0,1,3.37,1.08,4,4,0,0,1,.92,2.4A6.12,6.12,0,0,1,330.8,341Z"/><path d="M165.11,344.11v-.62c0-.11,0-.22,0-.33a7.68,7.68,0,0,0-.07-1.09c0-.18,0-.36-.07-.54a2.17,2.17,0,0,0,0-.25,8.46,8.46,0,0,0-.38-1.54,7.73,7.73,0,0,0-1.71-2.85,7.45,7.45,0,0,0-2.81-1.81,11.13,11.13,0,0,0-3.84-.62,9.85,9.85,0,0,0-3.77.68,8,8,0,0,0-2.86,1.94,7.77,7.77,0,0,0-1.25,1.81l-.08.18a7.52,7.52,0,0,0-.48,1.13,13,13,0,0,0-.63,4.19v5.41a13.37,13.37,0,0,0,.66,4.41,7.87,7.87,0,0,0,1.78,3,8.78,8.78,0,0,0,6.63,2.53q4.37,0,6.65-2.34a7.23,7.23,0,0,0,1.61-2.59,10.33,10.33,0,0,0,.63-3.09c0-.32,0-.66,0-1v-.63h-4.6v.63a9.13,9.13,0,0,1-.18,1.82c0,.14-.06.28-.1.41v0a4.21,4.21,0,0,1-.54,1.13,3.34,3.34,0,0,1-1.33,1.08,5.24,5.24,0,0,1-2.18.4,4.93,4.93,0,0,1-2.07-.4,3.41,3.41,0,0,1-1.38-1.13,4.62,4.62,0,0,1-.51-.93,4.87,4.87,0,0,1-.26-.79,9.17,9.17,0,0,1-.25-2.17V344A7.76,7.76,0,0,1,152,342a4.61,4.61,0,0,1,.53-1.29,2.66,2.66,0,0,1,.29-.45,4,4,0,0,1,1.39-1.18,4.26,4.26,0,0,1,2-.43,4.47,4.47,0,0,1,2.09.43,3.7,3.7,0,0,1,1.33,1.13,4.42,4.42,0,0,1,.7,1.56,8.46,8.46,0,0,1,.16.85s0,0,0,0a8.46,8.46,0,0,1,0,.87v.62Z"/><path d="M186.2,341.66a8.93,8.93,0,0,0-2.15-4.6,9.72,9.72,0,0,0-13.23,0,7.36,7.36,0,0,0-1.22,1.79,11.94,11.94,0,0,0-1.17,5.54v5.41a13.37,13.37,0,0,0,.67,4.46,7.81,7.81,0,0,0,1.72,2.94,9.91,9.91,0,0,0,13.23,0,7.81,7.81,0,0,0,1.63-2.7,13.09,13.09,0,0,0,.76-4.7v-5.41A14.6,14.6,0,0,0,186.2,341.66ZM173,344.11a9.26,9.26,0,0,1,.24-2.15,5.52,5.52,0,0,1,.55-1.41c.07-.11.14-.22.22-.33a3.84,3.84,0,0,1,1.36-1.16,5,5,0,0,1,4.05,0,3.84,3.84,0,0,1,1.36,1.16,5.12,5.12,0,0,1,.77,1.74,7,7,0,0,1,.14.8,8.41,8.41,0,0,1,.1,1.35v6a10.87,10.87,0,0,1-.21,2.22c0,.17-.08.33-.12.49a4.54,4.54,0,0,1-.61,1.25,3.49,3.49,0,0,1-1.36,1.13,5.69,5.69,0,0,1-4.19,0A3.49,3.49,0,0,1,174,354a3.63,3.63,0,0,1-.41-.72,4.51,4.51,0,0,1-.32-1,10.87,10.87,0,0,1-.21-2.22Z"/><path d="M207.28,341.19a7.11,7.11,0,0,0-2-4.14c-1.46-1.4-3.71-2.11-6.73-2.11h-8.87v4.38H192v15.52h-2.31v4.41h8.87c3,0,5.27-.7,6.73-2.1a6.42,6.42,0,0,0,1.6-2.54,11.76,11.76,0,0,0,.6-4v-7.08A12.47,12.47,0,0,0,207.28,341.19Zm-8.73-1.87a4.34,4.34,0,0,1,3.36,1.08,4,4,0,0,1,.92,2.4,6.12,6.12,0,0,1,0,.76v6.66a7.45,7.45,0,0,1-.28,2.2,3.44,3.44,0,0,1-.68,1.32,4.2,4.2,0,0,1-3.36,1.13h-2V339.32Z"/><path d="M216.87,354.87v-5.62h10.39v-4.38H216.87v-5.55h10.81v-4.38H212.26v24.31H228.1v-4.38Z"/><path d="M271.59,341v0l0-.2v0a6.52,6.52,0,0,0-.45-1.68,6.23,6.23,0,0,0-1.46-2.13,6.56,6.56,0,0,0-2.39-1.44,9.64,9.64,0,0,0-3.32-.53h-9.35v24.31h4.6v-9.17h5.31a1.83,1.83,0,0,1,1.45.52,2.05,2.05,0,0,1,.43,1.36v7.29H271v-8.39h0a2.92,2.92,0,0,0-.72-2,2.26,2.26,0,0,0-.53-.45,3.11,3.11,0,0,0-1.4-.48v-.63c.21-.09.41-.19.6-.29a5,5,0,0,0,.88-.59c.11-.09.22-.18.32-.28a4.55,4.55,0,0,0,.68-.84,5.49,5.49,0,0,0,.55-1.18,5.11,5.11,0,0,0,.25-1.61v-.83C271.62,341.42,271.61,341.2,271.59,341Zm-12.4-1.66h4.4a3.46,3.46,0,0,1,2.55.88,3,3,0,0,1,.69,1.08,1.14,1.14,0,0,1,.09.26,3.25,3.25,0,0,1,.09.77v.41a3.76,3.76,0,0,1-.09.85,2.58,2.58,0,0,1-.78,1.36,3.71,3.71,0,0,1-2.55.78h-4.4Z"/><path d="M292.8,341.64a8.9,8.9,0,0,0-2.15-4.58,9.7,9.7,0,0,0-13.22,0,7.69,7.69,0,0,0-1.23,1.79,12,12,0,0,0-1.16,5.54v5.41a13.56,13.56,0,0,0,.67,4.49,8,8,0,0,0,1.72,2.91,9.9,9.9,0,0,0,13.22,0,7.68,7.68,0,0,0,1.64-2.7,13.32,13.32,0,0,0,.75-4.7v-5.41A14.82,14.82,0,0,0,292.8,341.64Zm-13.16,2.47a8.74,8.74,0,0,1,.25-2.15,5.52,5.52,0,0,1,.55-1.41c.07-.11.14-.22.22-.33a3.76,3.76,0,0,1,1.36-1.16,5,5,0,0,1,4,0,3.88,3.88,0,0,1,1.37,1.16,5.11,5.11,0,0,1,.76,1.74,6.83,6.83,0,0,1,.16.81,9.73,9.73,0,0,1,.09,1.34v6a10.87,10.87,0,0,1-.21,2.22,4.42,4.42,0,0,1-.14.52,4.32,4.32,0,0,1-.59,1.22,3.52,3.52,0,0,1-1.37,1.13,5.66,5.66,0,0,1-4.18,0,3.42,3.42,0,0,1-1.36-1.13,4.57,4.57,0,0,1-.43-.75,4.78,4.78,0,0,1-.31-1,10.87,10.87,0,0,1-.21-2.22Z"/><path d="M315.29,358.3l-.26-1.1-.13-.53-4.82-20.1-.39-1.63H301l-5.21,21.73-.13.53-.49,2.05H300l.22-.95,1-4.26h8.31l.37,1.63.81,3.58h4.82Zm-12.63-10.68.12-.53,2.27-9.85h.63l.37,1.63,1.86,8.22.12.53.25,1.1.22.95h-6.31Z"/><path d="M335.21,341.19a7.11,7.11,0,0,0-2-4.14c-1.47-1.4-3.71-2.11-6.74-2.11h-8.86v4.38h2.3v15.52h-2.3v4.41h8.86c3,0,5.27-.7,6.74-2.1a6.42,6.42,0,0,0,1.6-2.54,11.76,11.76,0,0,0,.6-4v-7.08A12.47,12.47,0,0,0,335.21,341.19Zm-8.74-1.87a4.35,4.35,0,0,1,3.37,1.08,4,4,0,0,1,.92,2.4,6.12,6.12,0,0,1,0,.76v6.66a7.62,7.62,0,0,1-.28,2.23,3.59,3.59,0,0,1-.68,1.29,4.21,4.21,0,0,1-3.37,1.13h-2V339.32Z"/><rect x="124.28" y="363.85" width="233.95" height="4"/><path d="M183.91,461.91l.39-1.17,30-91.26.54-1.63.39-1.19,3.62,1.19.18.06-.44,1.35-.08.22-30.65,93.17-.29.9a4.79,4.79,0,0,1-1.08-.2c-.6-.32-1.19-.64-1.78-1Z"/><path d="M297.77,462.85l-.52-1.58-30.2-91.79-.54-1.63-.39-1.19-3.62,1.19-.18.06.52,1.57v0l30.81,93.65.52,1.58c.57-.29,1.14-.58,1.7-.88s1.19-.63,1.79-1Z"/><path class="cls-3" d="M358.65,360.18c0,1.77,0,3.54-.12,5.3,0,.67-.07,1.33-.11,2s-.09,1.34-.14,2a117,117,0,0,1-60.51,93.37l-.1,0c-.6.33-1.19.65-1.79,1s-1.13.59-1.7.88l-.1.05-.52-1.58-30.88-93.73h-43.4l.18.06-31,94.1-.93-.09a4.79,4.79,0,0,1-1.08-.2c-.6-.32-1.19-.64-1.78-1l-.81-.46a117.12,117.12,0,0,1-55.73-73.3c0-.09,0-.18-.07-.28a118,118,0,0,1-3-18.85c0-.54-.08-1.08-.11-1.63l0-.37c0-.67-.08-1.33-.11-2l-.06-1.63c0-1.22-.06-2.44-.06-3.67a117,117,0,1,1,234,0Z"/><path class="cls-4" d="M175.32,336.52v-.62a10.86,10.86,0,0,0-.08-1.42c0-.18,0-.36-.07-.54a7.75,7.75,0,0,0-.37-1.63.75.75,0,0,0-.05-.16.36.36,0,0,0,0-.09A7.57,7.57,0,0,0,173,329.3a7.45,7.45,0,0,0-2.81-1.81,10.55,10.55,0,0,0-3.5-.61h-.34a12.58,12.58,0,0,0-1.65.11,9.06,9.06,0,0,0-2.12.57,8,8,0,0,0-2.86,1.94,8.44,8.44,0,0,0-1.81,3.12,13,13,0,0,0-.63,4.19v5.41a15.07,15.07,0,0,0,.24,2.78,8.64,8.64,0,0,0,2.2,4.62,8.78,8.78,0,0,0,6.63,2.53q4.37,0,6.65-2.34a9.19,9.19,0,0,0,2.28-6.68v-.63h-4.6v.63a9.13,9.13,0,0,1-.18,1.82,4,4,0,0,1-.64,1.56,3.34,3.34,0,0,1-1.33,1.08,3.25,3.25,0,0,1-.6.21,5.75,5.75,0,0,1-1.58.19,4.91,4.91,0,0,1-.88-.07,4.06,4.06,0,0,1-1.19-.33,3.41,3.41,0,0,1-1.38-1.13,4.91,4.91,0,0,1-.77-1.72,7.34,7.34,0,0,1-.16-.84,9.37,9.37,0,0,1-.09-1.33v-6.11a7.76,7.76,0,0,1,.27-2.06,4.82,4.82,0,0,1,.82-1.74,4,4,0,0,1,1.39-1.18,4.26,4.26,0,0,1,2-.43,4.47,4.47,0,0,1,2.09.43,3.7,3.7,0,0,1,1.33,1.13,4.24,4.24,0,0,1,.44.78s0,0,0,0a3.78,3.78,0,0,1,.26.76c.06.24.1.49.14.73a6.86,6.86,0,0,1,.07,1v.62Z"/><path class="cls-4" d="M196.23,333.27a5.67,5.67,0,0,0-.24-.83,8.28,8.28,0,0,0-1.73-3,8.46,8.46,0,0,0-6.37-2.6h-.25A11.49,11.49,0,0,0,186,327a7.93,7.93,0,0,0-4.92,2.48q-2.39,2.61-2.39,7.33v5.41a14.75,14.75,0,0,0,.25,2.83,9.26,9.26,0,0,0,15.37,4.57q2.38-2.53,2.39-7.4V336.8A13.78,13.78,0,0,0,196.23,333.27Zm-10.68,14.31a3.49,3.49,0,0,1-1.36-1.13,4.34,4.34,0,0,1-.73-1.74,6,6,0,0,1-.1-.61,10.27,10.27,0,0,1-.11-1.61v-6a9.26,9.26,0,0,1,.24-2.15,4.93,4.93,0,0,1,.77-1.74,3.84,3.84,0,0,1,1.36-1.16,5,5,0,0,1,4,0,3.84,3.84,0,0,1,1.36,1.16,4,4,0,0,1,.49.91,2.44,2.44,0,0,1,.1.24,5.76,5.76,0,0,1,.18.59,9.26,9.26,0,0,1,.24,2.15v6a10.87,10.87,0,0,1-.21,2.22,4.49,4.49,0,0,1-.73,1.74,3.49,3.49,0,0,1-1.36,1.13,4.7,4.7,0,0,1-.45.17l-.08,0a5.33,5.33,0,0,1-1.57.21,5.25,5.25,0,0,1-.91-.07A4,4,0,0,1,185.55,347.58Z"/><path class="cls-4" d="M217.27,332.6a3.3,3.3,0,0,0-.2-.63,6.16,6.16,0,0,0-1.58-2.51c-1.46-1.4-3.71-2.11-6.73-2.11h-8.87v4.38h2.31v15.52h-2.31v4.41h8.87c3,0,5.27-.7,6.73-2.1s2.2-3.57,2.2-6.51V336A12.28,12.28,0,0,0,217.27,332.6Zm-10.47-.87h2a4.34,4.34,0,0,1,3.36,1.08,2.92,2.92,0,0,1,.5.77.18.18,0,0,1,0,.09,5.59,5.59,0,0,1,.42,2.3v6.66a5.34,5.34,0,0,1-1,3.52,4.2,4.2,0,0,1-3.36,1.13h-2Z"/><path class="cls-4" d="M227.08,347.28v-5.62h10.39v-4.38H227.08v-5.55h10.81v-4.38H222.47v24.31h15.84v-4.38Z"/><path class="cls-4" d="M259.17,339.15a4.54,4.54,0,0,0,.5-.36c.11-.09.22-.18.32-.28s.22-.23.32-.35a5.6,5.6,0,0,0,.36-.49,5.25,5.25,0,0,0,.8-2.79v-.83c0-.23,0-.45,0-.67v0l0-.24a6.22,6.22,0,0,0-.42-1.59v0l0-.07a6.23,6.23,0,0,0-1.46-2.13,6.56,6.56,0,0,0-2.39-1.44,9.64,9.64,0,0,0-3.32-.53h-9.35v24.31H249v-9.17h5.31a1.83,1.83,0,0,1,1.45.52h0a2.09,2.09,0,0,1,.42,1.35v7.29h4.61v-8.4a3.05,3.05,0,0,0-.42-1.62h0a2.88,2.88,0,0,0-2.23-1.32v-.63A5.69,5.69,0,0,0,259.17,339.15Zm-2.4-5.21a3.25,3.25,0,0,1,.09.77v.41a2.82,2.82,0,0,1-.87,2.21,3.71,3.71,0,0,1-2.55.78H249v-6.39h4.4a3.46,3.46,0,0,1,2.55.88h0a3,3,0,0,1,.44.58,2.47,2.47,0,0,1,.24.49A1.14,1.14,0,0,1,256.77,333.94Z"/><path class="cls-4" d="M282.47,333.22q-.11-.42-.24-.81a8.28,8.28,0,0,0-1.73-3,8.43,8.43,0,0,0-6.36-2.6h-.25a12.81,12.81,0,0,0-1.68.11,8,8,0,0,0-4.93,2.49c-1.6,1.74-2.39,4.18-2.39,7.33v5.41a15.08,15.08,0,0,0,.25,2.86,9.26,9.26,0,0,0,15.36,4.54c1.6-1.69,2.39-4.16,2.39-7.4v-5.41A14.1,14.1,0,0,0,282.47,333.22ZM271.8,347.57a3.42,3.42,0,0,1-1.36-1.13,4.5,4.5,0,0,1-.74-1.74c0-.21-.08-.42-.11-.64a11.25,11.25,0,0,1-.1-1.58v-6a8.74,8.74,0,0,1,.25-2.15,4.93,4.93,0,0,1,.77-1.74,3.76,3.76,0,0,1,1.36-1.16,5,5,0,0,1,4,0,3.88,3.88,0,0,1,1.37,1.16,5,5,0,0,1,.5.92l.09.25a4.74,4.74,0,0,1,.17.57,8.74,8.74,0,0,1,.25,2.15v6a10.87,10.87,0,0,1-.21,2.22,4.64,4.64,0,0,1-.73,1.74,3.52,3.52,0,0,1-1.37,1.13,4.49,4.49,0,0,1-.44.17l-.08,0a5.28,5.28,0,0,1-1.57.21,5.17,5.17,0,0,1-.91-.07A4,4,0,0,1,271.8,347.57Z"/><path class="cls-4" d="M304.88,349.6l-.13-.53-.39-1.63-4.82-20.1h-8.65l-4.82,20.1-.39,1.63-.13.53-.1.42-.39,1.63h4.81l1.19-5.21h8.31l.81,3.58.37,1.63h4.82Zm-9.35-20,1.86,8.22.37,1.63.12.53.47,2.05H292l.37-1.63.1-.42.12-.53.38-1.63,1.89-8.22Z"/><path class="cls-4" d="M324.84,332.59a3.3,3.3,0,0,0-.2-.63,6.16,6.16,0,0,0-1.58-2.51c-1.47-1.4-3.71-2.11-6.74-2.11h-8.86v4.38h2.3v15.52h-2.3v4.41h8.86c3,0,5.27-.7,6.74-2.1s2.2-3.57,2.2-6.51V336A12.28,12.28,0,0,0,324.84,332.59Zm-10.47-.87h1.95a4.35,4.35,0,0,1,3.37,1.08,2.92,2.92,0,0,1,.5.77l0,.08a5.64,5.64,0,0,1,.42,2.31v6.66a5.34,5.34,0,0,1-1,3.52,4.21,4.21,0,0,1-3.37,1.13h-1.95Z"/><path d="M175.32,339.93v-.62a10.86,10.86,0,0,0-.08-1.42c0-.18,0-.36-.07-.54a7.75,7.75,0,0,0-.37-1.63.75.75,0,0,0-.05-.16.36.36,0,0,0,0-.09,7.57,7.57,0,0,0-1.67-2.76,7.45,7.45,0,0,0-2.81-1.81,10.55,10.55,0,0,0-3.5-.61h-.34a12.58,12.58,0,0,0-1.65.11,9.06,9.06,0,0,0-2.12.57,8,8,0,0,0-2.86,1.94A8.44,8.44,0,0,0,158,336a13,13,0,0,0-.63,4.19v5.41a15.07,15.07,0,0,0,.24,2.78,8.64,8.64,0,0,0,2.2,4.62,8.78,8.78,0,0,0,6.63,2.53q4.37,0,6.65-2.34a9.19,9.19,0,0,0,2.28-6.68v-.63h-4.6v.63a9.13,9.13,0,0,1-.18,1.82,4,4,0,0,1-.64,1.56,3.34,3.34,0,0,1-1.33,1.08,3.25,3.25,0,0,1-.6.21,5.75,5.75,0,0,1-1.58.19,4.91,4.91,0,0,1-.88-.07,4.06,4.06,0,0,1-1.19-.33,3.41,3.41,0,0,1-1.38-1.13,4.91,4.91,0,0,1-.77-1.72,7.34,7.34,0,0,1-.16-.84,9.37,9.37,0,0,1-.09-1.33v-6.11a7.76,7.76,0,0,1,.27-2.06,4.82,4.82,0,0,1,.82-1.74,4,4,0,0,1,1.39-1.18,4.26,4.26,0,0,1,2-.43,4.47,4.47,0,0,1,2.09.43,3.7,3.7,0,0,1,1.33,1.13,4.24,4.24,0,0,1,.44.78s0,0,0,0a3.78,3.78,0,0,1,.26.76c.06.24.1.49.14.73a6.86,6.86,0,0,1,.07,1v.62Z"/><path d="M196.23,336.68a5.67,5.67,0,0,0-.24-.83,8.28,8.28,0,0,0-1.73-3,8.46,8.46,0,0,0-6.37-2.6h-.25a11.49,11.49,0,0,0-1.69.12,7.93,7.93,0,0,0-4.92,2.48q-2.39,2.61-2.39,7.33v5.41a14.75,14.75,0,0,0,.25,2.83A9.26,9.26,0,0,0,194.26,353q2.38-2.53,2.39-7.4v-5.41A13.78,13.78,0,0,0,196.23,336.68ZM185.55,351a3.49,3.49,0,0,1-1.36-1.13,4.34,4.34,0,0,1-.73-1.74,6,6,0,0,1-.1-.61,10.27,10.27,0,0,1-.11-1.61v-6a9.26,9.26,0,0,1,.24-2.15,4.93,4.93,0,0,1,.77-1.74,3.84,3.84,0,0,1,1.36-1.16,5,5,0,0,1,4,0A3.84,3.84,0,0,1,191,336a4,4,0,0,1,.49.91,2.44,2.44,0,0,1,.1.24,5.76,5.76,0,0,1,.18.59,9.26,9.26,0,0,1,.24,2.15v6a10.87,10.87,0,0,1-.21,2.22,4.49,4.49,0,0,1-.73,1.74,3.49,3.49,0,0,1-1.36,1.13,4.7,4.7,0,0,1-.45.17l-.08,0a5.33,5.33,0,0,1-1.57.21,5.25,5.25,0,0,1-.91-.07A4,4,0,0,1,185.55,351Z"/><path d="M217.27,336a3.3,3.3,0,0,0-.2-.63,6.16,6.16,0,0,0-1.58-2.51c-1.46-1.4-3.71-2.11-6.73-2.11h-8.87v4.38h2.31v15.52h-2.31v4.41h8.87c3,0,5.27-.7,6.73-2.1s2.2-3.57,2.2-6.51v-7.08A12.28,12.28,0,0,0,217.27,336Zm-10.47-.87h2a4.34,4.34,0,0,1,3.36,1.08,2.92,2.92,0,0,1,.5.77.18.18,0,0,1,0,.09,5.59,5.59,0,0,1,.42,2.3V346a5.34,5.34,0,0,1-1,3.52,4.2,4.2,0,0,1-3.36,1.13h-2Z"/><path d="M227.08,350.69v-5.62h10.39v-4.38H227.08v-5.55h10.81v-4.38H222.47v24.31h15.84v-4.38Z"/><path d="M259.17,342.56a4.54,4.54,0,0,0,.5-.36c.11-.09.22-.18.32-.28s.22-.23.32-.35a5.6,5.6,0,0,0,.36-.49,5.25,5.25,0,0,0,.8-2.79v-.83c0-.23,0-.45,0-.67v0l0-.24a6.22,6.22,0,0,0-.42-1.59v0l0-.07a6.23,6.23,0,0,0-1.46-2.13,6.56,6.56,0,0,0-2.39-1.44,9.64,9.64,0,0,0-3.32-.53h-9.35v24.31H249v-9.17h5.31a1.83,1.83,0,0,1,1.45.52h0a2.09,2.09,0,0,1,.42,1.35v7.29h4.61v-8.4a3.05,3.05,0,0,0-.42-1.62h0a2.88,2.88,0,0,0-2.23-1.32v-.63A5.69,5.69,0,0,0,259.17,342.56Zm-2.4-5.21a3.25,3.25,0,0,1,.09.77v.41a2.82,2.82,0,0,1-.87,2.21,3.71,3.71,0,0,1-2.55.78H249v-6.39h4.4A3.46,3.46,0,0,1,256,336h0a3,3,0,0,1,.44.58,2.47,2.47,0,0,1,.24.49A1.14,1.14,0,0,1,256.77,337.35Z"/><path d="M282.47,336.63q-.11-.42-.24-.81a8.28,8.28,0,0,0-1.73-2.95,8.43,8.43,0,0,0-6.36-2.6h-.25a12.81,12.81,0,0,0-1.68.11,8,8,0,0,0-4.93,2.49c-1.6,1.74-2.39,4.18-2.39,7.33v5.41a15.08,15.08,0,0,0,.25,2.86A9.26,9.26,0,0,0,280.5,353c1.6-1.69,2.39-4.16,2.39-7.4V340.2A14.1,14.1,0,0,0,282.47,336.63ZM271.8,351a3.42,3.42,0,0,1-1.36-1.13,4.5,4.5,0,0,1-.74-1.74c0-.21-.08-.42-.11-.64a11.25,11.25,0,0,1-.1-1.58v-6a8.74,8.74,0,0,1,.25-2.15,4.93,4.93,0,0,1,.77-1.74,3.76,3.76,0,0,1,1.36-1.16,5,5,0,0,1,4,0,3.88,3.88,0,0,1,1.37,1.16,5,5,0,0,1,.5.92l.09.25a4.74,4.74,0,0,1,.17.57,8.74,8.74,0,0,1,.25,2.15v6a10.87,10.87,0,0,1-.21,2.22,4.64,4.64,0,0,1-.73,1.74A3.52,3.52,0,0,1,276,351a4.49,4.49,0,0,1-.44.17l-.08,0a5.28,5.28,0,0,1-1.57.21,5.17,5.17,0,0,1-.91-.07A4,4,0,0,1,271.8,351Z"/><path d="M304.88,353l-.13-.53-.39-1.63-4.82-20.1h-8.65l-4.82,20.1-.39,1.63-.13.53-.1.42-.39,1.63h4.81l1.19-5.21h8.31l.81,3.58.37,1.63h4.82Zm-9.35-20,1.86,8.22.37,1.63.12.53.47,2.05H292l.37-1.63.1-.42.12-.53.38-1.63,1.89-8.22Z"/><path d="M324.84,336a3.3,3.3,0,0,0-.2-.63,6.16,6.16,0,0,0-1.58-2.51c-1.47-1.4-3.71-2.11-6.74-2.11h-8.86v4.38h2.3v15.52h-2.3v4.41h8.86c3,0,5.27-.7,6.74-2.1s2.2-3.57,2.2-6.51v-7.08A12.28,12.28,0,0,0,324.84,336Zm-10.47-.87h1.95a4.35,4.35,0,0,1,3.37,1.08,2.92,2.92,0,0,1,.5.77.3.3,0,0,1,0,.08,5.64,5.64,0,0,1,.42,2.31V346a5.34,5.34,0,0,1-1,3.52,4.21,4.21,0,0,1-3.37,1.13h-1.95Z"/><rect x="124.71" y="365.48" width="233.94" height="4"/><path d="M219.46,369.54l-31,94.1-.93-.09a4.79,4.79,0,0,1-1.08-.2c-.6-.32-1.19-.64-1.78-1l.39-1.18,30.16-91.71.39-1.19,2.94,1,.41.13.27.09Z"/><path d="M295.88,463.86c-.56.3-1.13.59-1.7.88l.08.26-.18-.21-.52-1.58-30.81-93.67.1,0,.08,0,3.62-1.19.39,1.19,30.21,91.85.52,1.57C297.07,463.23,296.48,463.55,295.88,463.86Z"/><g class="cls-5"><polygon class="cls-1" points="242.87 382.54 243.65 394.9 239.53 394.9 240.31 382.54 242.87 382.54"/></g><g class="cls-5"><polygon class="cls-1" points="239 403.94 244.36 403.94 244.96 420.02 238.4 420.02 239 403.94"/></g><g class="cls-5"><polygon class="cls-1" points="244.89 429.06 245.65 455.78 237.7 455.78 238.46 429.06 244.89 429.06"/></g><polygon points="243.65 394.9 239.53 394.9 240.31 382.54 242.87 382.54 243.65 394.9"/><path d="M243.84,382.48a1,1,0,0,0-1-.91h-2.55a1,1,0,0,0-1,.91l-.78,12.35a1,1,0,0,0,1,1h4.12a1,1,0,0,0,1-1Zm-2.61,1H242l.66,10.43h-2.05Z"/><polygon points="244.96 420.02 238.4 420.02 239 403.94 244.36 403.94 244.96 420.02"/><path d="M245.33,403.9a1,1,0,0,0-1-.93H239a1,1,0,0,0-1,.93l-.6,16.08a1,1,0,0,0,.27.7,1,1,0,0,0,.7.3H245a1,1,0,0,0,1-1Zm-5.39,1h3.49l.53,14.15h-4.55Z"/><polygon points="245.65 455.78 237.7 455.78 238.46 429.06 244.89 429.06 245.65 455.78"/><path d="M245.86,429a1,1,0,0,0-1-.94h-6.43a1,1,0,0,0-1,.94l-.77,26.72a1,1,0,0,0,.28.69,1,1,0,0,0,.69.3h8a1,1,0,0,0,.7-.3.93.93,0,0,0,.27-.69Zm-6.45,1H244l.7,24.79h-6Z"/><path d="M244.32,382.45a1.45,1.45,0,0,0-1.45-1.36h-2.55a1.45,1.45,0,0,0-1.45,1.36l-.79,12.35a1.45,1.45,0,0,0,1.45,1.54h4.12a1.47,1.47,0,0,0,1.46-1.54Zm-2.21,11h-1l.51-8.05Z"/><path d="M245.82,403.88a1.46,1.46,0,0,0-1.46-1.39H239a1.45,1.45,0,0,0-1.45,1.39L237,420a1.45,1.45,0,0,0,.4,1.06,1.49,1.49,0,0,0,1.05.44H245a1.46,1.46,0,0,0,1-.44,1.5,1.5,0,0,0,.41-1.06Zm-2.37,14.69h-3.54l.49-13.19H243Z"/><path d="M246.35,429a1.46,1.46,0,0,0-1.45-1.41h-6.43A1.45,1.45,0,0,0,237,429l-.77,26.71a1.45,1.45,0,0,0,1.45,1.49h8a1.45,1.45,0,0,0,1-.44,1.39,1.39,0,0,0,.41-1Zm-2.19,25.31h-5l.68-23.82h3.6Z"/></svg>