<?xml version="1.0" encoding="UTF-8"?>
<svg width="30px" height="26px" viewBox="0 0 30 26" version="1.1" xmlns="http://www.w3.org/2000/svg" xmlns:xlink="http://www.w3.org/1999/xlink">
    <!-- Generator: Sketch 60.1 (88133) - https://sketch.com -->
    <title>Icons/Language@1.5x</title>
    <desc>Created with Sketch.</desc>
    <g id="Web" stroke="none" stroke-width="1" fill="none" fill-rule="evenodd">
        <g id="Tutorial-Profile" transform="translate(-130.000000, -568.000000)">
            <g id="Tutorial-info" transform="translate(120.000000, 288.000000)">
                <g id="Icons/Language" transform="translate(0.000000, 269.000000)">
                    <g id="Group-15" transform="translate(10.105263, 11.314286)">
                        <g id="Group-11" transform="translate(7.578947, 3.771429)" fill-rule="nonzero">
                            <g id="noun_Globe_1977475">
                                <path d="M12.5080759,2.69915347 C11.2396851,1.06154327 9.21916441,0 6.94736842,0 C4.69931834,0 2.69825021,1.04019164 1.42761552,2.64869994 C1.42070732,2.6555092 1.41565423,2.66353319 1.40945275,2.67107812 C0.525660474,3.79968748 0,5.20504711 0,6.72741313 C0,8.23634882 0.515819353,9.63079311 1.38553018,10.754287 C1.38583054,10.7545949 1.38602489,10.7549884 1.38632525,10.7552793 C2.65468074,12.393129 4.67537811,13.4548263 6.94736842,13.4548263 C9.19972952,13.4548263 11.2043136,12.4107338 12.4745772,10.796939 C12.4835173,10.787341 12.4916269,10.7775035 12.4991889,10.7666395 C13.3748008,9.64097278 13.8947368,8.24197756 13.8947368,6.72741313 C13.8947368,5.21887093 13.3792002,3.82473462 12.5098957,2.7013776 C12.5092243,2.70067616 12.508765,2.69983781 12.5080759,2.69915347 Z M4.99584157,0.857984025 C4.42963287,1.39901232 3.95436175,2.17177793 3.61061175,3.10690506 C3.11161241,2.997033 2.61579331,2.86272973 2.1247446,2.70671555 C2.88049639,1.85790178 3.86973171,1.20990989 4.99584157,0.857984025 Z M1.74634752,3.17537403 C2.30298012,3.35960049 2.86645026,3.51510142 3.43382504,3.64165443 C3.18461689,4.48405244 3.03562203,5.43308892 3.01238853,6.44710425 L0.586297279,6.44710425 C0.642729103,5.23240391 1.06439532,4.10892715 1.74634752,3.17537403 Z M0.586297279,7.00772201 L3.01238853,7.00772201 C3.03495066,7.99178 3.17565918,8.91487972 3.41172228,9.73849235 C2.82705046,9.86470319 2.25787355,10.0285703 1.70569329,10.2241398 C1.04739861,9.30170735 0.641616018,8.19838463 0.586297279,7.00772201 Z M2.07447894,10.6919258 C2.56446757,10.5260741 3.06791928,10.3861078 3.58400364,10.2764069 C3.92962645,11.2439208 4.41514506,12.041973 4.99584157,12.5968423 C3.84483738,12.2371319 2.83630852,11.5685412 2.07447894,10.6919258 Z M6.65789474,12.8698115 C5.61851742,12.7061497 4.7126224,11.6718606 4.15936441,10.1655767 C4.97241372,10.0274753 5.80989796,9.95904056 6.65789474,9.9559952 L6.65789474,12.8698115 Z M6.65789474,9.39583939 C5.74973818,9.39898739 4.85331324,9.47585675 3.98330205,9.62810705 C3.75356413,8.84052532 3.61432205,7.95152324 3.59119455,7.00772201 L6.65789474,7.00772201 L6.65789474,9.39583939 Z M6.65789474,6.44710425 L3.59119455,6.44710425 C3.61499345,5.47582644 3.76172677,4.56256424 4.00354967,3.75818178 C4.88735963,3.92471782 5.77620496,4.02256247 6.65789474,4.05003902 L6.65789474,6.44710425 Z M6.65789474,3.48938706 C5.8368418,3.46280015 5.00909264,3.37371516 4.18515978,3.22199523 C4.7405026,1.7525293 5.63420666,0.746212905 6.65789474,0.585014752 L6.65789474,3.48938706 Z M11.8201872,2.76281492 C11.3301986,2.9286324 10.8267646,3.06859864 10.3106802,3.17826539 C9.96507504,2.21083706 9.47957409,1.41281901 8.89889527,0.857983997 C10.0498641,1.21769435 11.0583576,1.88623377 11.8201872,2.76281492 Z M7.23684211,0.585014752 C8.27618408,0.74867654 9.18204378,1.78288013 9.73530178,3.28906132 C8.92225247,3.42712849 8.08483888,3.49554617 7.23684211,3.49859153 L7.23684211,0.585014752 Z M7.23684211,4.05987651 C8.14496332,4.0567285 9.0414766,3.97931165 9.91154079,3.82707847 C10.1412257,4.61457465 10.2804148,5.50343986 10.3035423,6.44710422 L7.23684211,6.44710422 L7.23684211,4.05987651 Z M7.23684211,7.00772201 L10.3035423,7.00772201 C10.2797434,7.97888004 10.1330454,8.89203959 9.89127552,9.69635363 C9.0073949,9.52978336 8.11854954,9.43248621 7.23684211,9.40499254 L7.23684211,7.00772201 Z M7.23684211,12.8698115 L7.23684211,9.9652168 C8.05791273,9.99178661 8.88567955,10.0808716 9.70964772,10.2326257 C9.15432256,11.7022114 8.2605655,12.7086133 7.23684211,12.8698115 Z M8.89889527,12.5968422 C9.46513929,12.0557797 9.9404281,11.2829628 10.2841958,10.3477501 C10.7831951,10.4576393 11.2789965,10.5919768 11.7700452,10.7480423 C11.0142758,11.5968732 10.0250405,12.2448993 8.89889527,12.5968422 Z M12.148513,10.2792982 C11.5918627,10.0950718 11.0284103,9.93929711 10.4610355,9.812727 C10.7101553,8.97043164 10.8591148,8.02156624 10.8823483,7.00772201 L13.3084396,7.00772201 C13.2520077,8.2223539 12.8303946,9.34576223 12.148513,10.2792982 Z M10.8823483,6.44710425 C10.8597862,5.46272118 10.718954,4.53936484 10.4827672,3.71552981 C11.0674567,3.58933607 11.636828,3.42608488 12.1889552,3.23058381 C12.8473029,4.15305048 13.2531208,5.2563903 13.3084396,6.44710425 L10.8823483,6.44710425 Z" id="Shape" fill="#22BFDE"></path>
                                <path d="M12.5080759,3.07289864 C11.2396851,1.43528844 9.21916441,0.373745174 6.94736842,0.373745174 C4.69931834,0.373745174 2.69825021,1.41393681 1.42761552,3.02244512 C1.42070732,3.02925438 1.41565423,3.03727836 1.40945275,3.04482329 C0.525660474,4.17343265 0,5.57879228 0,7.1011583 C0,8.610094 0.515819353,10.0045383 1.38553018,11.1280321 C1.38583054,11.1283401 1.38602489,11.1287336 1.38632525,11.1290244 C2.65468074,12.7668742 4.67537811,13.8285714 6.94736842,13.8285714 C9.19972952,13.8285714 11.2043136,12.784479 12.4745772,11.1706841 C12.4835173,11.1610862 12.4916269,11.1512487 12.4991889,11.1403846 C13.3748008,10.014718 13.8947368,8.61572274 13.8947368,7.1011583 C13.8947368,5.5926161 13.3792002,4.19847979 12.5098957,3.07512278 C12.5092243,3.07442133 12.508765,3.07358299 12.5080759,3.07289864 Z M4.99584157,1.2317292 C4.42963287,1.77275749 3.95436175,2.5455231 3.61061175,3.48065023 C3.11161241,3.37077818 2.61579331,3.2364749 2.1247446,3.08046073 C2.88049639,2.23164695 3.86973171,1.58365506 4.99584157,1.2317292 Z M1.74634752,3.54911921 C2.30298012,3.73334566 2.86645026,3.88884659 3.43382504,4.0153996 C3.18461689,4.85779761 3.03562203,5.80683409 3.01238853,6.82084942 L0.586297279,6.82084942 C0.642729103,5.60614908 1.06439532,4.48267232 1.74634752,3.54911921 Z M0.586297279,7.38146718 L3.01238853,7.38146718 C3.03495066,8.36552517 3.17565918,9.28862489 3.41172228,10.1122375 C2.82705046,10.2384484 2.25787355,10.4023155 1.70569329,10.597885 C1.04739861,9.67545252 0.641616018,8.5721298 0.586297279,7.38146718 Z M2.07447894,11.065671 C2.56446757,10.8998193 3.06791928,10.759853 3.58400364,10.6501521 C3.92962645,11.6176659 4.41514506,12.4157182 4.99584157,12.9705874 C3.84483738,12.6108771 2.83630852,11.9422863 2.07447894,11.065671 Z M6.65789474,13.2435567 C5.61851742,13.0798949 4.7126224,12.0456058 4.15936441,10.5393219 C4.97241372,10.4012205 5.80989796,10.3327857 6.65789474,10.3297404 L6.65789474,13.2435567 Z M6.65789474,9.76958456 C5.74973818,9.77273257 4.85331324,9.84960193 3.98330205,10.0018522 C3.75356413,9.2142705 3.61432205,8.32526841 3.59119455,7.38146718 L6.65789474,7.38146718 L6.65789474,9.76958456 Z M6.65789474,6.82084942 L3.59119455,6.82084942 C3.61499345,5.84957161 3.76172677,4.93630941 4.00354967,4.13192695 C4.88735963,4.298463 5.77620496,4.39630764 6.65789474,4.42378419 L6.65789474,6.82084942 Z M6.65789474,3.86313223 C5.8368418,3.83654533 5.00909264,3.74746033 4.18515978,3.59574041 C4.7405026,2.12627447 5.63420666,1.11995808 6.65789474,0.958759926 L6.65789474,3.86313223 Z M11.8201872,3.13656009 C11.3301986,3.30237757 10.8267646,3.44234381 10.3106802,3.55201057 C9.96507504,2.58458224 9.47957409,1.78656419 8.89889527,1.23172917 C10.0498641,1.59143952 11.0583576,2.25997895 11.8201872,3.13656009 Z M7.23684211,0.958759926 C8.27618408,1.12242171 9.18204378,2.15662531 9.73530178,3.66280649 C8.92225247,3.80087367 8.08483888,3.86929135 7.23684211,3.87233671 L7.23684211,0.958759926 Z M7.23684211,4.43362169 C8.14496332,4.43047368 9.0414766,4.35305682 9.91154079,4.20082365 C10.1412257,4.98831983 10.2804148,5.87718503 10.3035423,6.82084939 L7.23684211,6.82084939 L7.23684211,4.43362169 Z M7.23684211,7.38146718 L10.3035423,7.38146718 C10.2797434,8.35262522 10.1330454,9.26578476 9.89127552,10.0700988 C9.0073949,9.90352853 8.11854954,9.80623139 7.23684211,9.77873771 L7.23684211,7.38146718 Z M7.23684211,13.2435567 L7.23684211,10.338962 C8.05791273,10.3655318 8.88567955,10.4546168 9.70964772,10.6063709 C9.15432256,12.0759566 8.2605655,13.0823585 7.23684211,13.2435567 Z M8.89889527,12.9705874 C9.46513929,12.4295249 9.9404281,11.656708 10.2841958,10.7214953 C10.7831951,10.8313845 11.2789965,10.9657219 11.7700452,11.1217875 C11.0142758,11.9706183 10.0250405,12.6186444 8.89889527,12.9705874 Z M12.148513,10.6530434 C11.5918627,10.468817 11.0284103,10.3130423 10.4610355,10.1864722 C10.7101553,9.34417681 10.8591148,8.39531141 10.8823483,7.38146718 L13.3084396,7.38146718 C13.2520077,8.59609907 12.8303946,9.71950741 12.148513,10.6530434 Z M10.8823483,6.82084942 C10.8597862,5.83646636 10.718954,4.91311001 10.4827672,4.08927498 C11.0674567,3.96308124 11.636828,3.79983005 12.1889552,3.60432899 C12.8473029,4.52679566 13.2531208,5.63013548 13.3084396,6.82084942 L10.8823483,6.82084942 Z" id="Shape" fill="#000000"></path>
                            </g>
                        </g>
                        <path d="M28.3213296,0 L1.99445983,0 C1.59224377,0 1.26315789,0.325714286 1.26315789,0.723809524 L1.26315789,18.0952381 C1.26315789,18.4933333 1.59224377,18.8190476 1.99445983,18.8190476 L7.84487535,18.8190476 L7.84487535,23.1619048 C7.84487535,23.4514286 8.02770083,23.7047619 8.28365651,23.8133333 C8.3933518,23.8857143 8.46648199,23.8857143 8.57617729,23.8857143 C8.75900277,23.8857143 8.94182825,23.8133333 9.08808864,23.6685714 L14.0609418,18.8190476 L28.3213296,18.8190476 C28.7235457,18.8190476 29.0526316,18.4933333 29.0526316,18.0952381 L29.0526316,0.723809524 C29.0526316,0.325714286 28.7235457,0 28.3213296,0 Z M27.5900277,17.3714286 L13.7684211,17.3714286 C13.5855956,17.3714286 13.4027701,17.4438095 13.2565097,17.5885714 L9.30747922,21.4247619 L9.30747922,18.0952381 C9.30747922,17.6971429 8.97839335,17.3714286 8.57617729,17.3714286 L2.72576177,17.3714286 L2.72576177,1.44761905 L27.5900277,1.44761905 L27.5900277,17.3714286 Z" id="Shape" fill="#22BFDE" fill-rule="nonzero"></path>
                        <path d="M27.0581717,1.25714286 L0.731301939,1.25714286 C0.329085873,1.25714286 0,1.58285714 0,1.98095238 L0,19.352381 C0,19.7504762 0.329085873,20.0761905 0.731301939,20.0761905 L6.58171745,20.0761905 L6.58171745,24.4190476 C6.58171745,24.7085714 6.76454294,24.9619048 7.02049861,25.0704762 C7.13019391,25.1428571 7.2033241,25.1428571 7.31301939,25.1428571 C7.49584488,25.1428571 7.67867036,25.0704762 7.82493075,24.9257143 L12.7977839,20.0761905 L27.0581717,20.0761905 C27.4603878,20.0761905 27.7894737,19.7504762 27.7894737,19.352381 L27.7894737,1.98095238 C27.7894737,1.58285714 27.4603878,1.25714286 27.0581717,1.25714286 Z M26.3268698,18.6285714 L12.5052632,18.6285714 C12.3224377,18.6285714 12.1396122,18.7009524 11.9933518,18.8457143 L8.04432133,22.6819048 L8.04432133,19.352381 C8.04432133,18.9542857 7.71523546,18.6285714 7.31301939,18.6285714 L1.46260388,18.6285714 L1.46260388,2.7047619 L26.3268698,2.7047619 L26.3268698,18.6285714 Z" id="Shape" fill="#000000" fill-rule="nonzero"></path>
                    </g>
                </g>
            </g>
        </g>
    </g>
</svg>