<?xml version="1.0" encoding="UTF-8"?>
<svg width="182px" height="190px" viewBox="0 0 182 190" version="1.1" xmlns="http://www.w3.org/2000/svg" xmlns:xlink="http://www.w3.org/1999/xlink">
    <!-- Generator: Sketch 60.1 (88133) - https://sketch.com -->
    <title>Website icon@1.5x</title>
    <desc>Created with Sketch.</desc>
    <g id="Web" stroke="none" stroke-width="1" fill="none" fill-rule="evenodd">
        <g id="Create-Tutorial--Hover-2" transform="translate(-1015.000000, -1484.000000)">
            <g id="Share-your-tutorial-info" transform="translate(158.000000, 1476.000000)">
                <g id="Website-Icon" transform="translate(795.000000, 8.000000)">
                    <g id="Website-icon" transform="translate(62.000000, 0.000000)">
                        <polyline id="Fill-4" fill="#2A2931" points="170.247508 133.47857 170.247508 133.47857 169.745599 133.213453 92 92 118.434366 186.597909 136.139251 160.801345 159.677213 190 173.441607 178.98118 153.959187 154.815442 153.960625 154.815442 149.903645 149.782525 179 138.118827 170.247508 133.47857"></polyline>
                        <path d="M21.1982121,124.98992 L58.7324758,124.98992 C61.0546587,140.901613 65.0341013,155.175233 70.6174366,165.332153 C48.9692114,159.491314 31.0335941,144.593735 21.1982121,124.98992 Z M13.0460522,90.4971312 C13.0460522,83.0354318 14.1105062,75.8132756 16.102391,68.9812737 L57.2367593,68.9812737 C56.6266454,76.0427781 56.3165403,83.2764094 56.3165403,90.4971312 C56.3165403,97.7235906 56.6266454,104.957222 57.2367593,112.017292 L16.102391,112.017292 C14.1105062,105.180987 13.0460522,97.9631338 13.0460522,90.4971312 Z M70.6174366,15.6664131 C65.0341013,25.8233322 61.0546587,40.0969521 58.7324758,56.008646 L21.1982121,56.008646 C31.0335941,36.4062654 48.9692114,21.502948 70.6174366,15.6664131 Z M77.2753223,33.1458957 C81.9456504,19.210792 87.5333127,12.9726277 91.0007212,12.9726277 C94.4638026,12.9726277 100.052907,19.210792 104.723235,33.1458957 C106.97907,39.868884 108.783449,47.6002488 110.095988,56.008646 L71.9040124,56.008646 C73.2165506,47.5959457 75.0223723,39.868884 77.2753223,33.1458957 Z M160.801788,56.008646 L123.268967,56.008646 C120.945341,40.0969521 116.967341,25.8233322 111.382563,15.6664131 C133.029346,21.502948 150.967848,36.4062654 160.801788,56.008646 Z M91.0007212,168.025938 C87.5333127,168.025938 81.9456504,161.787774 77.2753223,147.854104 C75.0223723,141.131116 73.2208776,133.398317 71.9040124,124.98992 L91.9050744,124.98992 L88.2717957,112.017292 L70.3203126,112.017292 C69.6914481,105.100661 69.3611501,97.8828079 69.3611501,90.4971312 C69.3611501,83.1114545 69.6914481,75.8993391 70.3203126,68.9812737 L111.679687,68.9812737 C112.304225,75.8993391 112.634523,83.1114545 112.634523,90.4971312 C112.634523,91.2516206 112.615772,91.9960693 112.610003,92.7476899 L125.506051,99.5710855 C125.614227,96.5531279 125.680575,93.526564 125.680575,90.4971312 C125.680575,83.2764094 125.374797,76.0427781 124.763241,68.9812737 L165.896167,68.9812737 C167.883724,75.8132756 168.95539,83.0354318 168.95539,90.4971312 C168.95539,97.9631338 167.883724,105.18529 165.896167,112.017292 L149.033657,112.017292 L174.827195,125.662649 C175.467599,124.156539 176.084924,122.636085 176.644556,121.088377 C176.759944,120.827318 176.856581,120.551915 176.934468,120.273644 C180.211486,110.944368 182,100.923716 182,90.4971312 C182,80.0705467 180.211486,70.0541978 176.934468,60.7249219 C176.856581,60.4466502 176.759944,60.1726816 176.644556,59.9116225 C164.008131,25.0172048 130.388404,0 91.0007212,0 C51.6101535,0 17.9933113,25.0172048 5.35544408,59.9116225 C5.24005611,60.1726816 5.14197634,60.4466502 5.06697416,60.7249219 C1.78851351,70.0541978 0,80.0705467 0,90.4971312 C0,100.923716 1.78851351,110.944368 5.06697416,120.273644 C5.14630338,120.551915 5.24005611,120.827318 5.35544408,121.088377 C17.996196,155.982795 51.6101535,181 91.0007212,181 C96.5234778,181 101.926519,180.490791 107.179557,179.548397 L100.928413,157.214937 C97.2763843,164.610654 93.558007,168.025938 91.0007212,168.025938 L91.0007212,168.025938 Z" id="Fill-5" fill="#1991E8"></path>
                    </g>
                </g>
            </g>
        </g>
    </g>
</svg>