<?xml version="1.0" encoding="UTF-8"?>
<svg width="252px" height="229px" viewBox="0 0 252 229" version="1.1" xmlns="http://www.w3.org/2000/svg" xmlns:xlink="http://www.w3.org/1999/xlink">
    <!-- Generator: Sketch 60.1 (88133) - https://sketch.com -->
    <title>Group 2@1.5x</title>
    <desc>Created with Sketch.</desc>
    <g id="Web" stroke="none" stroke-width="1" fill="none" fill-rule="evenodd" opacity="0.640880766">
        <g id="FAQ-Response-2" transform="translate(-975.000000, -273.000000)" fill-rule="nonzero">
            <g id="Group-2" transform="translate(975.000000, 273.000000)">
                <g id="noun_Video-Call_2451694-2" transform="translate(7.000000, 0.000000)" fill="#29CFFF">
                    <g id="noun_Video-Call_2451694">
                        <g id="Group">
                            <path d="M233.074026,0.143694313 L11.9259737,0.143694313 C5.82965061,0.143694313 0.870561004,5.0757427 0.870561004,11.1388234 C0.870561004,11.6416673 0.870561004,198.646456 0.870561004,186.466785 C0.870561004,194.550037 7.48169777,201.126957 15.6111112,201.126957 L92.7837878,201.126957 C91.4254461,212.658282 83.7979484,221.52622 74.5950544,221.52622 L67.2247793,221.52622 C65.1876352,221.52622 63.5396417,223.167059 63.5396417,225.191263 C63.5396417,227.215099 65.1876352,228.856306 67.2247793,228.856306 C89.8990621,228.856306 155.269349,228.856306 177.778906,228.856306 C179.815681,228.856306 181.464043,227.215099 181.464043,225.191263 C181.464043,223.167059 179.815681,221.52622 177.778906,221.52622 L170.408631,221.52622 C161.205737,221.52622 153.577871,212.658282 152.219529,201.126957 L229.388889,201.126957 C237.518339,201.126957 244.129439,194.550037 244.129439,186.466785 C244.129439,155.046371 244.129439,70.0078438 244.129439,11.1388234 C244.129439,5.0757427 239.169981,0.143694313 233.074026,0.143694313 Z M153.857941,221.52622 L91.1457442,221.52622 C96.0687194,216.502912 99.4336185,209.287175 100.214499,201.126957 L144.788817,201.126957 C145.569698,209.287175 148.934597,216.502912 153.857941,221.52622 Z M236.759164,186.466785 C236.759164,190.509327 233.451753,193.796871 229.388889,193.796871 C161.255855,193.796871 82.4709304,193.796871 15.6111112,193.796871 C11.5483208,193.796871 8.24083611,190.509327 8.24083611,186.466785 L8.24083611,161.233697 L236.759164,161.233697 L236.759164,186.466785 Z M8.24083611,153.90361 L8.24083611,11.1388234 C8.24083611,9.11828515 9.89288328,7.47378035 11.9259737,7.47378035 L233.074026,7.47378035 C235.10719,7.47378035 236.759164,9.11828515 236.759164,11.1388234 L236.759164,153.90361 L8.24083611,153.90361 Z" id="Shape"></path>
                            <path d="M38.4272719,32.450682 C36.3904963,32.450682 34.7421343,34.0918883 34.7421343,36.115725 L34.7421343,47.1108541 C34.7421343,49.1350573 36.3904963,50.7758971 38.4272719,50.7758971 C40.4640474,50.7758971 42.1124094,49.1350573 42.1124094,47.1108541 L42.1124094,36.115725 C42.1124094,34.0918883 40.4640474,32.450682 38.4272719,32.450682 Z" id="Path"></path>
                            <path d="M38.4272719,56.2734616 C36.3904963,56.2734616 34.7421343,57.9146679 34.7421343,59.9385046 L34.7421343,74.5986767 C34.7421343,76.6228799 36.3904963,78.2637197 38.4272719,78.2637197 C40.4640474,78.2637197 42.1124094,76.6228799 42.1124094,74.5986767 L42.1124094,59.9385046 C42.1124094,57.9146679 40.4640474,56.2734616 38.4272719,56.2734616 Z" id="Path"></path>
                            <path d="M220.176045,16.6363879 L24.8239551,16.6363879 C20.7611646,16.6363879 17.45368,19.923565 17.45368,23.9664739 L17.45368,137.410917 C17.45368,141.453459 20.7611646,144.741003 24.8239551,144.741003 L220.176045,144.741003 C224.238909,144.741003 227.54632,141.453459 227.54632,137.410917 L227.54632,23.9664739 C227.54632,19.923565 224.238909,16.6363879 220.176045,16.6363879 Z M103.565026,46.042494 C108.740139,40.8080796 115.994995,37.8053098 123.469928,37.8053098 C137.971313,37.8053098 154.298683,49.1372563 146.56837,72.0426757 C130.975079,55.4202396 136.887219,51.6566069 131.268416,51.6566069 C130.894006,51.706085 130.519302,51.6771312 129.810207,51.9787642 C129.722501,52.0157811 129.645924,52.0593951 129.561166,52.1030092 C129.130005,52.3247443 128.726408,52.600722 128.405801,52.9727239 C128.402116,52.9771219 128.396662,52.9782214 128.392977,52.9826195 C128.366002,53.0148719 126.266211,55.3810236 120.465804,56.5626335 C110.741168,58.5428562 107.45034,55.2762034 104.48152,58.2217985 C104.329324,58.3738978 104.121851,58.5886693 103.87642,58.8459553 C103.857331,58.8664795 103.839937,58.8848048 103.820038,58.906062 C102.247958,60.5626614 99.0961336,64.1653987 96.6144883,68.6686371 C95.6349787,61.8560551 96.4305999,53.2256118 103.565026,46.042494 Z M103.254738,71.9136662 C104.515792,69.6563662 106.608581,66.7111376 108.772494,64.3622115 C115.668197,64.9013394 123.438236,64.3794372 129.530137,61.124879 C132.821702,67.9653153 138.59189,74.4605046 143.828102,79.7938752 C141.913305,87.9365012 137.695665,95.2753834 132.351478,99.6884617 C125.976927,104.910415 118.93205,105.164769 112.482691,100.288063 C105.202701,94.8242166 97.4056873,82.3879926 103.254738,71.9136662 Z M113.270942,109.24836 C118.42866,111.531682 124.341095,111.798497 130.060797,109.503813 C130.608777,109.28501 131.157125,109.069139 131.696629,108.804523 L132.153586,112.852563 L112.84973,112.852563 L113.270942,109.24836 Z M110.780526,120.361503 L133.765908,120.182649 L134.208419,120.360037 C134.222865,120.365535 134.238269,120.362969 134.252641,120.368467 C170.598415,133.743308 169.511742,133.652049 171.434205,137.407252 L73.4467655,137.407252 C75.5520846,133.330625 80.8424681,131.381921 90.713846,128.060293 C96.324468,126.172429 103.312963,123.820937 110.780526,120.361503 Z M179.299762,137.410917 C176.712501,128.284227 170.151777,126.195885 164.931116,124.216396 L139.774451,114.631575 L138.565357,103.939179 C148.850945,94.2788582 151.454863,79.7726179 151.29198,80.1391222 C161.926181,56.2360782 152.914914,43.3439228 143.486121,36.7369498 C137.634491,32.6405312 130.710486,30.4752238 123.469928,30.4752238 C114.033765,30.4752238 104.864037,34.2762399 98.3181274,40.8975066 C81.7331658,57.589212 91.7265218,79.7099457 93.4917027,83.2481782 C95.9375285,92.0321868 100.574906,99.717049 106.374944,104.749153 L105.206755,114.791004 C98.9987723,117.495073 93.3645655,119.429849 88.3494618,121.116869 C77.1418529,124.888564 68.1114971,128.007883 65.6777585,137.410917 L24.8239551,137.410917 L24.8239551,23.9664739 L220.176045,23.9664739 L220.179362,137.410917 L179.299762,137.410917 Z" id="Shape"></path>
                            <ellipse id="Oval" cx="122.5" cy="177.515284" rx="8.29155949" ry="8.24634679"></ellipse>
                        </g>
                    </g>
                </g>
                <g id="noun_Video-Call_2451694" fill="#000000">
                    <g id="Group">
                        <path d="M233.074026,0.143694313 L11.9259737,0.143694313 C5.82965061,0.143694313 0.870561004,5.0757427 0.870561004,11.1388234 C0.870561004,11.6416673 0.870561004,198.646456 0.870561004,186.466785 C0.870561004,194.550037 7.48169777,201.126957 15.6111112,201.126957 L92.7837878,201.126957 C91.4254461,212.658282 83.7979484,221.52622 74.5950544,221.52622 L67.2247793,221.52622 C65.1876352,221.52622 63.5396417,223.167059 63.5396417,225.191263 C63.5396417,227.215099 65.1876352,228.856306 67.2247793,228.856306 C89.8990621,228.856306 155.269349,228.856306 177.778906,228.856306 C179.815681,228.856306 181.464043,227.215099 181.464043,225.191263 C181.464043,223.167059 179.815681,221.52622 177.778906,221.52622 L170.408631,221.52622 C161.205737,221.52622 153.577871,212.658282 152.219529,201.126957 L229.388889,201.126957 C237.518339,201.126957 244.129439,194.550037 244.129439,186.466785 C244.129439,155.046371 244.129439,70.0078438 244.129439,11.1388234 C244.129439,5.0757427 239.169981,0.143694313 233.074026,0.143694313 Z M153.857941,221.52622 L91.1457442,221.52622 C96.0687194,216.502912 99.4336185,209.287175 100.214499,201.126957 L144.788817,201.126957 C145.569698,209.287175 148.934597,216.502912 153.857941,221.52622 Z M236.759164,186.466785 C236.759164,190.509327 233.451753,193.796871 229.388889,193.796871 C161.255855,193.796871 82.4709304,193.796871 15.6111112,193.796871 C11.5483208,193.796871 8.24083611,190.509327 8.24083611,186.466785 L8.24083611,161.233697 L236.759164,161.233697 L236.759164,186.466785 Z M8.24083611,153.90361 L8.24083611,11.1388234 C8.24083611,9.11828515 9.89288328,7.47378035 11.9259737,7.47378035 L233.074026,7.47378035 C235.10719,7.47378035 236.759164,9.11828515 236.759164,11.1388234 L236.759164,153.90361 L8.24083611,153.90361 Z" id="Shape"></path>
                        <path d="M38.4272719,32.450682 C36.3904963,32.450682 34.7421343,34.0918883 34.7421343,36.115725 L34.7421343,47.1108541 C34.7421343,49.1350573 36.3904963,50.7758971 38.4272719,50.7758971 C40.4640474,50.7758971 42.1124094,49.1350573 42.1124094,47.1108541 L42.1124094,36.115725 C42.1124094,34.0918883 40.4640474,32.450682 38.4272719,32.450682 Z" id="Path"></path>
                        <path d="M38.4272719,56.2734616 C36.3904963,56.2734616 34.7421343,57.9146679 34.7421343,59.9385046 L34.7421343,74.5986767 C34.7421343,76.6228799 36.3904963,78.2637197 38.4272719,78.2637197 C40.4640474,78.2637197 42.1124094,76.6228799 42.1124094,74.5986767 L42.1124094,59.9385046 C42.1124094,57.9146679 40.4640474,56.2734616 38.4272719,56.2734616 Z" id="Path"></path>
                        <path d="M220.176045,16.6363879 L24.8239551,16.6363879 C20.7611646,16.6363879 17.45368,19.923565 17.45368,23.9664739 L17.45368,137.410917 C17.45368,141.453459 20.7611646,144.741003 24.8239551,144.741003 L220.176045,144.741003 C224.238909,144.741003 227.54632,141.453459 227.54632,137.410917 L227.54632,23.9664739 C227.54632,19.923565 224.238909,16.6363879 220.176045,16.6363879 Z M103.565026,46.042494 C108.740139,40.8080796 115.994995,37.8053098 123.469928,37.8053098 C137.971313,37.8053098 154.298683,49.1372563 146.56837,72.0426757 C130.975079,55.4202396 136.887219,51.6566069 131.268416,51.6566069 C130.894006,51.706085 130.519302,51.6771312 129.810207,51.9787642 C129.722501,52.0157811 129.645924,52.0593951 129.561166,52.1030092 C129.130005,52.3247443 128.726408,52.600722 128.405801,52.9727239 C128.402116,52.9771219 128.396662,52.9782214 128.392977,52.9826195 C128.366002,53.0148719 126.266211,55.3810236 120.465804,56.5626335 C110.741168,58.5428562 107.45034,55.2762034 104.48152,58.2217985 C104.329324,58.3738978 104.121851,58.5886693 103.87642,58.8459553 C103.857331,58.8664795 103.839937,58.8848048 103.820038,58.906062 C102.247958,60.5626614 99.0961336,64.1653987 96.6144883,68.6686371 C95.6349787,61.8560551 96.4305999,53.2256118 103.565026,46.042494 Z M103.254738,71.9136662 C104.515792,69.6563662 106.608581,66.7111376 108.772494,64.3622115 C115.668197,64.9013394 123.438236,64.3794372 129.530137,61.124879 C132.821702,67.9653153 138.59189,74.4605046 143.828102,79.7938752 C141.913305,87.9365012 137.695665,95.2753834 132.351478,99.6884617 C125.976927,104.910415 118.93205,105.164769 112.482691,100.288063 C105.202701,94.8242166 97.4056873,82.3879926 103.254738,71.9136662 Z M113.270942,109.24836 C118.42866,111.531682 124.341095,111.798497 130.060797,109.503813 C130.608777,109.28501 131.157125,109.069139 131.696629,108.804523 L132.153586,112.852563 L112.84973,112.852563 L113.270942,109.24836 Z M110.780526,120.361503 L133.765908,120.182649 L134.208419,120.360037 C134.222865,120.365535 134.238269,120.362969 134.252641,120.368467 C170.598415,133.743308 169.511742,133.652049 171.434205,137.407252 L73.4467655,137.407252 C75.5520846,133.330625 80.8424681,131.381921 90.713846,128.060293 C96.324468,126.172429 103.312963,123.820937 110.780526,120.361503 Z M179.299762,137.410917 C176.712501,128.284227 170.151777,126.195885 164.931116,124.216396 L139.774451,114.631575 L138.565357,103.939179 C148.850945,94.2788582 151.454863,79.7726179 151.29198,80.1391222 C161.926181,56.2360782 152.914914,43.3439228 143.486121,36.7369498 C137.634491,32.6405312 130.710486,30.4752238 123.469928,30.4752238 C114.033765,30.4752238 104.864037,34.2762399 98.3181274,40.8975066 C81.7331658,57.589212 91.7265218,79.7099457 93.4917027,83.2481782 C95.9375285,92.0321868 100.574906,99.717049 106.374944,104.749153 L105.206755,114.791004 C98.9987723,117.495073 93.3645655,119.429849 88.3494618,121.116869 C77.1418529,124.888564 68.1114971,128.007883 65.6777585,137.410917 L24.8239551,137.410917 L24.8239551,23.9664739 L220.176045,23.9664739 L220.179362,137.410917 L179.299762,137.410917 Z" id="Shape"></path>
                        <ellipse id="Oval" cx="122.5" cy="177.515284" rx="8.29155949" ry="8.24634679"></ellipse>
                    </g>
                </g>
            </g>
        </g>
    </g>
</svg>