<?xml version="1.0" encoding="UTF-8"?>
<svg width="242px" height="242px" viewBox="0 0 242 242" version="1.1" xmlns="http://www.w3.org/2000/svg" xmlns:xlink="http://www.w3.org/1999/xlink">
    <!-- Generator: Sketch 60.1 (88133) - https://sketch.com -->
    <title>Illustration@1.5x</title>
    <desc>Created with Sketch.</desc>
    <g id="Web" stroke="none" stroke-width="1" fill="none" fill-rule="evenodd" opacity="0.644810268">
        <g id="FAQ-Response-1" transform="translate(-991.000000, -268.000000)" fill-rule="nonzero">
            <g id="Illustration" transform="translate(991.000000, 268.000000)">
                <g id="noun_progress_1448969-2" transform="translate(9.000000, 0.000000)" fill="#29CFFF">
                    <g id="noun_progress_1448969">
                        <path d="M0.042604741,236.566539 L64.1626183,236.566539 L64.1626183,109.578197 L0.042604741,109.578197 L0.042604741,236.566539 Z M14.5260025,124.736842 L48.517335,124.736842 L48.517335,224.526316 L14.5260025,224.526316 L14.5260025,124.736842 Z M82.31708,236.566539 L146.437094,236.566539 L146.437094,62.8018816 L82.31708,62.8018816 L82.31708,236.566539 Z M97.9592732,77.9605263 L131.950606,77.9605263 L131.950606,224.526316 L97.9592732,224.526316 L97.9592732,77.9605263 Z M168.840472,0.433460526 L168.840472,236.569658 L232.960485,236.569658 L232.960485,0.433460526 L168.840472,0.433460526 Z M218.473997,224.526316 L184.482665,224.526316 L184.482665,15.5921053 L218.473997,15.5921053 L218.473997,224.526316 Z" id="Shape"></path>
                    </g>
                </g>
                <g id="noun_progress_1448969-2" transform="translate(0.000000, 5.000000)" fill="#000000">
                    <g id="noun_progress_1448969">
                        <path d="M0,236.133079 L64.5278195,236.133079 L64.5278195,109.144737 L0,109.144737 L0,236.133079 Z M14.5755128,124.303382 L48.7830316,124.303382 L48.7830316,224.092855 L14.5755128,224.092855 L14.5755128,124.303382 Z M82.7977444,236.133079 L147.325564,236.133079 L147.325564,62.3684211 L82.7977444,62.3684211 L82.7977444,236.133079 Z M98.5394226,77.5270658 L132.746941,77.5270658 L132.746941,224.092855 L98.5394226,224.092855 L98.5394226,77.5270658 Z M169.871429,7.10542736e-15 L169.871429,236.136197 L234.399248,236.136197 L234.399248,7.10542736e-15 L169.871429,7.10542736e-15 Z M219.820626,224.092855 L185.613107,224.092855 L185.613107,15.1586447 L219.820626,15.1586447 L219.820626,224.092855 Z" id="Shape"></path>
                    </g>
                </g>
            </g>
        </g>
    </g>
</svg>