<?xml version="1.0" encoding="UTF-8"?>
<svg width="27px" height="27px" viewBox="0 0 27 27" version="1.1" xmlns="http://www.w3.org/2000/svg" xmlns:xlink="http://www.w3.org/1999/xlink">
    <!-- Generator: Sketch 60.1 (88133) - https://sketch.com -->
    <title>Component/Five Stars/Blank@1.5x</title>
    <desc>Created with Sketch.</desc>
    <g id="Web" stroke="none" stroke-width="1" fill="none" fill-rule="evenodd">
        <g id="landing-page-" transform="translate(-224.000000, -2795.000000)">
            <g id="Component/Five-Stars/Blank" transform="translate(226.000000, 2796.000000)">
                <g id="Group-7-Copy-4">
                    <g id="Group-3">
                        <path d="M13.4674615,0.682915825 L16.1205987,5.89364542 C16.3045944,6.26064585 16.663299,6.50474906 17.0695987,6.56168768 L22.9963508,7.39829081 C24.032415,7.54881172 24.448582,8.78060272 23.693445,9.49599987 L19.4035004,13.5493533 C19.103419,13.8317914 18.9675988,14.2359993 19.0355089,14.6407709 L20.0425518,20.3684581 C20.2172607,21.3747496 19.1324404,22.1369379 18.2124618,21.6667714 L12.9154743,18.9579587 C12.5474829,18.7696666 12.1022945,18.7696666 11.734303,18.9579587 L6.44660241,21.6757914 C5.51675648,22.1459578 4.43251667,21.3843333 4.61651239,20.3780418 L5.62355527,14.6497908 C5.69146536,14.254603 5.55564517,13.8413752 5.25556381,13.558937 L0.965619219,9.50501985 C0.210482173,8.79075019 0.626649169,7.5578317 1.66271345,7.40787454 L7.58946547,6.57070766 C8.00563247,6.51433278 8.35446979,6.26064585 8.53846552,5.90322915 L11.1916027,0.692499553 C11.6565256,-0.229229636 13.0025386,-0.229229636 13.4674615,0.682915825 Z" id="Stroke-1" stroke="#22B4DE" stroke-width="2" fill="#22B4DE"></path>
                        <path d="M12.8879294,2.86473401 L15.5410666,8.0754636 C15.7250623,8.44246403 16.0837669,8.68656724 16.4900666,8.74350586 L22.4168187,9.58010899 C23.4528829,9.7306299 23.8690499,10.9624209 23.1139129,11.677818 L18.8239683,15.7311715 C18.5238869,16.0136096 18.3880667,16.4178174 18.4559768,16.822589 L19.4630197,22.5502762 C19.6377286,23.5565677 18.5529083,24.318756 17.6329297,23.8485896 L12.3359422,21.1397769 C11.9679508,20.9514848 11.5227624,20.9514848 11.1547709,21.1397769 L5.86707031,23.8576096 C4.93722438,24.327776 3.85298456,23.5661515 4.03698029,22.55986 L5.04402316,16.831609 C5.11193326,16.4364212 4.97611307,16.0231933 4.67603171,15.7407552 L0.386087118,11.686838 C-0.369049928,10.9725684 0.0471170681,9.73964988 1.08318135,9.58969272 L7.00993337,8.75252584 C7.42610036,8.69615097 7.77493769,8.44246403 7.95893342,8.08504733 L10.6120706,2.87431773 C11.0769935,1.95258855 12.4230065,1.95258855 12.8879294,2.86473401 Z" id="Stroke-1-Copy" stroke="#0E0E0E" stroke-width="3" fill="#FFFFFF"></path>
                    </g>
                </g>
            </g>
        </g>
    </g>
</svg>